{
.appVersion = "1356";
copyright = "Copyright 2015 Yrsa-Rasa Project Authors (https://github.com/rosettatype/yrsa-rasa/)";
customParameters = (
{
name = glyphOrder;
value = (
.notdef,
NULL,
CR,
space,
nbspace,
enspace,
emspace,
figurespace,
punctuationspace,
thinspace,
hairspace,
A,
B,
C,
D,
E,
F,
G,
H,
I,
J,
K,
L,
M,
N,
O,
P,
Q,
R,
S,
T,
U,
V,
W,
X,
Y,
Z,
Agrave,
Aacute,
Acircumflex,
Atilde,
Adieresis,
Aring,
AE,
Ccedilla,
Egrave,
Eacute,
Ecircumflex,
Edieresis,
Igrave,
Iacute,
Icircumflex,
Idieresis,
Eth,
Ntilde,
Ograve,
Oacute,
Ocircumflex,
Otilde,
Odieresis,
Oslash,
Ugrave,
Uacute,
Ucircumflex,
Udieresis,
Yacute,
Thorn,
Amacron,
Abreve,
Aogonek,
Cacute,
Ccircumflex,
Cdotaccent,
Ccaron,
Dcaron,
Dcroat,
Emacron,
Ebreve,
Edotaccent,
Eogonek,
Ecaron,
Gcircumflex,
Gbreve,
Gdotaccent,
Gcommaaccent,
Hcircumflex,
Hbar,
Itilde,
Imacron,
Ibreve,
Iogonek,
Idotaccent,
IJ,
Jcircumflex,
Kcommaaccent,
Lacute,
Lcommaaccent,
Lcaron,
Ldot,
Lslash,
Nacute,
Ncommaaccent,
Ncaron,
Eng,
Omacron,
Obreve,
Ohungarumlaut,
OE,
Racute,
Rcommaaccent,
Rcaron,
Sacute,
Scircumflex,
Scedilla,
Scaron,
Tcedilla,
Tcaron,
Tbar,
Utilde,
Umacron,
Ubreve,
Uring,
Uhungarumlaut,
Uogonek,
Wcircumflex,
Ycircumflex,
Ydieresis,
Zacute,
Zdotaccent,
Zcaron,
Schwa,
Ohorn,
Uhorn,
DZcaron,
Dzcaron,
LJ,
Lj,
NJ,
Nj,
Gcaron,
Oogonek,
Aringacute,
AEacute,
Oslashacute,
Adblgrave,
Ainvertedbreve,
Edblgrave,
Einvertedbreve,
Idblgrave,
Iinvertedbreve,
Odblgrave,
Oinvertedbreve,
Rdblgrave,
Rinvertedbreve,
Udblgrave,
Uinvertedbreve,
Scommaaccent,
Tcommaaccent,
Odieresismacron,
Otildemacron,
Odotaccentmacron,
Ymacron,
Ccedillaacute,
Ddotbelow,
Dlinebelow,
Emacrongrave,
Emacronacute,
Ecedillabreve,
Gmacron,
Hdotbelow,
Hbrevebelow,
Idieresisacute,
Ldotbelow,
Llinebelow,
Mdotbelow,
Ndotaccent,
Ndotbelow,
Nlinebelow,
Otildeacute,
Otildedieresis,
Omacrongrave,
Omacronacute,
Rdotbelow,
Rlinebelow,
Sdotaccent,
Sdotbelow,
Sacutedotaccent,
Scarondotaccent,
Sdotbelowdotaccent,
Tdotbelow,
Tlinebelow,
Utildeacute,
Umacrondieresis,

glyphs = (
{
glyphname = .notdef;
layers = (
{
background = {
paths = (
{
closed = 1;
nodes = (
"160 141 LINE",
"285 256 LINE",
"160 379 LINE",
"201 421 LINE",
"322 293 LINE",
"441 421 LINE",
"485 379 LINE",
"358 257 LINE",
"485 133 LINE",
"444 92 LINE",
"321 220 LINE",
"203 92 LINE"
);
},
{
closed = 1;
nodes = (
"64 0 LINE",
"579 0 LINE",
"579 515 LINE",
"64 515 LINE"
);
}
);
};
layerId = "DAAEA780-4710-4479-B303-5C05B40621B2";
paths = (
{
closed = 1;
nodes = (
"151 140 LINE",
"292 258 LINE",
"183 380 LINE",
"226 420 LINE",
"332 294 LINE",
"467 420 LINE",
"506 376 LINE",
"364 256 LINE",
"476 135 LINE",
"433 95 LINE",
"325 221 LINE",
"191 95 LINE"
);
},
{
closed = 1;
nodes = (
"39 0 LINE",
"554 0 LINE",
"618 515 LINE",
"103 515 LINE"
);
}
);
width = 645;
},
{
background = {
paths = (
{
closed = 1;
nodes = (
"151 140 LINE",
"291 259 LINE",
"181 380 LINE",
"227 422 LINE",
"333 295 LINE",
"468 422 LINE",
"506 379 LINE",
"364 259 LINE",
"478 136 LINE",
"432 94 LINE",
"323 223 LINE",
"188 97 LINE"
);
},
{
closed = 1;
nodes = (
"39 0 LINE",
"554 0 LINE",
"618 515 LINE",
"103 515 LINE"
);
}
);
};
guideLines = (
{
angle = 180;
position = "{127, 287}";
},
{
angle = 90;
position = "{358, 458}";
},
{
angle = 180;
position = "{128, 228}";
},
{
angle = 90;
position = "{297, 457}";
}
);
layerId = "925CB40E-795E-477B-BAE7-1EE7D58841B5";
paths = (
{
closed = 1;
nodes = (
"151 140 LINE",
"292 258 LINE",
"183 380 LINE",
"226 420 LINE",
"332 294 LINE",
"467 420 LINE",
"506 376 LINE",
"364 256 LINE",
"476 135 LINE",
"433 95 LINE",
"325 221 LINE",
"191 95 LINE"
);
},
{
closed = 1;
nodes = (
"39 0 LINE",
"554 0 LINE",
"618 515 LINE",
"103 515 LINE"
);
}
);
width = 645;
}
);
rightMetricsKey = "=|";
userData = {
com.typemytype.robofont.layerData = {
background = {
anchors = (
);
components = (
);
contours = (
{
points = (
{
segmentType = line;
smooth = 0;
x = 440;
y = 387;
},
{
segmentType = line;
smooth = 0;
x = 783;
y = 705;
},
{
segmentType = line;
smooth = 0;
x = 439;
y = 1043;
},
{
segmentType = line;
smooth = 0;
x = 553;
y = 1159;
},
{
segmentType = line;
smooth = 0;
x = 886;
y = 807;
},
{
segmentType = line;
smooth = 0;
x = 1214;
y = 1158;
},
{
segmentType = line;
smooth = 0;
x = 1333;
y = 1042;
},
{
segmentType = line;
smooth = 0;
x = 985;
y = 708;
},
{
segmentType = line;
smooth = 0;
x = 1333;
y = 365;
},
{
segmentType = line;
smooth = 0;
x = 1220;
y = 252;
},
{
segmentType = line;
smooth = 0;
x = 883;
y = 605;
},
{
segmentType = line;
smooth = 0;
x = 559;
y = 252;
}
);
},
{
points = (
{
segmentType = line;
smooth = 0;
x = 177;
y = 0;
},
{
segmentType = line;
smooth = 0;
x = 1593;
y = 0;
},
{
segmentType = line;
smooth = 0;
x = 1593;
y = 1416;
},
{
segmentType = line;
smooth = 0;
x = 177;
y = 1416;
}
);
}
);
lib = {
};
name = .notdef;
unicodes = (
);
width = 1770;
};
};
};
},
{
glyphname = A;
layers = (
{
anchors = (
{
name = bottom;
position = "{238, 0}";
},
{
name = ogonek;
position = "{459, 0}";
},
{
name = top;
position = "{317, 568}";
}
);
background = {
anchors = (
{
name = btm;
position = "{237, 0}";
},
{
name = top;
position = "{318, 568}";
}
);
paths = (
{
closed = 1;
nodes = (
"115 176 LINE",
"392 176 LINE",
"381 214 LINE",
"131 214 LINE"
);
},
{
closed = 1;
nodes = (
"340 570 LINE",
"279 570 LINE",
"41 62 LINE SMOOTH",
"36 51 OFFCURVE",
"28 45 OFFCURVE",
"16 42 CURVE SMOOTH",
"-28 32 LINE",
"-32 0 LINE",
"149 0 LINE",
"153 32 LINE",
"83 46 LINE",
"310 543 LINE",
"284 543 LINE",
"402 46 LINE",
"327 32 LINE",
"323 0 LINE",
"519 0 LINE",
"523 32 LINE",
"483 42 LINE SMOOTH",
"473 45 OFFCURVE",
"467 51 OFFCURVE",
"464 62 CURVE SMOOTH"
);
}
);
};
guideLines = (
{
angle = 101.0277;
position = "{398, 316}";
}
);
layerId = "DAAEA780-4710-4479-B303-5C05B40621B2";
paths = (
{
closed = 1;
nodes = (
"133 176 LINE",
"396 176 LINE",
"386 214 LINE",
"150 214 LINE"
);
},
{
closed = 1;
nodes = (
"348 570 LINE",
"287 570 LINE",
"58 62 LINE SMOOTH",
"53 51 OFFCURVE",
"44 45 OFFCURVE",
"33 42 CURVE SMOOTH",
"-7 32 LINE",
"-11 0 LINE",
"165 0 LINE",
"169 32 LINE",
"101 46 LINE",
"319 543 LINE",
"293 543 LINE",
"386 46 LINE",
"315 32 LINE",
"311 0 LINE",
"500 0 LINE",
"504 32 LINE",
"466 42 LINE SMOOTH",
"458 44 OFFCURVE",
"449 52 OFFCURVE",
"447 62 CURVE SMOOTH"
);
}
);
width = 536;
},
{
anchors = (
{
name = bottom;
position = "{254, 0}";
},
{
name = ogonek;
position = "{505, 0}";
},
{
name = top;
position = "{340, 573}";
}
);
background = {
anchors = (
{
name = btm;
position = "{216, 0}";
},
{
name = top;
position = "{341, 568}";
}
);
paths = (
{
closed = 1;
nodes = (
"128 166 LINE",
"394 166 LINE",
"381 228 LINE",
"153 228 LINE"
);
},
{
closed = 1;
nodes = (
"402 570 LINE",
"273 570 LINE",
"47 82 LINE SMOOTH",
"42 72 OFFCURVE",
"36 66 OFFCURVE",
"26 64 CURVE SMOOTH",
"-25 52 LINE",
"-31 0 LINE",
"181 0 LINE",
"187 52 LINE",
"120 64 LINE",
"313 517 LINE",
"282 517 LINE",
"368 64 LINE",
"296 52 LINE",
"290 0 LINE",
"563 0 LINE",
"569 52 LINE",
"526 64 LINE SMOOTH",
"516 67 OFFCURVE",
"510 72 OFFCURVE",
"508 82 CURVE SMOOTH"
);
}
);
};
guideLines = (
{
angle = 100.2332;
position = "{449, 329}";
}
);
layerId = "925CB40E-795E-477B-BAE7-1EE7D58841B5";
paths = (
{
closed = 1;
nodes = (
"135 171 LINE",
"391 171 LINE",
"377 233 LINE",
"158 233 LINE"
);
},
{
closed = 1;
nodes = (
"404 575 LINE",
"276 575 LINE",
"57 81 LINE SMOOTH",
"53 72 OFFCURVE",
"44 66 OFFCURVE",
"36 64 CURVE SMOOTH",
"-10 52 LINE",
"-16 0 LINE",
"188 0 LINE",
"194 52 LINE",
"130 64 LINE",
"321 526 LINE",
"284 526 LINE",
"359 64 LINE",
"292 52 LINE",
"286 0 LINE",
"546 0 LINE",
"552 52 LINE",
"511 64 LINE SMOOTH",
"497 68 OFFCURVE",
"494 75 OFFCURVE",
"493 82 CURVE SMOOTH"
);
}
);
width = 577;
}
);
leftKerningGroup = A;
rightKerningGroup = A;
unicode = 0041;
userData = {
com.typemytype.robofont.layerData = {
background = {
anchors = (
{
name = btm;
x = 757;
y = -170;
},
{
name = top;
x = 786;
y = 1700;
}
);
components = (
);
contours = (
{
points = (
{
segmentType = line;
smooth = 0;
x = 60;
y = 0;
},
{
segmentType = line;
smooth = 0;
x = 521;
y = 0;
},
{
segmentType = line;
smooth = 0;
x = 521;
y = 88;
},
{
segmentType = line;
smooth = 0;
x = 317;
y = 111;
},
{
segmentType = line;
smooth = 0;
x = 325;
y = 64;
},
{
segmentType = line;
smooth = 0;
x = 707;
y = 1214;
},
{
segmentType = line;
smooth = 0;
x = 763;
y = 1415;
},
{
segmentType = line;
smooth = 0;
x = 820;
y = 1220;
},
{
segmentType = line;
smooth = 0;
x = 1209;
y = 68;
},
{
segmentType = line;
smooth = 0;
x = 1226;
y = 111;
},
{
segmentType = line;
smooth = 0;
x = 1015;
y = 88;
},
{
segmentType = line;
smooth = 0;
x = 1015;
y = 0;
},
{
segmentType = line;
smooth = 0;
x = 1515;
y = 0;
},
{
segmentType = line;
smooth = 0;
x = 1515;
y = 88;
},
{
segmentType = line;
smooth = 0;
x = 1354;
y = 111;
},
{
segmentType = line;
smooth = 0;
x = 1397;
y = 62;
},
{
segmentType = line;
smooth = 0;
x = 870;
y = 1537;
},
{
segmentType = line;
smooth = 0;
x = 702;
y = 1537;
},
{
segmentType = line;
smooth = 0;
x = 178;
y = 68;
},
{
segmentType = line;
smooth = 0;
x = 221;
y = 112;
},
{
segmentType = line;
smooth = 0;
x = 60;
y = 88;
}
);
},
{
points = (
{
segmentType = line;
smooth = 0;
x = 384;
y = 433;
},
{
segmentType = line;
smooth = 0;
x = 1126;
y = 433;
},
{
segmentType = line;
smooth = 0;
x = 1084;
y = 539;
},
{
segmentType = line;
smooth = 0;
x = 418;
y = 539;
}
);
}
);
lib = {
};
name = A;
unicodes = (
);
width = 1486;
};
};
};
},
{
glyphname = B;
layers = (
{
anchors = (
{
name = bottom;
position = "{237, 0}";
},
{
name = top;
position = "{294, 568}";
}
);
background = {
anchors = (
{
name = btm;
position = "{255, 0}";
},
{
name = top;
position = "{326, 568}";
}
);
paths = (
{
closed = 1;
nodes = (
"476 441 CURVE SMOOTH",
"486 527 OFFCURVE",
"439 574 OFFCURVE",
"310 574 CURVE SMOOTH",
"269 574 OFFCURVE",
"235 568 OFFCURVE",
"190 568 CURVE SMOOTH",
"81 568 LINE",
"77 536 LINE",
"137 524 LINE SMOOTH",
"147 522 OFFCURVE",
"152 513 OFFCURVE",
"151 503 CURVE SMOOTH",
"97 64 LINE SMOOTH",
"96 53 OFFCURVE",
"88 45 OFFCURVE",
"77 43 CURVE SMOOTH",
"15 32 LINE",
"11 0 LINE",
"117 0 LINE SMOOTH",
"174 0 OFFCURVE",
"199 -4 OFFCURVE",
"235 -4 CURVE SMOOTH",
"408 -4 OFFCURVE",
"471 71 OFFCURVE",
"483 167 CURVE SMOOTH",
"494 255 OFFCURVE",
"437 311 OFFCURVE",
"333 301 CURVE",
"332 297 LINE",
"418 307 OFFCURVE",
"467 367 OFFCURVE"
);
},
{
closed = 1;
nodes = (
"163 274 LINE",
"200 275 OFFCURVE",
"263 276 OFFCURVE",
"291 276 CURVE SMOOTH",
"387 276 OFFCURVE",
"425 241 OFFCURVE",
"414 156 CURVE SMOOTH",
"403 71 OFFCURVE",
"354 31 OFFCURVE",
"239 31 CURVE SMOOTH",
"213 31 OFFCURVE",
"176 34 OFFCURVE",
"155 37 CURVE",
"216 535 LINE",
"231 535 OFFCURVE",
"258 540 OFFCURVE",
"294 540 CURVE SMOOTH",
"393 540 OFFCURVE",
"423 504 OFFCURVE",
"414 432 CURVE SMOOTH",
"404 351 OFFCURVE",
"357 314 OFFCURVE",
"281 314 CURVE SMOOTH",
"261 314 OFFCURVE",
"205 313 OFFCURVE",
"168 315 CURVE"
);
}
);
};
layerId = "DAAEA780-4710-4479-B303-5C05B40621B2";
paths = (
{
closed = 1;
nodes = (
"400 306 OFFCURVE",
"451 380 OFFCURVE",
"451 453 CURVE SMOOTH",
"451 527 OFFCURVE",
"404 572 OFFCURVE",
"299 572 CURVE SMOOTH",
"269 572 OFFCURVE",
"220 568 OFFCURVE",
"190 568 CURVE SMOOTH",
"86 568 LINE",
"82 536 LINE",
"134 526 LINE SMOOTH",
"148 523 OFFCURVE",
"153 517 OFFCURVE",
"151 500 CURVE SMOOTH",
"98 75 LINE SMOOTH",
"95 53 OFFCURVE",
"91 46 OFFCURVE",
"71 42 CURVE SMOOTH",
"20 32 LINE",
"16 0 LINE",
"117 0 LINE SMOOTH",
"151 0 OFFCURVE",
"199 -4 OFFCURVE",
"235 -4 CURVE SMOOTH",
"379 -4 OFFCURVE",
"458 73 OFFCURVE",
"458 172 CURVE SMOOTH",
"458 252 OFFCURVE",
"393 307 OFFCURVE",
"312 302 CURVE",
"312 297 LINE"
);
},
{
closed = 1;
nodes = (
"162 274 LINE",
"191 275 OFFCURVE",
"227 276 OFFCURVE",
"254 276 CURVE SMOOTH",
"341 276 OFFCURVE",
"389 237 OFFCURVE",
"389 166 CURVE SMOOTH",
"389 84 OFFCURVE",
"339 31 OFFCURVE",
"243 31 CURVE SMOOTH",
"212 31 OFFCURVE",
"175 34 OFFCURVE",
"155 37 CURVE",
"217 535 LINE",
"234 536 OFFCURVE",
"263 538 OFFCURVE",
"282 538 CURVE SMOOTH",
"354 538 OFFCURVE",
"385 509 OFFCURVE",
"385 443 CURVE SMOOTH",
"385 370 OFFCURVE",
"342 314 OFFCURVE",
"244 314 CURVE SMOOTH",
"219 314 OFFCURVE",
"180 316 OFFCURVE",
"167 317 CURVE"
);
}
);
width = 491;
},
{
anchors = (
{
name = bottom;
position = "{273, 0}";
},
{
name = top;
position = "{333, 573}";
}
);
background = {
anchors = (
{
name = btm;
position = "{275, 0}";
},
{
name = top;
position = "{346, 568}";
}
);
paths = (
{
closed = 1;
nodes = (
"539 439 CURVE SMOOTH",
"550 527 OFFCURVE",
"512 572 OFFCURVE",
"352 572 CURVE SMOOTH",
"301 572 OFFCURVE",
"265 568 OFFCURVE",
"218 568 CURVE SMOOTH",
"76 568 LINE",
"69 513 LINE",
"127 501 LINE SMOOTH",
"136 499 OFFCURVE",
"141 493 OFFCURVE",
"140 484 CURVE SMOOTH",
"90 81 LINE SMOOTH",
"89 72 OFFCURVE",
"82 65 OFFCURVE",
"73 63 CURVE SMOOTH",
"13 52 LINE",
"6 0 LINE",
"150 0 LINE SMOOTH",
"197 0 OFFCURVE",
"225 -4 OFFCURVE",
"279 -4 CURVE SMOOTH",
"467 -4 OFFCURVE",
"532 69 OFFCURVE",
"544 168 CURVE SMOOTH",
"556 266 OFFCURVE",
"482 310 OFFCURVE",
"382 303 CURVE",
"382 297 LINE",
"465 301 OFFCURVE",
"528 349 OFFCURVE"
);
},
{
closed = 1;
nodes = (
"225 260 LINE",
"256 261 OFFCURVE",
"287 263 OFFCURVE",
"310 263 CURVE SMOOTH",
"371 263 OFFCURVE",
"400 238 OFFCURVE",
"391 164 CURVE SMOOTH",
"382 91 OFFCURVE",
"349 49 OFFCURVE",
"278 49 CURVE SMOOTH",
"259 49 OFFCURVE",
"237 51 OFFCURVE",
"224 54 CURVE",
"281 518 LINE",
"290 520 OFFCURVE",
"321 521 OFFCURVE",
"329 521 CURVE SMOOTH",
"386 521 OFFCURVE",
"410 494 OFFCURVE",
"402 427 CURVE SMOOTH",
"394 359 OFFCURVE",
"366 321 OFFCURVE",
"312 321 CURVE SMOOTH",
"293 321 OFFCURVE",
"264 321 OFFCURVE",
"233 323 CURVE"
);
}
);
};
layerId = "925CB40E-795E-477B-BAE7-1EE7D58841B5";
paths = (
{
closed = 1;
nodes = (
"463 306 OFFCURVE",
"519 383 OFFCURVE",
"519 452 CURVE SMOOTH",
"519 526 OFFCURVE",
"473 577 OFFCURVE",
"346 577 CURVE SMOOTH",
"310 577 OFFCURVE",
"263 573 OFFCURVE",
"220 573 CURVE SMOOTH",
"82 573 LINE",
"76 521 LINE",
"120 512 LINE SMOOTH",
"136 509 OFFCURVE",
"143 505 OFFCURVE",
"141 488 CURVE SMOOTH",
"91 85 LINE SMOOTH",
"90 69 OFFCURVE",
"82 64 OFFCURVE",
"68 61 CURVE SMOOTH",
"21 52 LINE",
"15 0 LINE",
"150 0 LINE SMOOTH",
"194 0 OFFCURVE",
"233 -4 OFFCURVE",
"274 -4 CURVE SMOOTH",
"457 -4 OFFCURVE",
"523 84 OFFCURVE",
"523 175 CURVE SMOOTH",
"523 255 OFFCURVE",
"461 313 OFFCURVE",
"368 308 CURVE",
"367 302 LINE"
);
},
{
closed = 1;
nodes = (
"225 263 LINE",
"227 263 OFFCURVE",
"271 266 OFFCURVE",
"288 266 CURVE SMOOTH",
"350 266 OFFCURVE",
"376 237 OFFCURVE",
"376 173 CURVE SMOOTH",
"376 102 OFFCURVE",
"338 49 OFFCURVE",
"284 49 CURVE SMOOTH",
"258 49 OFFCURVE",
"235 51 OFFCURVE",
"223 54 CURVE",
"282 523 LINE",
"292 525 OFFCURVE",
"305 526 OFFCURVE",
"317 526 CURVE SMOOTH",
"365 526 OFFCURVE",
"384 498 OFFCURVE",
"384 446 CURVE SMOOTH",
"384 378 OFFCURVE",
"350 324 OFFCURVE",
"299 324 CURVE SMOOTH",
"282 324 OFFCURVE",
"258 324 OFFCURVE",
"232 326 CURVE"
);
}
);
width = 554;
}
);
leftKerningGroup = H;
leftMetricsKey = H;
rightKerningGroup = B;
unicode = 0042;
userData = {
com.typemytype.robofont.layerData = {
background = {
anchors = (
{
name = btm;
x = 737;
y = -170;
},
{
name = top;
x = 737;
y = 1700;
}
);
components = (
);
contours = (
{
points = (
{
segmentType = line;
smooth = 0;
x = 103;
y = 0;
},
{
segmentType = line;
smooth = 0;
x = 355;
y = 0;
},
{
smooth = 0;
x = 511;
y = 0;
},
{
smooth = 0;
x = 580;
y = -12;
},
{
segmentType = curve;
smooth = 1;
x = 679;
y = -12;
},
{
smooth = 0;
x = 1154;
y = -12;
},
{
smooth = 0;
x = 1296;
y = 215;
},
{
segmentType = curve;
smooth = 1;
x = 1296;
y = 455;
},
{
smooth = 0;
x = 1296;
y = 671;
},
{
smooth = 0;
x = 1144;
y = 820;
},
{
segmentType = curve;
smooth = 0;
x = 885;
y = 810;
},
{
smooth = 0;
x = 1084;
y = 850;
},
{
smooth = 0;
x = 1187;
y = 1009;
},
{
segmentType = curve;
smooth = 1;
x = 1187;
y = 1194;
},
{
smooth = 0;
x = 1187;
y = 1410;
},
{
smooth = 0;
x = 1048;
y = 1538;
},
{
segmentType = curve;
smooth = 1;
x = 681;
y = 1538;
},
{
smooth = 0;
x = 580;
y = 1538;
},
{
smooth = 0;
x = 485;
y = 1522;
},
{
segmentType = curve;
smooth = 0;
x = 363;
y = 1522;
},
{
segmentType = line;
smooth = 0;
x = 107;
y = 1522;
},
{
segmentType = line;
smooth = 0;
x = 107;
y = 1434;
},
{
segmentType = line;
smooth = 0;
x = 299;
y = 1409;
},
{
segmentType = line;
smooth = 0;
x = 278;
y = 1450;
},
{
segmentType = line;
smooth = 0;
x = 278;
y = 65;
},
{
segmentType = line;
smooth = 0;
x = 317;
y = 111;
},
{
segmentType = line;
smooth = 0;
x = 103;
y = 88;
}
);
},
{
points = (
{
segmentType = line;
smooth = 0;
x = 447;
y = 736;
},
{
smooth = 0;
x = 508;
y = 739;
},
{
smooth = 0;
x = 666;
y = 738;
},
{
segmentType = curve;
smooth = 1;
x = 740;
y = 738;
},
{
smooth = 0;
x = 1004;
y = 738;
},
{
smooth = 0;
x = 1113;
y = 642;
},
{
segmentType = curve;
smooth = 1;
x = 1113;
y = 423;
},
{
smooth = 0;
x = 1113;
y = 216;
},
{
smooth = 0;
x = 996;
y = 85;
},
{
segmentType = curve;
smooth = 1;
x = 678;
y = 85;
},
{
smooth = 0;
x = 608;
y = 85;
},
{
smooth = 0;
x = 499;
y = 87;
},
{
segmentType = curve;
smooth = 0;
x = 447;
y = 103;
}
);
},
{
points = (
{
segmentType = line;
smooth = 0;
x = 447;
y = 1431;
},
{
smooth = 0;
x = 487;
y = 1432;
},
{
smooth = 0;
x = 560;
y = 1444;
},
{
segmentType = curve;
smooth = 1;
x = 660;
y = 1444;
},
{
smooth = 0;
x = 931;
y = 1444;
},
{
smooth = 0;
x = 1018;
y = 1346;
},
{
segmentType = curve;
smooth = 1;
x = 1018;
y = 1156;
},
{
smooth = 0;
x = 1018;
y = 955;
},
{
smooth = 0;
x = 906;
y = 843;
},
{
segmentType = curve;
smooth = 1;
x = 699;
y = 843;
},
{
smooth = 0;
x = 645;
y = 843;
},
{
smooth = 0;
x = 509;
y = 842;
},
{
segmentType = curve;
smooth = 0;
x = 447;
y = 846;
}
);
}
);
lib = {
};
name = B;
unicodes = (
);
width = 1437;
};
};
};
},
{
glyphname = C;
layers = (
{
anchors = (
{
name = bottom;
position = "{261, 0}";
},
{
name = top;
position = "{321, 568}";
}
);
background = {
paths = (
{
closed = 1;
nodes = (
"319 -10 OFFCURVE",
"376 2 OFFCURVE",
"416 18 CURVE",
"423 63 OFFCURVE",
"427 112 OFFCURVE",
"427 152 CURVE",
"390 154 LINE",
"368 84 LINE SMOOTH",
"362 66 OFFCURVE",
"358 55 OFFCURVE",
"343 44 CURVE SMOOTH",
"326 32 OFFCURVE",
"299 26 OFFCURVE",
"272 26 CURVE SMOOTH",
"173 26 OFFCURVE",
"119 102 OFFCURVE",
"119 232 CURVE SMOOTH",
"119 391 OFFCURVE",
"195 540 OFFCURVE",
"331 540 CURVE SMOOTH",
"354 540 OFFCURVE",
"376 536 OFFCURVE",
"392 528 CURVE SMOOTH",
"412 518 OFFCURVE",
"413 506 OFFCURVE",
"414 484 CURVE SMOOTH",
"418 418 LINE",
"454 418 LINE",
"465 460 OFFCURVE",
"476 513 OFFCURVE",
"480 554 CURVE",
"442 569 OFFCURVE",
"392 578 OFFCURVE",
"346 578 CURVE SMOOTH",
"145 578 OFFCURVE",
"47 403 OFFCURVE",
"47 225 CURVE SMOOTH",
"47 63 OFFCURVE",
"132 -10 OFFCURVE",
"265 -10 CURVE SMOOTH"
);
}
);
};
layerId = "DAAEA780-4710-4479-B303-5C05B40621B2";
paths = (
{
closed = 1;
nodes = (
"319 -10 OFFCURVE",
"376 2 OFFCURVE",
"416 18 CURVE",
"423 63 OFFCURVE",
"427 112 OFFCURVE",
"427 152 CURVE",
"390 154 LINE",
"368 84 LINE SMOOTH",
"362 66 OFFCURVE",
"358 55 OFFCURVE",
"343 44 CURVE SMOOTH",
"326 32 OFFCURVE",
"299 26 OFFCURVE",
"272 26 CURVE SMOOTH",
"173 26 OFFCURVE",
"119 102 OFFCURVE",
"119 232 CURVE SMOOTH",
"119 391 OFFCURVE",
"195 540 OFFCURVE",
"331 540 CURVE SMOOTH",
"354 540 OFFCURVE",
"376 536 OFFCURVE",
"392 528 CURVE SMOOTH",
"412 518 OFFCURVE",
"413 506 OFFCURVE",
"414 484 CURVE SMOOTH",
"418 418 LINE",
"454 418 LINE",
"465 460 OFFCURVE",
"476 513 OFFCURVE",
"480 554 CURVE",
"442 569 OFFCURVE",
"392 578 OFFCURVE",
"346 578 CURVE SMOOTH",
"145 578 OFFCURVE",
"47 403 OFFCURVE",
"47 225 CURVE SMOOTH",
"47 63 OFFCURVE",
"132 -10 OFFCURVE",
"265 -10 CURVE SMOOTH"
);
}
);
width = 493;
},
{
anchors = (
{
name = bottom;
position = "{272, 0}";
},
{
name = top;
position = "{342, 573}";
}
);
background = {
anchors = (
{
name = btm;
position = "{261, 0}";
},
{
name = top;
position = "{348, 568}";
}
);
paths = (
{
closed = 1;
nodes = (
"266 -13 CURVE SMOOTH",
"331 -13 OFFCURVE",
"408 1 OFFCURVE",
"463 19 CURVE",
"477 73 OFFCURVE",
"485 126 OFFCURVE",
"487 171 CURVE",
"408 177 LINE",
"373 93 LINE SMOOTH",
"366 78 OFFCURVE",
"360 71 OFFCURVE",
"353 65 CURVE SMOOTH",
"335 50 OFFCURVE",
"311 43 OFFCURVE",
"287 43 CURVE SMOOTH",
"204 43 OFFCURVE",
"178 127 OFFCURVE",
"197 286 CURVE SMOOTH",
"218 458 OFFCURVE",
"270 524 OFFCURVE",
"343 524 CURVE SMOOTH",
"366 524 OFFCURVE",
"387 517 OFFCURVE",
"399 508 CURVE SMOOTH",
"411 500 OFFCURVE",
"413 488 OFFCURVE",
"415 479 CURVE SMOOTH",
"424 384 LINE",
"505 384 LINE",
"523 445 OFFCURVE",
"532 500 OFFCURVE",
"534 548 CURVE",
"483 568 OFFCURVE",
"418 579 OFFCURVE",
"360 579 CURVE SMOOTH",
"190 579 OFFCURVE",
"67 483 OFFCURVE",
"41 272 CURVE SMOOTH",
"18 88 OFFCURVE",
"91 -13 OFFCURVE"
);
},
{
closed = 0;
nodes = (
"743 77 LINE",
"743 77 OFFCURVE",
"743 77 OFFCURVE",
"742 77 CURVE SMOOTH"
);
}
);
};
layerId = "925CB40E-795E-477B-BAE7-1EE7D58841B5";
paths = (
{
closed = 1;
nodes = (
"329 -13 OFFCURVE",
"397 -2 OFFCURVE",
"456 18 CURVE",
"470 67 OFFCURVE",
"475 135 OFFCURVE",
"473 178 CURVE",
"395 181 LINE",
"365 93 LINE SMOOTH",
"360 79 OFFCURVE",
"355 66 OFFCURVE",
"340 55 CURVE SMOOTH",
"329 47 OFFCURVE",
"314 42 OFFCURVE",
"295 42 CURVE SMOOTH",
"221 42 OFFCURVE",
"190 117 OFFCURVE",
"190 224 CURVE SMOOTH",
"190 383 OFFCURVE",
"248 530 OFFCURVE",
"343 530 CURVE SMOOTH",
"361 530 OFFCURVE",
"379 525 OFFCURVE",
"390 516 CURVE SMOOTH",
"406 503 OFFCURVE",
"407 488 OFFCURVE",
"408 472 CURVE SMOOTH",
"413 398 LINE",
"491 398 LINE",
"507 453 OFFCURVE",
"516 519 OFFCURVE",
"519 560 CURVE",
"475 575 OFFCURVE",
"417 586 OFFCURVE",
"362 586 CURVE SMOOTH",
"146 586 OFFCURVE",
"40 412 OFFCURVE",
"40 223 CURVE SMOOTH",
"40 85 OFFCURVE",
"100 -13 OFFCURVE",
"273 -13 CURVE SMOOTH"
);
}
);
width = 525;
}
);
leftKerningGroup = O;
leftMetricsKey = O;
rightKerningGroup = C;
unicode = 0043;
userData = {
com.typemytype.robofont.layerData = {
background = {
anchors = (
{
name = btm;
x = 765;
y = -170;
},
{
name = top;
x = 784;
y = 1700;
}
);
components = (
);
contours = (
{
points = (
{
segmentType = curve;
smooth = 1;
x = 772;
y = -23;
},
{
smooth = 0;
x = 1017;
y = -23;
},
{
smooth = 0;
x = 1093;
y = 51;
},
{
segmentType = curve;
smooth = 0;
x = 1201;
y = 56;
},
{
segmentType = line;
smooth = 0;
x = 1251;
y = 329;
},
{
segmentType = line;
smooth = 0;
x = 1151;
y = 344;
},
{
segmentType = line;
smooth = 0;
x = 1069;
y = 151;
},
{
smooth = 0;
x = 1015;
y = 108;
},
{
smooth = 0;
x = 946;
y = 75;
},
{
segmentType = curve;
smooth = 1;
x = 776;
y = 75;
},
{
smooth = 0;
x = 426;
y = 75;
},
{
smooth = 0;
x = 267;
y = 416;
},
{
segmentType = curve;
smooth = 1;
x = 267;
y = 786;
},
{
smooth = 0;
x = 267;
y = 1207;
},
{
smooth = 0;
x = 484;
y = 1439;
},
{
segmentType = curve;
smooth = 1;
x = 762;
y = 1439;
},
{
smooth = 0;
x = 924;
y = 1439;
},
{
smooth = 0;
x = 1031;
y = 1410;
},
{
segmentType = curve;
smooth = 0;
x = 1068;
y = 1376;
},
{
segmentType = line;
smooth = 0;
x = 1112;
y = 1139;
},
{
segmentType = line;
smooth = 0;
x = 1218;
y = 1139;
},
{
segmentType = line;
smooth = 0;
x = 1235;
y = 1473;
},
{
smooth = 0;
x = 1164;
y = 1489;
},
{
smooth = 0;
x = 986;
y = 1538;
},
{
segmentType = curve;
smooth = 1;
x = 803;
y = 1538;
},
{
smooth = 0;
x = 391;
y = 1538;
},
{
smooth = 0;
x = 74;
y = 1224;
},
{
segmentType = curve;
smooth = 1;
x = 74;
y = 768;
},
{
smooth = 0;
x = 74;
y = 293;
},
{
smooth = 0;
x = 325;
y = -23;
}
);
}
);
lib = {
};
name = C;
unicodes = (
);
width = 1391;
};
};
};
},
{
glyphname = D;
layers = (
{
anchors = (
{
name = bottom;
position = "{235, 0}";
},
{
name = top;
position = "{309, 568}";
}
);
background = {
anchors = (
{
name = btm;
position = "{280, 0}";
},
{
name = top;
position = "{330, 568}";
}
);
paths = (
{
closed = 1;
nodes = (
"189 568 CURVE SMOOTH",
"80 568 LINE",
"76 536 LINE",
"136 524 LINE SMOOTH",
"146 522 OFFCURVE",
"151 513 OFFCURVE",
"150 503 CURVE SMOOTH",
"96 65 LINE SMOOTH",
"95 53 OFFCURVE",
"87 45 OFFCURVE",
"74 43 CURVE SMOOTH",
"14 32 LINE",
"10 0 LINE",
"120 0 LINE SMOOTH",
"163 0 OFFCURVE",
"208 -5 OFFCURVE",
"240 -5 CURVE SMOOTH",
"412 -5 OFFCURVE",
"537 96 OFFCURVE",
"561 300 CURVE SMOOTH",
"582 475 OFFCURVE",
"512 574 OFFCURVE",
"323 574 CURVE SMOOTH",
"277 574 OFFCURVE",
"235 568 OFFCURVE"
);
},
{
closed = 1;
nodes = (
"155 37 CURVE",
"216 533 LINE",
"236 534 OFFCURVE",
"265 537 OFFCURVE",
"298 537 CURVE SMOOTH",
"449 537 OFFCURVE",
"515 464 OFFCURVE",
"493 288 CURVE SMOOTH",
"471 113 OFFCURVE",
"387 35 OFFCURVE",
"255 31 CURVE SMOOTH",
"224 30 OFFCURVE",
"178 33 OFFCURVE"
);
}
);
};
layerId = "DAAEA780-4710-4479-B303-5C05B40621B2";
paths = (
{
closed = 1;
nodes = (
"441 -4 OFFCURVE",
"522 175 OFFCURVE",
"522 334 CURVE SMOOTH",
"522 493 OFFCURVE",
"435 571 OFFCURVE",
"282 571 CURVE SMOOTH",
"243 571 OFFCURVE",
"206 568 OFFCURVE",
"178 568 CURVE SMOOTH",
"86 568 LINE",
"82 536 LINE",
"134 526 LINE SMOOTH",
"148 523 OFFCURVE",
"153 517 OFFCURVE",
"150 500 CURVE SMOOTH",
"97 75 LINE SMOOTH",
"94 53 OFFCURVE",
"90 46 OFFCURVE",
"70 42 CURVE SMOOTH",
"19 32 LINE",
"15 0 LINE",
"117 0 LINE SMOOTH",
"154 0 OFFCURVE",
"191 -4 OFFCURVE",
"223 -4 CURVE SMOOTH"
);
},
{
closed = 1;
nodes = (
"208 32 OFFCURVE",
"175 34 OFFCURVE",
"155 37 CURVE",
"216 533 LINE",
"238 534 OFFCURVE",
"252 535 OFFCURVE",
"268 535 CURVE SMOOTH",
"391 535 OFFCURVE",
"451 467 OFFCURVE",
"451 325 CURVE SMOOTH",
"451 193 OFFCURVE",
"398 32 OFFCURVE",
"230 32 CURVE SMOOTH"
);
}
);
width = 551;
},
{
anchors = (
{
name = bottom;
position = "{262, 0}";
},
{
name = top;
position = "{331, 573}";
}
);
background = {
anchors = (
{
name = btm;
position = "{297, 0}";
},
{
name = top;
position = "{343, 568}";
}
);
paths = (
{
closed = 1;
nodes = (
"217 568 CURVE SMOOTH",
"76 568 LINE",
"69 513 LINE",
"127 501 LINE SMOOTH",
"136 499 OFFCURVE",
"141 493 OFFCURVE",
"140 484 CURVE SMOOTH",
"90 81 LINE SMOOTH",
"89 72 OFFCURVE",
"82 65 OFFCURVE",
"73 63 CURVE SMOOTH",
"13 52 LINE",
"6 0 LINE",
"148 0 LINE SMOOTH",
"177 0 OFFCURVE",
"235 -5 OFFCURVE",
"268 -6 CURVE SMOOTH",
"447 -11 OFFCURVE",
"567 101 OFFCURVE",
"591 303 CURVE SMOOTH",
"613 490 OFFCURVE",
"532 572 OFFCURVE",
"347 572 CURVE SMOOTH",
"305 572 OFFCURVE",
"266 568 OFFCURVE"
);
},
{
closed = 1;
nodes = (
"225 59 CURVE",
"281 512 LINE",
"285 513 OFFCURVE",
"306 519 OFFCURVE",
"331 519 CURVE SMOOTH",
"430 519 OFFCURVE",
"456 431 OFFCURVE",
"438 282 CURVE SMOOTH",
"417 107 OFFCURVE",
"361 51 OFFCURVE",
"277 51 CURVE SMOOTH",
"260 51 OFFCURVE",
"237 53 OFFCURVE"
);
}
);
};
layerId = "925CB40E-795E-477B-BAE7-1EE7D58841B5";
paths = (
{
closed = 1;
nodes = (
"493 -5 OFFCURVE",
"569 205 OFFCURVE",
"569 352 CURVE SMOOTH",
"569 508 OFFCURVE",
"485 576 OFFCURVE",
"329 576 CURVE SMOOTH",
"298 576 OFFCURVE",
"230 573 OFFCURVE",
"192 573 CURVE SMOOTH",
"82 573 LINE",
"76 521 LINE",
"120 512 LINE SMOOTH",
"136 509 OFFCURVE",
"143 505 OFFCURVE",
"141 488 CURVE SMOOTH",
"91 85 LINE",
"89 69 OFFCURVE",
"81 64 OFFCURVE",
"67 61 CURVE",
"20 52 LINE",
"14 0 LINE",
"125 0 LINE SMOOTH",
"165 0 OFFCURVE",
"214 -5 OFFCURVE",
"250 -5 CURVE SMOOTH"
);
},
{
closed = 1;
nodes = (
"255 52 OFFCURVE",
"237 54 OFFCURVE",
"223 59 CURVE",
"281 519 LINE",
"290 521 OFFCURVE",
"305 522 OFFCURVE",
"315 522 CURVE SMOOTH",
"390 522 OFFCURVE",
"421 465 OFFCURVE",
"421 352 CURVE SMOOTH",
"421 232 OFFCURVE",
"384 52 OFFCURVE",
"272 52 CURVE SMOOTH"
);
}
);
width = 590;
}
);
leftKerningGroup = H;
leftMetricsKey = H;
rightKerningGroup = D;
rightMetricsKey = O;
unicode = 0044;
userData = {
com.typemytype.robofont.layerData = {
background = {
anchors = (
{
name = btm;
x = 805;
y = -170;
},
{
name = top;
x = 806;
y = 1700;
}
);
components = (
);
contours = (
{
points = (
{
segmentType = line;
smooth = 0;
x = 102;
y = 0;
},
{
smooth = 0;
x = 194;
y = 0;
},
{
smooth = 0;
x = 274;
y = 0;
},
{
segmentType = curve;
smooth = 1;
x = 365;
y = 0;
},
{
smooth = 0;
x = 483;
y = 0;
},
{
smooth = 0;
x = 600;
y = -14;
},
{
segmentType = curve;
smooth = 1;
x = 698;
y = -16;
},
{
smooth = 0;
x = 1154;
y = -27;
},
{
smooth = 0;
x = 1475;
y = 305;
},
{
segmentType = curve;
smooth = 1;
x = 1475;
y = 806;
},
{
smooth = 0;
x = 1475;
y = 1246;
},
{
smooth = 0;
x = 1256;
y = 1538;
},
{
segmentType = curve;
smooth = 1;
x = 724;
y = 1538;
},
{
smooth = 0;
x = 603;
y = 1538;
},
{
smooth = 0;
x = 488;
y = 1522;
},
{
segmentType = curve;
smooth = 1;
x = 362;
y = 1522;
},
{
segmentType = line;
smooth = 0;
x = 114;
y = 1522;
},
{
segmentType = line;
smooth = 0;
x = 114;
y = 1434;
},
{
segmentType = line;
smooth = 0;
x = 302;
y = 1408;
},
{
segmentType = line;
smooth = 0;
x = 278;
y = 1445;
},
{
segmentType = line;
smooth = 0;
x = 278;
y = 67;
},
{
segmentType = line;
smooth = 0;
x = 318;
y = 112;
},
{
segmentType = line;
smooth = 0;
x = 102;
y = 88;
}
);
},
{
points = (
{
segmentType = line;
smooth = 0;
x = 447;
y = 1427;
},
{
smooth = 0;
x = 503;
y = 1430;
},
{
smooth = 0;
x = 579;
y = 1440;
},
{
segmentType = curve;
smooth = 1;
x = 672;
y = 1440;
},
{
smooth = 0;
x = 1087;
y = 1440;
},
{
smooth = 0;
x = 1294;
y = 1217;
},
{
segmentType = curve;
smooth = 1;
x = 1294;
y = 771;
},
{
smooth = 0;
x = 1294;
y = 326;
},
{
smooth = 0;
x = 1053;
y = 89;
},
{
segmentType = curve;
smooth = 1;
x = 723;
y = 83;
},
{
smooth = 0;
x = 629;
y = 81;
},
{
smooth = 0;
x = 545;
y = 82;
},
{
segmentType = curve;
smooth = 0;
x = 447;
y = 100;
}
);
}
);
lib = {
};
name = D;
unicodes = (
);
width = 1624;
};
};
};
},
{
glyphname = E;
layers = (
{
anchors = (
{
name = bottom;
position = "{231, 0}";
},
{
name = ogonek;
position = "{402, 0}";
},
{
name = top;
position = "{284, 568}";
}
);
background = {
anchors = (
{
name = btm;
position = "{232, 0}";
},
{
name = top;
position = "{295, 568}";
}
);
paths = (
{
closed = 1;
nodes = (
"455 433 LINE",
"465 482 OFFCURVE",
"470 524 OFFCURVE",
"474 568 CURVE",
"81 568 LINE",
"77 536 LINE",
"134 524 LINE SMOOTH",
"146 521 OFFCURVE",
"152 513 OFFCURVE",
"151 501 CURVE SMOOTH",
"97 66 LINE SMOOTH",
"95 53 OFFCURVE",
"89 46 OFFCURVE",
"75 43 CURVE SMOOTH",
"15 32 LINE",
"11 0 LINE",
"422 0 LINE",
"437 47 OFFCURVE",
"449 96 OFFCURVE",
"455 140 CURVE",
"424 144 LINE",
"389 69 LINE SMOOTH",
"384 58 OFFCURVE",
"378 52 OFFCURVE",
"365 48 CURVE SMOOTH",
"346 42 OFFCURVE",
"314 39 OFFCURVE",
"279 39 CURVE SMOOTH",
"156 39 LINE",
"185 272 LINE",
"368 268 LINE",
"374 317 LINE",
"189 311 LINE",
"216 532 LINE",
"317 532 LINE SMOOTH",
"351 532 OFFCURVE",
"380 530 OFFCURVE",
"397 524 CURVE SMOOTH",
"409 520 OFFCURVE",
"415 513 OFFCURVE",
"416 503 CURVE SMOOTH",
"422 433 LINE"
);
}
);
};
guideLines = (
{
angle = 180;
position = "{194, 272}";
},
{
position = "{194, 311}";
}
);
layerId = "DAAEA780-4710-4479-B303-5C05B40621B2";
paths = (
{
closed = 1;
nodes = (
"433 433 LINE",
"444 482 OFFCURVE",
"452 523 OFFCURVE",
"456 568 CURVE",
"86 568 LINE",
"82 536 LINE",
"134 526 LINE SMOOTH",
"148 523 OFFCURVE",
"153 517 OFFCURVE",
"151 500 CURVE SMOOTH",
"98 75 LINE SMOOTH",
"95 53 OFFCURVE",
"91 46 OFFCURVE",
"71 42 CURVE SMOOTH",
"20 32 LINE",
"16 0 LINE",
"402 0 LINE",
"414 47 OFFCURVE",
"424 98 OFFCURVE",
"427 140 CURVE",
"396 144 LINE",
"364 69 LINE SMOOTH",
"361 62 OFFCURVE",
"356 53 OFFCURVE",
"342 48 CURVE SMOOTH",
"324 42 OFFCURVE",
"292 39 OFFCURVE",
"257 39 CURVE SMOOTH",
"156 39 LINE",
"185 272 LINE",
"338 268 LINE",
"345 284 OFFCURVE",
"347 301 OFFCURVE",
"344 317 CURVE",
"190 311 LINE",
"217 532 LINE",
"298 532 LINE SMOOTH",
"325 532 OFFCURVE",
"360 531 OFFCURVE",
"378 524 CURVE SMOOTH",
"390 519 OFFCURVE",
"394 513 OFFCURVE",
"395 503 CURVE SMOOTH",
"400 433 LINE"
);
}
);
width = 477;
},
{
anchors = (
{
name = bottom;
position = "{249, 0}";
},
{
name = ogonek;
position = "{448, 0}";
},
{
name = top;
position = "{305, 573}";
}
);
background = {
anchors = (
{
name = btm;
position = "{259, 0}";
},
{
name = top;
position = "{315, 568}";
}
);
paths = (
{
closed = 1;
nodes = (
"499 413 LINE",
"509 466 OFFCURVE",
"516 517 OFFCURVE",
"515 568 CURVE",
"78 568 LINE",
"71 513 LINE",
"127 502 LINE SMOOTH",
"138 500 OFFCURVE",
"142 493 OFFCURVE",
"141 481 CURVE SMOOTH",
"92 83 LINE SMOOTH",
"91 72 OFFCURVE",
"84 65 OFFCURVE",
"73 63 CURVE SMOOTH",
"15 52 LINE",
"8 0 LINE",
"464 0 LINE",
"480 59 OFFCURVE",
"492 112 OFFCURVE",
"499 171 CURVE",
"435 181 LINE",
"393 91 LINE SMOOTH",
"387 78 OFFCURVE",
"382 72 OFFCURVE",
"371 67 CURVE SMOOTH",
"358 61 OFFCURVE",
"328 59 OFFCURVE",
"304 59 CURVE SMOOTH",
"227 59 LINE",
"252 256 LINE",
"407 252 LINE",
"416 327 LINE",
"260 321 LINE",
"283 512 LINE",
"344 512 LINE SMOOTH",
"368 512 OFFCURVE",
"392 508 OFFCURVE",
"404 504 CURVE SMOOTH",
"415 500 OFFCURVE",
"420 493 OFFCURVE",
"422 480 CURVE SMOOTH",
"434 413 LINE"
);
}
);
};
layerId = "925CB40E-795E-477B-BAE7-1EE7D58841B5";
paths = (
{
closed = 1;
nodes = (
"482 418 LINE",
"494 471 OFFCURVE",
"501 525 OFFCURVE",
"504 573 CURVE",
"82 573 LINE",
"76 521 LINE",
"120 512 LINE SMOOTH",
"136 509 OFFCURVE",
"143 505 OFFCURVE",
"141 488 CURVE SMOOTH",
"91 85 LINE SMOOTH",
"89 69 OFFCURVE",
"81 64 OFFCURVE",
"67 61 CURVE SMOOTH",
"20 52 LINE",
"14 0 LINE",
"448 0 LINE",
"464 59 OFFCURVE",
"473 117 OFFCURVE",
"477 172 CURVE",
"413 178 LINE",
"379 99 LINE SMOOTH",
"372 82 OFFCURVE",
"366 72 OFFCURVE",
"351 67 CURVE SMOOTH",
"334 61 OFFCURVE",
"307 59 OFFCURVE",
"278 59 CURVE SMOOTH",
"223 59 LINE",
"248 258 LINE",
"389 253 LINE",
"398 276 OFFCURVE",
"401 304 OFFCURVE",
"399 330 CURVE",
"256 323 LINE",
"281 517 LINE",
"334 517 LINE SMOOTH",
"352 517 OFFCURVE",
"375 517 OFFCURVE",
"391 511 CURVE SMOOTH",
"407 505 OFFCURVE",
"409 498 OFFCURVE",
"411 481 CURVE SMOOTH",
"418 418 LINE"
);
}
);
width = 521;
}
);
leftKerningGroup = H;
leftMetricsKey = H;
rightKerningGroup = E;
unicode = 0045;
userData = {
com.typemytype.robofont.guides = (
{
angle = 180;
isGlobal = 0;
x = 605;
y = 749;
},
{
angle = 0;
isGlobal = 0;
x = 605;
y = 855;
}
);
com.typemytype.robofont.layerData = {
background = {
anchors = (
{
name = btm;
x = 698;
y = -170;
},
{
name = top;
x = 696;
y = 1700;
}
);
components = (
);
contours = (
{
points = (
{
segmentType = line;
smooth = 0;
x = 103;
y = 0;
},
{
segmentType = line;
smooth = 0;
x = 1212;
y = 0;
},
{
segmentType = line;
smooth = 0;
x = 1275;
y = 346;
},
{
segmentType = line;
smooth = 0;
x = 1178;
y = 377;
},
{
segmentType = line;
smooth = 0;
x = 1074;
y = 121;
},
{
segmentType = line;
smooth = 0;
x = 447;
y = 104;
},
{
segmentType = line;
smooth = 0;
x = 447;
y = 735;
},
{
segmentType = line;
smooth = 0;
x = 824;
y = 730;
},
{
segmentType = line;
smooth = 0;
x = 849;
y = 555;
},
{
segmentType = line;
smooth = 0;
x = 953;
y = 555;
},
{
segmentType = line;
smooth = 0;
x = 953;
y = 1007;
},
{
segmentType = line;
smooth = 0;
x = 849;
y = 1007;
},
{
segmentType = line;
smooth = 0;
x = 824;
y = 837;
},
{
segmentType = line;
smooth = 0;
x = 447;
y = 831;
},
{
segmentType = line;
smooth = 0;
x = 447;
y = 1427;
},
{
segmentType = line;
smooth = 0;
x = 995;
y = 1418;
},
{
segmentType = line;
smooth = 0;
x = 1051;
y = 1221;
},
{
segmentType = line;
smooth = 0;
x = 1148;
y = 1221;
},
{
segmentType = line;
smooth = 0;
x = 1120;
y = 1522;
},
{
segmentType = line;
smooth = 0;
x = 107;
y = 1522;
},
{
segmentType = line;
smooth = 0;
x = 107;
y = 1434;
},
{
segmentType = line;
smooth = 0;
x = 299;
y = 1409;
},
{
segmentType = line;
smooth = 0;
x = 278;
y = 1453;
},
{
segmentType = line;
smooth = 0;
x = 278;
y = 66;
},
{
segmentType = line;
smooth = 0;
x = 325;
y = 113;
},
{
segmentType = line;
smooth = 0;
x = 103;
y = 88;
}
);
}
);
lib = {
};
name = E;
unicodes = (
);
width = 1348;
};
};
};
},
{
glyphname = F;
layers = (
{
anchors = (
{
name = bottom;
position = "{132, 0}";
},
{
name = top;
position = "{284, 568}";
}
);
background = {
anchors = (
{
name = btm;
position = "{225, 0}";
},
{
name = top;
position = "{286, 568}";
}
);
paths = (
{
closed = 1;
nodes = (
"367 260 LINE",
"373 310 LINE",
"188 304 LINE",
"216 532 LINE",
"317 532 LINE SMOOTH",
"351 532 OFFCURVE",
"380 530 OFFCURVE",
"397 524 CURVE SMOOTH",
"409 520 OFFCURVE",
"415 513 OFFCURVE",
"416 503 CURVE SMOOTH",
"422 433 LINE",
"455 433 LINE",
"465 482 OFFCURVE",
"470 524 OFFCURVE",
"474 568 CURVE",
"81 568 LINE",
"77 536 LINE",
"134 524 LINE SMOOTH",
"146 521 OFFCURVE",
"152 513 OFFCURVE",
"151 501 CURVE SMOOTH",
"97 66 LINE SMOOTH",
"95 53 OFFCURVE",
"89 46 OFFCURVE",
"75 43 CURVE SMOOTH",
"15 32 LINE",
"11 0 LINE",
"262 0 LINE",
"266 32 LINE",
"176 44 LINE SMOOTH",
"165 45 OFFCURVE",
"158 54 OFFCURVE",
"159 65 CURVE SMOOTH",
"184 265 LINE"
);
}
);
};
layerId = "DAAEA780-4710-4479-B303-5C05B40621B2";
paths = (
{
closed = 1;
nodes = (
"256 0 LINE",
"260 32 LINE",
"177 44 LINE SMOOTH",
"165 46 OFFCURVE",
"158 52 OFFCURVE",
"160 68 CURVE SMOOTH",
"184 265 LINE",
"336 260 LINE",
"343 277 OFFCURVE",
"346 293 OFFCURVE",
"343 310 CURVE",
"189 304 LINE",
"217 532 LINE",
"296 532 LINE SMOOTH",
"323 532 OFFCURVE",
"358 531 OFFCURVE",
"376 524 CURVE SMOOTH",
"388 519 OFFCURVE",
"392 513 OFFCURVE",
"393 503 CURVE SMOOTH",
"398 433 LINE",
"431 433 LINE",
"442 482 OFFCURVE",
"450 523 OFFCURVE",
"454 568 CURVE",
"86 568 LINE",
"82 536 LINE",
"134 526 LINE SMOOTH",
"148 523 OFFCURVE",
"153 517 OFFCURVE",
"151 500 CURVE SMOOTH",
"98 75 LINE SMOOTH",
"95 53 OFFCURVE",
"91 46 OFFCURVE",
"71 42 CURVE SMOOTH",
"20 32 LINE",
"16 0 LINE"
);
}
);
width = 440;
},
{
anchors = (
{
name = bottom;
position = "{159, 0}";
},
{
name = top;
position = "{305, 573}";
}
);
background = {
anchors = (
{
name = btm;
position = "{240, 0}";
},
{
name = top;
position = "{311, 568}";
}
);
paths = (
{
closed = 1;
nodes = (
"405 243 LINE",
"414 317 LINE",
"257 312 LINE",
"282 512 LINE",
"343 512 LINE SMOOTH",
"367 512 OFFCURVE",
"391 508 OFFCURVE",
"403 504 CURVE SMOOTH",
"414 500 OFFCURVE",
"419 493 OFFCURVE",
"421 480 CURVE SMOOTH",
"433 413 LINE",
"498 413 LINE",
"508 466 OFFCURVE",
"515 517 OFFCURVE",
"514 568 CURVE",
"77 568 LINE",
"70 513 LINE",
"126 502 LINE SMOOTH",
"137 500 OFFCURVE",
"141 493 OFFCURVE",
"140 481 CURVE SMOOTH",
"91 82 LINE SMOOTH",
"90 72 OFFCURVE",
"83 65 OFFCURVE",
"73 63 CURVE SMOOTH",
"14 52 LINE",
"7 0 LINE",
"328 0 LINE",
"335 52 LINE",
"243 64 LINE SMOOTH",
"234 65 OFFCURVE",
"228 72 OFFCURVE",
"229 81 CURVE SMOOTH",
"249 247 LINE"
);
}
);
};
layerId = "925CB40E-795E-477B-BAE7-1EE7D58841B5";
paths = (
{
closed = 1;
nodes = (
"312 0 LINE",
"319 52 LINE",
"249 61 LINE SMOOTH",
"225 64 OFFCURVE",
"226 74 OFFCURVE",
"227 85 CURVE SMOOTH",
"247 249 LINE",
"388 244 LINE",
"398 267 OFFCURVE",
"399 297 OFFCURVE",
"398 321 CURVE",
"255 314 LINE",
"281 517 LINE",
"334 517 LINE SMOOTH",
"355 517 OFFCURVE",
"377 517 OFFCURVE",
"389 512 CURVE SMOOTH",
"407 505 OFFCURVE",
"409 498 OFFCURVE",
"411 481 CURVE SMOOTH",
"418 418 LINE",
"482 418 LINE",
"494 471 OFFCURVE",
"501 526 OFFCURVE",
"504 573 CURVE",
"82 573 LINE",
"76 521 LINE",
"120 512 LINE SMOOTH",
"136 509 OFFCURVE",
"143 505 OFFCURVE",
"141 488 CURVE SMOOTH",
"91 85 LINE SMOOTH",
"89 69 OFFCURVE",
"81 64 OFFCURVE",
"67 61 CURVE SMOOTH",
"20 52 LINE",
"14 0 LINE"
);
}
);
width = 483;
}
);
leftKerningGroup = H;
leftMetricsKey = H;
rightKerningGroup = F;
unicode = 0046;
userData = {
com.typemytype.robofont.layerData = {
"Light Oct 7 15, 12:37" = {
anchors = (
{
name = btm;
x = 644;
y = -170;
},
{
name = top;
x = 644;
y = 1700;
}
);
components = (
);
contours = (
{
points = (
{
segmentType = line;
smooth = 0;
x = 447;
y = 729;
},
{
segmentType = line;
smooth = 1;
x = 748;
y = 729;
},
{
smooth = 0;
x = 785;
y = 729;
},
{
smooth = 0;
x = 801;
y = 708;
},
{
segmentType = curve;
smooth = 1;
x = 812;
y = 674;
},
{
segmentType = line;
smooth = 0;
x = 853;
y = 545;
},
{
segmentType = line;
smooth = 0;
x = 941;
y = 545;
},
{
segmentType = line;
smooth = 0;
x = 941;
y = 1017;
},
{
segmentType = line;
smooth = 0;
x = 853;
y = 1017;
},
{
segmentType = line;
smooth = 1;
x = 812;
y = 890;
},
{
smooth = 0;
x = 801;
y = 856;
},
{
smooth = 0;
x = 785;
y = 835;
},
{
segmentType = curve;
smooth = 1;
x = 748;
y = 835;
},
{
segmentType = line;
smooth = 0;
x = 447;
y = 835;
},
{
segmentType = line;
smooth = 0;
x = 447;
y = 1464;
},
{
segmentType = line;
smooth = 1;
x = 724;
y = 1464;
},
{
smooth = 0;
x = 821;
y = 1464;
},
{
smooth = 0;
x = 906;
y = 1458;
},
{
segmentType = curve;
smooth = 1;
x = 957;
y = 1440;
},
{
smooth = 0;
x = 988;
y = 1429;
},
{
smooth = 0;
x = 1003;
y = 1411;
},
{
segmentType = curve;
smooth = 1;
x = 1014;
y = 1383;
},
{
segmentType = line;
smooth = 0;
x = 1087;
y = 1192;
},
{
segmentType = line;
smooth = 0;
x = 1176;
y = 1192;
},
{
smooth = 0;
x = 1181;
y = 1325;
},
{
smooth = 0;
x = 1173;
y = 1439;
},
{
segmentType = curve;
smooth = 0;
x = 1150;
y = 1562;
},
{
segmentType = line;
smooth = 0;
x = 62;
y = 1562;
},
{
segmentType = line;
smooth = 0;
x = 62;
y = 1474;
},
{
segmentType = line;
smooth = 1;
x = 223;
y = 1442;
},
{
smooth = 0;
x = 258;
y = 1435;
},
{
smooth = 0;
x = 277;
y = 1412;
},
{
segmentType = curve;
smooth = 1;
x = 277;
y = 1377;
},
{
segmentType = line;
smooth = 1;
x = 277;
y = 182;
},
{
smooth = 0;
x = 277;
y = 146;
},
{
smooth = 0;
x = 259;
y = 124;
},
{
segmentType = curve;
smooth = 1;
x = 223;
y = 117;
},
{
segmentType = line;
smooth = 0;
x = 62;
y = 88;
},
{
segmentType = line;
smooth = 0;
x = 62;
y = 0;
},
{
segmentType = line;
smooth = 0;
x = 751;
y = 0;
},
{
segmentType = line;
smooth = 0;
x = 751;
y = 88;
},
{
segmentType = line;
smooth = 1;
x = 498;
y = 121;
},
{
smooth = 0;
x = 468;
y = 125;
},
{
smooth = 0;
x = 447;
y = 149;
},
{
segmentType = curve;
smooth = 1;
x = 447;
y = 179;
}
);
}
);
lib = {
};
name = F;
unicodes = (
);
width = 1264;
};
background = {
anchors = (
{
name = btm;
x = 644;
y = -170;
},
{
name = top;
x = 644;
y = 1700;
}
);
components = (
);
contours = (
{
points = (
{
segmentType = line;
smooth = 0;
x = 111;
y = 0;
},
{
segmentType = line;
smooth = 0;
x = 767;
y = 0;
},
{
segmentType = line;
smooth = 0;
x = 767;
y = 88;
},
{
segmentType = line;
smooth = 0;
x = 406;
y = 110;
},
{
segmentType = line;
smooth = 0;
x = 447;
y = 66;
},
{
segmentType = line;
smooth = 0;
x = 447;
y = 722;
},
{
segmentType = line;
smooth = 0;
x = 856;
y = 714;
},
{
segmentType = line;
smooth = 0;
x = 890;
y = 541;
},
{
segmentType = line;
smooth = 0;
x = 985;
y = 541;
},
{
segmentType = line;
smooth = 0;
x = 985;
y = 994;
},
{
segmentType = line;
smooth = 0;
x = 890;
y = 994;
},
{
segmentType = line;
smooth = 0;
x = 856;
y = 827;
},
{
segmentType = line;
smooth = 0;
x = 447;
y = 821;
},
{
segmentType = line;
smooth = 0;
x = 447;
y = 1427;
},
{
segmentType = line;
smooth = 0;
x = 1024;
y = 1418;
},
{
segmentType = line;
smooth = 0;
x = 1080;
y = 1185;
},
{
segmentType = line;
smooth = 0;
x = 1192;
y = 1185;
},
{
segmentType = line;
smooth = 0;
x = 1171;
y = 1522;
},
{
segmentType = line;
smooth = 0;
x = 99;
y = 1522;
},
{
segmentType = line;
smooth = 0;
x = 99;
y = 1434;
},
{
segmentType = line;
smooth = 0;
x = 321;
y = 1406;
},
{
segmentType = line;
smooth = 0;
x = 278;
y = 1450;
},
{
segmentType = line;
smooth = 0;
x = 278;
y = 66;
},
{
segmentType = line;
smooth = 0;
x = 322;
y = 111;
},
{
segmentType = line;
smooth = 0;
x = 111;
y = 88;
}
);
}
);
lib = {
};
name = F;
unicodes = (
);
width = 1236;
};
};
};
},
{
glyphname = G;
layers = (
{
anchors = (
{
name = bottom;
position = "{260, 0}";
},
{
name = top;
position = "{321, 568}";
}
);
background = {
anchors = (
{
name = btm;
position = "{261, 0}";
},
{
name = top;
position = "{345, 568}";
}
);
paths = (
{
closed = 1;
nodes = (
"449 79 CURVE",
"445 114 LINE",
"405 55 OFFCURVE",
"344 37 OFFCURVE",
"287 37 CURVE SMOOTH",
"165 37 OFFCURVE",
"117 122 OFFCURVE",
"117 233 CURVE SMOOTH",
"117 416 OFFCURVE",
"211 541 OFFCURVE",
"346 541 CURVE SMOOTH",
"390 541 OFFCURVE",
"426 531 OFFCURVE",
"447 518 CURVE SMOOTH",
"458 512 OFFCURVE",
"461 502 OFFCURVE",
"462 490 CURVE SMOOTH",
"469 420 LINE",
"505 420 LINE",
"516 459 OFFCURVE",
"525 499 OFFCURVE",
"528 540 CURVE",
"483 567 OFFCURVE",
"425 576 OFFCURVE",
"368 576 CURVE SMOOTH",
"176 576 OFFCURVE",
"46 434 OFFCURVE",
"46 222 CURVE SMOOTH",
"46 85 OFFCURVE",
"118 -8 OFFCURVE",
"262 -8 CURVE SMOOTH",
"338 -8 OFFCURVE",
"400 18 OFFCURVE"
);
},
{
closed = 1;
nodes = (
"466 4 LINE",
"495 239 LINE",
"542 246 LINE",
"547 285 LINE",
"328 285 LINE",
"323 246 LINE",
"432 239 LINE",
"408 47 LINE",
"412 47 LINE",
"448 -3 LINE"
);
}
);
};
layerId = "DAAEA780-4710-4479-B303-5C05B40621B2";
paths = (
{
closed = 1;
nodes = (
"309 -10 OFFCURVE",
"369 19 OFFCURVE",
"410 85 CURVE",
"402 120 LINE",
"368 57 OFFCURVE",
"308 34 OFFCURVE",
"259 34 CURVE SMOOTH",
"172 34 OFFCURVE",
"118 103 OFFCURVE",
"118 230 CURVE SMOOTH",
"118 405 OFFCURVE",
"198 542 OFFCURVE",
"329 542 CURVE SMOOTH",
"360 542 OFFCURVE",
"383 534 OFFCURVE",
"397 525 CURVE SMOOTH",
"414 514 OFFCURVE",
"417 502 OFFCURVE",
"418 486 CURVE SMOOTH",
"423 421 LINE",
"459 421 LINE",
"469 457 OFFCURVE",
"480 503 OFFCURVE",
"484 550 CURVE",
"447 567 OFFCURVE",
"395 579 OFFCURVE",
"342 579 CURVE SMOOTH",
"149 579 OFFCURVE",
"46 397 OFFCURVE",
"46 221 CURVE SMOOTH",
"46 69 OFFCURVE",
"124 -10 OFFCURVE",
"237 -10 CURVE SMOOTH"
);
},
{
closed = 1;
nodes = (
"431 0 LINE",
"457 219 LINE SMOOTH",
"459 236 OFFCURVE",
"465 242 OFFCURVE",
"480 246 CURVE SMOOTH",
"506 251 LINE",
"510 285 LINE",
"302 285 LINE",
"298 249 LINE",
"398 240 LINE",
"376 56 LINE",
"380 56 LINE",
"413 -7 LINE"
);
}
);
width = 528;
},
{
anchors = (
{
name = bottom;
position = "{274, 0}";
},
{
name = top;
position = "{338, 573}";
}
);
background = {
anchors = (
{
name = btm;
position = "{269, 0}";
},
{
name = top;
position = "{371, 568}";
}
);
paths = (
{
closed = 1;
nodes = (
"429 78 CURVE",
"412 118 LINE",
"385 83 OFFCURVE",
"345 59 OFFCURVE",
"293 59 CURVE SMOOTH",
"223 59 OFFCURVE",
"197 105 OFFCURVE",
"197 190 CURVE SMOOTH",
"197 388 OFFCURVE",
"262 524 OFFCURVE",
"358 524 CURVE SMOOTH",
"384 524 OFFCURVE",
"403 516 OFFCURVE",
"415 506 CURVE SMOOTH",
"423 499 OFFCURVE",
"428 490 OFFCURVE",
"429 478 CURVE SMOOTH",
"439 395 LINE",
"523 395 LINE",
"536 446 OFFCURVE",
"546 496 OFFCURVE",
"548 545 CURVE",
"502 565 OFFCURVE",
"435 579 OFFCURVE",
"369 579 CURVE SMOOTH",
"160 579 OFFCURVE",
"39 445 OFFCURVE",
"39 213 CURVE SMOOTH",
"39 71 OFFCURVE",
"108 -12 OFFCURVE",
"241 -12 CURVE SMOOTH",
"331 -12 OFFCURVE",
"395 29 OFFCURVE"
);
},
{
closed = 1;
nodes = (
"495 9 LINE",
"523 232 LINE",
"560 238 LINE",
"567 294 LINE",
"330 294 LINE",
"323 238 LINE",
"391 230 LINE",
"369 51 LINE",
"399 51 LINE",
"467 -6 LINE"
);
}
);
};
layerId = "925CB40E-795E-477B-BAE7-1EE7D58841B5";
paths = (
{
closed = 1;
nodes = (
"316 -12 OFFCURVE",
"370 34 OFFCURVE",
"407 85 CURVE",
"372 114 LINE",
"351 83 OFFCURVE",
"317 61 OFFCURVE",
"280 61 CURVE SMOOTH",
"220 61 OFFCURVE",
"186 116 OFFCURVE",
"186 220 CURVE SMOOTH",
"186 383 OFFCURVE",
"246 531 OFFCURVE",
"344 531 CURVE SMOOTH",
"365 531 OFFCURVE",
"385 523 OFFCURVE",
"397 512 CURVE SMOOTH",
"412 499 OFFCURVE",
"412 491 OFFCURVE",
"414 466 CURVE SMOOTH",
"418 401 LINE",
"498 401 LINE",
"512 449 OFFCURVE",
"522 506 OFFCURVE",
"526 556 CURVE",
"480 575 OFFCURVE",
"416 586 OFFCURVE",
"362 586 CURVE SMOOTH",
"151 586 OFFCURVE",
"40 410 OFFCURVE",
"40 219 CURVE SMOOTH",
"40 56 OFFCURVE",
"123 -12 OFFCURVE",
"229 -12 CURVE SMOOTH"
);
},
{
closed = 1;
nodes = (
"469 9 LINE",
"493 200 LINE SMOOTH",
"497 229 OFFCURVE",
"501 233 OFFCURVE",
"519 237 CURVE SMOOTH",
"533 240 LINE",
"540 294 LINE",
"304 294 LINE",
"297 238 LINE",
"365 230 LINE",
"345 62 LINE",
"373 62 LINE",
"441 -7 LINE"
);
}
);
width = 555;
}
);
leftKerningGroup = O;
leftMetricsKey = O;
rightKerningGroup = G;
unicode = 0047;
userData = {
com.typemytype.robofont.layerData = {
background = {
anchors = (
{
name = btm;
x = 784;
y = -170;
},
{
name = top;
x = 820;
y = 1700;
}
);
components = (
);
contours = (
{
points = (
{
segmentType = curve;
smooth = 1;
x = 803;
y = -23;
},
{
smooth = 0;
x = 1077;
y = -23;
},
{
smooth = 0;
x = 1237;
y = 77;
},
{
segmentType = curve;
smooth = 0;
x = 1345;
y = 82;
},
{
segmentType = line;
smooth = 0;
x = 1345;
y = 669;
},
{
segmentType = line;
smooth = 0;
x = 1292;
y = 627;
},
{
segmentType = line;
smooth = 0;
x = 1471;
y = 657;
},
{
segmentType = line;
smooth = 0;
x = 1471;
y = 765;
},
{
segmentType = line;
smooth = 0;
x = 889;
y = 765;
},
{
segmentType = line;
smooth = 0;
x = 889;
y = 657;
},
{
segmentType = line;
smooth = 0;
x = 1233;
y = 632;
},
{
segmentType = line;
smooth = 0;
x = 1173;
y = 671;
},
{
segmentType = line;
smooth = 0;
x = 1173;
y = 170;
},
{
smooth = 0;
x = 1100;
y = 113;
},
{
smooth = 0;
x = 961;
y = 76;
},
{
segmentType = curve;
smooth = 1;
x = 816;
y = 76;
},
{
smooth = 0;
x = 458;
y = 76;
},
{
smooth = 0;
x = 291;
y = 428;
},
{
segmentType = curve;
smooth = 1;
x = 291;
y = 789;
},
{
smooth = 0;
x = 291;
y = 1220;
},
{
smooth = 0;
x = 531;
y = 1440;
},
{
segmentType = curve;
smooth = 1;
x = 847;
y = 1440;
},
{
smooth = 0;
x = 1040;
y = 1440;
},
{
smooth = 0;
x = 1130;
y = 1394;
},
{
segmentType = curve;
smooth = 0;
x = 1161;
y = 1371;
},
{
segmentType = line;
smooth = 0;
x = 1206;
y = 1134;
},
{
segmentType = line;
smooth = 0;
x = 1313;
y = 1134;
},
{
segmentType = line;
smooth = 0;
x = 1329;
y = 1474;
},
{
smooth = 0;
x = 1259;
y = 1491;
},
{
smooth = 0;
x = 1077;
y = 1538;
},
{
segmentType = curve;
smooth = 1;
x = 866;
y = 1538;
},
{
smooth = 0;
x = 439;
y = 1538;
},
{
smooth = 0;
x = 99;
y = 1250;
},
{
segmentType = curve;
smooth = 1;
x = 99;
y = 736;
},
{
smooth = 0;
x = 99;
y = 304;
},
{
smooth = 0;
x = 359;
y = -23;
}
);
}
);
lib = {
};
name = G;
unicodes = (
);
width = 1552;
};
};
};
},
{
glyphname = H;
layers = (
{
anchors = (
{
name = bottom;
position = "{284, 0}";
},
{
name = top;
position = "{354, 568}";
}
);
background = {
anchors = (
{
name = btm;
position = "{278, 0}";
},
{
name = top;
position = "{356, 568}";
}
);
paths = (
{
closed = 1;
nodes = (
"640 568 LINE",
"427 568 LINE",
"423 536 LINE",
"475 524 LINE SMOOTH",
"488 521 OFFCURVE",
"494 514 OFFCURVE",
"492 501 CURVE SMOOTH",
"468 311 LINE",
"177 311 LINE",
"201 501 LINE SMOOTH",
"203 514 OFFCURVE",
"210 522 OFFCURVE",
"222 524 CURVE SMOOTH",
"281 536 LINE",
"285 568 LINE",
"69 568 LINE",
"65 536 LINE",
"122 524 LINE SMOOTH",
"134 521 OFFCURVE",
"141 513 OFFCURVE",
"139 500 CURVE SMOOTH",
"85 67 LINE SMOOTH",
"83 53 OFFCURVE",
"77 46 OFFCURVE",
"63 43 CURVE SMOOTH",
"3 32 LINE",
"-1 0 LINE",
"215 0 LINE",
"219 32 LINE",
"164 43 LINE SMOOTH",
"152 45 OFFCURVE",
"145 53 OFFCURVE",
"147 66 CURVE SMOOTH",
"173 272 LINE",
"464 272 LINE",
"438 67 LINE SMOOTH",
"436 53 OFFCURVE",
"429 46 OFFCURVE",
"415 43 CURVE SMOOTH",
"361 32 LINE",
"357 0 LINE",
"570 0 LINE",
"574 32 LINE",
"517 43 LINE SMOOTH",
"504 45 OFFCURVE",
"498 53 OFFCURVE",
"500 67 CURVE SMOOTH",
"554 500 LINE SMOOTH",
"556 513 OFFCURVE",
"563 521 OFFCURVE",
"576 524 CURVE SMOOTH",
"636 536 LINE"
);
}
);
};
layerId = "DAAEA780-4710-4479-B303-5C05B40621B2";
paths = (
{
closed = 1;
nodes = (
"223 0 LINE",
"227 32 LINE",
"176 42 LINE SMOOTH",
"162 45 OFFCURVE",
"157 51 OFFCURVE",
"159 68 CURVE SMOOTH",
"185 271 LINE",
"450 271 LINE",
"426 75 LINE SMOOTH",
"423 49 OFFCURVE",
"414 45 OFFCURVE",
"399 42 CURVE SMOOTH",
"349 32 LINE",
"345 0 LINE",
"552 0 LINE",
"556 32 LINE",
"504 42 LINE SMOOTH",
"490 45 OFFCURVE",
"485 51 OFFCURVE",
"487 68 CURVE SMOOTH",
"540 493 LINE SMOOTH",
"543 515 OFFCURVE",
"547 522 OFFCURVE",
"567 526 CURVE SMOOTH",
"618 536 LINE",
"622 568 LINE",
"415 568 LINE",
"411 536 LINE",
"462 526 LINE SMOOTH",
"476 523 OFFCURVE",
"481 517 OFFCURVE",
"479 500 CURVE SMOOTH",
"455 311 LINE",
"189 311 LINE",
"212 493 LINE SMOOTH",
"215 515 OFFCURVE",
"218 522 OFFCURVE",
"239 526 CURVE SMOOTH",
"289 536 LINE",
"293 568 LINE",
"86 568 LINE",
"82 536 LINE",
"134 526 LINE SMOOTH",
"148 523 OFFCURVE",
"153 517 OFFCURVE",
"151 500 CURVE SMOOTH",
"98 75 LINE SMOOTH",
"95 53 OFFCURVE",
"91 46 OFFCURVE",
"71 42 CURVE SMOOTH",
"20 32 LINE",
"16 0 LINE"
);
}
);
width = 619;
},
{
anchors = (
{
name = bottom;
position = "{304, 0}";
},
{
name = top;
position = "{376, 573}";
}
);
background = {
anchors = (
{
name = btm;
position = "{298, 0}";
},
{
name = top;
position = "{395, 568}";
}
);
paths = (
{
closed = 1;
nodes = (
"685 568 LINE",
"415 568 LINE",
"408 513 LINE",
"449 502 LINE SMOOTH",
"458 500 OFFCURVE",
"463 492 OFFCURVE",
"462 481 CURVE SMOOTH",
"443 322 LINE",
"244 322 LINE",
"263 481 LINE SMOOTH",
"264 493 OFFCURVE",
"271 499 OFFCURVE",
"282 502 CURVE SMOOTH",
"329 513 LINE",
"336 568 LINE",
"62 568 LINE",
"55 513 LINE",
"111 502 LINE SMOOTH",
"122 500 OFFCURVE",
"126 493 OFFCURVE",
"125 481 CURVE SMOOTH",
"76 83 LINE SMOOTH",
"75 72 OFFCURVE",
"68 65 OFFCURVE",
"57 63 CURVE SMOOTH",
"-1 52 LINE",
"-8 0 LINE",
"266 0 LINE",
"273 52 LINE",
"228 63 LINE SMOOTH",
"217 66 OFFCURVE",
"213 72 OFFCURVE",
"214 83 CURVE SMOOTH",
"235 255 LINE",
"434 255 LINE",
"413 83 LINE SMOOTH",
"412 72 OFFCURVE",
"405 66 OFFCURVE",
"394 63 CURVE SMOOTH",
"353 52 LINE",
"346 0 LINE",
"615 0 LINE",
"622 52 LINE",
"566 63 LINE SMOOTH",
"555 65 OFFCURVE",
"550 72 OFFCURVE",
"551 83 CURVE SMOOTH",
"600 481 LINE SMOOTH",
"601 492 OFFCURVE",
"609 500 OFFCURVE",
"619 502 CURVE SMOOTH",
"678 513 LINE"
);
}
);
};
layerId = "925CB40E-795E-477B-BAE7-1EE7D58841B5";
paths = (
{
closed = 1;
nodes = (
"277 0 LINE",
"283 52 LINE",
"247 59 LINE SMOOTH",
"231 62 OFFCURVE",
"225 68 OFFCURVE",
"227 85 CURVE SMOOTH",
"248 257 LINE",
"423 257 LINE",
"402 85 LINE SMOOTH",
"400 68 OFFCURVE",
"393 62 OFFCURVE",
"376 59 CURVE SMOOTH",
"341 52 LINE",
"335 0 LINE",
"597 0 LINE",
"603 52 LINE",
"559 61 LINE SMOOTH",
"543 64 OFFCURVE",
"536 68 OFFCURVE",
"538 85 CURVE SMOOTH",
"588 488 LINE SMOOTH",
"590 504 OFFCURVE",
"598 509 OFFCURVE",
"612 512 CURVE SMOOTH",
"659 521 LINE",
"665 573 LINE",
"403 573 LINE",
"397 521 LINE",
"432 514 LINE SMOOTH",
"450 510 OFFCURVE",
"454 504 OFFCURVE",
"452 488 CURVE SMOOTH",
"432 324 LINE",
"256 324 LINE",
"277 488 LINE SMOOTH",
"280 509 OFFCURVE",
"289 511 OFFCURVE",
"303 514 CURVE SMOOTH",
"339 521 LINE",
"345 573 LINE",
"82 573 LINE",
"76 521 LINE",
"120 512 LINE SMOOTH",
"136 509 OFFCURVE",
"143 505 OFFCURVE",
"141 488 CURVE SMOOTH",
"91 85 LINE SMOOTH",
"89 69 OFFCURVE",
"81 64 OFFCURVE",
"67 61 CURVE SMOOTH",
"20 52 LINE",
"14 0 LINE"
);
}
);
width = 660;
}
);
leftKerningGroup = H;
rightKerningGroup = H;
rightMetricsKey = "=|";
unicode = 0048;
userData = {
com.schriftgestaltung.Glyphs.rightMetricsKey = "=|";
com.typemytype.robofont.layerData = {
background = {
anchors = (
{
name = btm;
x = 890;
y = -170;
},
{
name = top;
x = 895;
y = 1700;
}
);
components = (
);
contours = (
{
points = (
{
segmentType = line;
smooth = 0;
x = 161;
y = 0;
},
{
segmentType = line;
smooth = 0;
x = 683;
y = 0;
},
{
segmentType = line;
smooth = 0;
x = 683;
y = 88;
},
{
segmentType = line;
smooth = 0;
x = 460;
y = 111;
},
{
segmentType = line;
smooth = 0;
x = 504;
y = 86;
},
{
segmentType = line;
smooth = 0;
x = 504;
y = 728;
},
{
segmentType = line;
smooth = 0;
x = 1285;
y = 728;
},
{
segmentType = line;
smooth = 0;
x = 1285;
y = 76;
},
{
segmentType = line;
smooth = 0;
x = 1341;
y = 113;
},
{
segmentType = line;
smooth = 0;
x = 1114;
y = 88;
},
{
segmentType = line;
smooth = 0;
x = 1114;
y = 0;
},
{
segmentType = line;
smooth = 0;
x = 1623;
y = 0;
},
{
segmentType = line;
smooth = 0;
x = 1623;
y = 88;
},
{
segmentType = line;
smooth = 0;
x = 1400;
y = 113;
},
{
segmentType = line;
smooth = 0;
x = 1455;
y = 76;
},
{
segmentType = line;
smooth = 0;
x = 1455;
y = 1449;
},
{
segmentType = line;
smooth = 0;
x = 1421;
y = 1407;
},
{
segmentType = line;
smooth = 0;
x = 1623;
y = 1434;
},
{
segmentType = line;
smooth = 0;
x = 1623;
y = 1522;
},
{
segmentType = line;
smooth = 0;
x = 1115;
y = 1522;
},
{
segmentType = line;
smooth = 0;
x = 1115;
y = 1434;
},
{
segmentType = line;
smooth = 0;
x = 1320;
y = 1407;
},
{
segmentType = line;
smooth = 0;
x = 1285;
y = 1448;
},
{
segmentType = line;
smooth = 0;
x = 1285;
y = 836;
},
{
segmentType = line;
smooth = 0;
x = 504;
y = 836;
},
{
segmentType = line;
smooth = 0;
x = 504;
y = 1446;
},
{
segmentType = line;
smooth = 0;
x = 473;
y = 1408;
},
{
segmentType = line;
smooth = 0;
x = 682;
y = 1434;
},
{
segmentType = line;
smooth = 0;
x = 682;
y = 1522;
},
{
segmentType = line;
smooth = 0;
x = 167;
y = 1522;
},
{
segmentType = line;
smooth = 0;
x = 167;
y = 1434;
},
{
segmentType = line;
smooth = 0;
x = 369;
y = 1407;
},
{
segmentType = line;
smooth = 0;
x = 335;
y = 1444;
},
{
segmentType = line;
smooth = 0;
x = 335;
y = 92;
},
{
segmentType = line;
smooth = 0;
x = 384;
y = 113;
},
{
segmentType = line;
smooth = 0;
x = 161;
y = 88;
}
);
}
);
lib = {
};
name = H;
unicodes = (
);
width = 1762;
};
};
};
},
{
glyphname = I;
layers = (
{
anchors = (
{
name = bottom;
position = "{122, 0}";
},
{
name = ogonek;
position = "{187, 0}";
},
{
name = top;
position = "{193, 568}";
}
);
background = {
anchors = (
{
name = btm;
position = "{124, 0}";
},
{
name = top;
position = "{194, 568}";
}
);
paths = (
{
closed = 1;
nodes = (
"154 0 LINE",
"224 568 LINE",
"162 568 LINE",
"92 0 LINE"
);
}
);
};
layerId = "DAAEA780-4710-4479-B303-5C05B40621B2";
paths = (
{
closed = 1;
nodes = (
"227 0 LINE",
"231 32 LINE",
"179 42 LINE SMOOTH",
"165 45 OFFCURVE",
"160 51 OFFCURVE",
"162 68 CURVE SMOOTH",
"215 493 LINE SMOOTH",
"218 515 OFFCURVE",
"222 522 OFFCURVE",
"242 526 CURVE SMOOTH",
"293 536 LINE",
"297 568 LINE",
"89 568 LINE",
"85 536 LINE",
"137 526 LINE SMOOTH",
"151 523 OFFCURVE",
"156 517 OFFCURVE",
"154 500 CURVE SMOOTH",
"101 75 LINE SMOOTH",
"98 53 OFFCURVE",
"94 46 OFFCURVE",
"74 42 CURVE SMOOTH",
"23 32 LINE",
"19 0 LINE"
);
}
);
width = 297;
},
{
anchors = (
{
name = bottom;
position = "{150, 0}";
},
{
name = ogonek;
position = "{233, 0}";
},
{
name = top;
position = "{221, 573}";
}
);
background = {
anchors = (
{
name = btm;
position = "{186, 0}";
},
{
name = top;
position = "{247, 568}";
}
);
paths = (
{
closed = 1;
nodes = (
"219 0 LINE",
"289 567 LINE",
"153 568 LINE",
"83 0 LINE"
);
}
);
};
layerId = "925CB40E-795E-477B-BAE7-1EE7D58841B5";
paths = (
{
closed = 1;
nodes = (
"289 0 LINE",
"295 52 LINE",
"251 61 LINE SMOOTH",
"235 64 OFFCURVE",
"228 68 OFFCURVE",
"230 85 CURVE SMOOTH",
"280 488 LINE SMOOTH",
"282 504 OFFCURVE",
"290 509 OFFCURVE",
"304 512 CURVE SMOOTH",
"351 521 LINE",
"357 573 LINE",
"85 573 LINE",
"79 521 LINE",
"123 512 LINE SMOOTH",
"139 509 OFFCURVE",
"146 505 OFFCURVE",
"144 488 CURVE SMOOTH",
"94 85 LINE SMOOTH",
"92 69 OFFCURVE",
"84 64 OFFCURVE",
"70 61 CURVE SMOOTH",
"23 52 LINE",
"17 0 LINE"
);
}
);
width = 355;
}
);
leftKerningGroup = H;
leftMetricsKey = "=H+3";
rightKerningGroup = H;
rightMetricsKey = "=H+3";
unicode = 0049;
userData = {
com.schriftgestaltung.Glyphs.rightMetricsKey = "=|";
com.typemytype.robofont.layerData = {
background = {
anchors = (
{
name = btm;
x = 423;
y = -170;
},
{
name = top;
x = 423;
y = 1700;
}
);
components = (
);
contours = (
{
points = (
{
segmentType = line;
smooth = 0;
x = 135;
y = 0;
},
{
segmentType = line;
smooth = 0;
x = 704;
y = 0;
},
{
segmentType = line;
smooth = 0;
x = 704;
y = 87;
},
{
segmentType = line;
smooth = 0;
x = 468;
y = 111;
},
{
segmentType = line;
smooth = 0;
x = 505;
y = 59;
},
{
segmentType = line;
smooth = 0;
x = 505;
y = 1452;
},
{
segmentType = line;
smooth = 0;
x = 474;
y = 1409;
},
{
segmentType = line;
smooth = 0;
x = 704;
y = 1434;
},
{
segmentType = line;
smooth = 0;
x = 704;
y = 1522;
},
{
segmentType = line;
smooth = 0;
x = 135;
y = 1522;
},
{
segmentType = line;
smooth = 0;
x = 135;
y = 1434;
},
{
segmentType = line;
smooth = 0;
x = 374;
y = 1407;
},
{
segmentType = line;
smooth = 0;
x = 335;
y = 1452;
},
{
segmentType = line;
smooth = 0;
x = 335;
y = 59;
},
{
segmentType = line;
smooth = 0;
x = 371;
y = 111;
},
{
segmentType = line;
smooth = 0;
x = 135;
y = 88;
}
);
}
);
lib = {
};
name = I;
unicodes = (
);
width = 792;
};
};
};
},
{
glyphname = J;
layers = (
{
anchors = (
{
name = top;
position = "{188, 568}";
}
);
background = {
anchors = (
{
name = btm;
position = "{84, 0}";
},
{
name = top;
position = "{188, 568}";
}
);
paths = (
{
closed = 1;
nodes = (
"240 524 CURVE SMOOTH",
"292 536 LINE",
"296 568 LINE",
"85 568 LINE",
"81 536 LINE",
"139 524 LINE SMOOTH",
"150 522 OFFCURVE",
"156 513 OFFCURVE",
"155 501 CURVE SMOOTH",
"112 149 LINE SMOOTH",
"95 13 OFFCURVE",
"68 -32 OFFCURVE",
"-30 -102 CURVE",
"-16 -132 LINE",
"134 -60 OFFCURVE",
"154 -5 OFFCURVE",
"175 163 CURVE SMOOTH",
"217 501 LINE SMOOTH",
"219 514 OFFCURVE",
"226 521 OFFCURVE"
);
}
);
};
layerId = "DAAEA780-4710-4479-B303-5C05B40621B2";
paths = (
{
closed = 1;
nodes = (
"91 568 LINE",
"87 536 LINE",
"139 526 LINE SMOOTH",
"153 523 OFFCURVE",
"158 517 OFFCURVE",
"156 500 CURVE SMOOTH",
"112 149 LINE SMOOTH",
"97 29 OFFCURVE",
"74 -39 OFFCURVE",
"-30 -102 CURVE",
"-16 -132 LINE",
"140 -69 OFFCURVE",
"157 6 OFFCURVE",
"176 163 CURVE SMOOTH",
"217 493 LINE SMOOTH",
"220 515 OFFCURVE",
"224 522 OFFCURVE",
"242 526 CURVE SMOOTH",
"288 536 LINE",
"292 568 LINE"
);
}
);
width = 287;
},
{
anchors = (
{
name = top;
position = "{214, 573}";
}
);
background = {
anchors = (
{
name = btm;
position = "{109, 0}";
},
{
name = top;
position = "{213, 568}";
}
);
paths = (
{
closed = 1;
nodes = (
"298 502 CURVE SMOOTH",
"349 513 LINE",
"355 568 LINE",
"78 568 LINE",
"72 513 LINE",
"126 502 LINE SMOOTH",
"137 500 OFFCURVE",
"142 493 OFFCURVE",
"141 481 CURVE SMOOTH",
"95 111 LINE SMOOTH",
"80 -9 OFFCURVE",
"61 -48 OFFCURVE",
"-43 -99 CURVE",
"-26 -154 LINE",
"165 -106 OFFCURVE",
"214 -41 OFFCURVE",
"235 128 CURVE SMOOTH",
"279 481 LINE SMOOTH",
"280 493 OFFCURVE",
"287 500 OFFCURVE"
);
}
);
};
layerId = "925CB40E-795E-477B-BAE7-1EE7D58841B5";
paths = (
{
closed = 1;
nodes = (
"83 573 LINE",
"77 521 LINE",
"121 512 LINE SMOOTH",
"137 509 OFFCURVE",
"144 505 OFFCURVE",
"142 488 CURVE SMOOTH",
"95 112 LINE SMOOTH",
"81 0 OFFCURVE",
"59 -54 OFFCURVE",
"-42 -101 CURVE",
"-27 -154 LINE",
"192 -107 OFFCURVE",
"215 -12 OFFCURVE",
"233 129 CURVE SMOOTH",
"278 488 LINE SMOOTH",
"280 504 OFFCURVE",
"288 509 OFFCURVE",
"301 512 CURVE SMOOTH",
"344 521 LINE",
"350 573 LINE"
);
}
);
width = 338;
}
);
leftKerningGroup = J;
rightKerningGroup = J;
unicode = 004A;
userData = {
com.typemytype.robofont.layerData = {
background = {
anchors = (
{
name = btm;
x = 294;
y = -170;
},
{
name = top;
x = 390;
y = 1700;
}
);
components = (
);
contours = (
{
points = (
{
segmentType = line;
smooth = 0;
x = 42;
y = -354;
},
{
smooth = 0;
x = 219;
y = -321;
},
{
smooth = 0;
x = 413;
y = -192;
},
{
segmentType = curve;
smooth = 1;
x = 460;
y = 43;
},
{
smooth = 0;
x = 485;
y = 169;
},
{
smooth = 0;
x = 482;
y = 336;
},
{
segmentType = curve;
smooth = 1;
x = 482;
y = 563;
},
{
segmentType = line;
smooth = 0;
x = 482;
y = 1457;
},
{
segmentType = line;
smooth = 0;
x = 427;
y = 1404;
},
{
segmentType = line;
smooth = 0;
x = 677;
y = 1434;
},
{
segmentType = line;
smooth = 0;
x = 677;
y = 1522;
},
{
segmentType = line;
smooth = 0;
x = 107;
y = 1522;
},
{
segmentType = line;
smooth = 0;
x = 107;
y = 1434;
},
{
segmentType = line;
smooth = 0;
x = 369;
y = 1404;
},
{
segmentType = line;
smooth = 0;
x = 312;
y = 1457;
},
{
segmentType = line;
smooth = 0;
x = 312;
y = 518;
},
{
smooth = 0;
x = 312;
y = 212;
},
{
smooth = 0;
x = 307;
y = 99;
},
{
segmentType = curve;
smooth = 1;
x = 270;
y = -18;
},
{
smooth = 0;
x = 227;
y = -156;
},
{
smooth = 0;
x = 119;
y = -248;
},
{
segmentType = curve;
smooth = 0;
x = -3;
y = -281;
}
);
}
);
lib = {
};
name = J;
unicodes = (
);
width = 738;
};
};
};
},
{
glyphname = K;
layers = (
{
anchors = (
{
name = bottom;
position = "{272, 0}";
},
{
name = top;
position = "{335, 568}";
}
);
background = {
hints = (
{
origin = "{1, 0}";
scale = "{1.04, 1}";
type = Corner;
name = _corner.RightSerif;
},
{
origin = "{1, 1}";
type = Corner;
name = _corner.LeftSerif;
},
{
origin = "{1, 2}";
type = Corner;
name = _corner.RightSerif;
},
{
origin = "{1, 3}";
type = Corner;
name = _corner.LeftSerif;
}
);
paths = (
{
closed = 1;
nodes = (
"288 312 LINE",
"463 506 LINE SMOOTH",
"480 525 OFFCURVE",
"484 523 OFFCURVE",
"495 525 CURVE SMOOTH",
"546 536 LINE",
"550 568 LINE",
"367 568 LINE",
"363 536 LINE",
"427 522 LINE",
"162 226 LINE",
"155 165 LINE"
);
},
{
closed = 1;
nodes = (
"151 0 LINE",
"221 568 LINE",
"159 568 LINE",
"89 0 LINE"
);
},
{
closed = 1;
nodes = (
"444 -7 OFFCURVE",
"483 5 OFFCURVE",
"509 17 CURVE",
"503 50 LINE",
"483 47 OFFCURVE",
"467 45 OFFCURVE",
"453 45 CURVE SMOOTH",
"431 45 OFFCURVE",
"421 56 OFFCURVE",
"403 93 CURVE SMOOTH",
"379 142 OFFCURVE",
"339 257 OFFCURVE",
"314 367 CURVE",
"267 314 LINE",
"286 223 OFFCURVE",
"323 105 OFFCURVE",
"347 52 CURVE SMOOTH",
"367 9 OFFCURVE",
"386 -7 OFFCURVE",
"416 -7 CURVE SMOOTH"
);
}
);
};
layerId = "DAAEA780-4710-4479-B303-5C05B40621B2";
paths = (
{
closed = 1;
nodes = (
"288 312 LINE",
"468 506 LINE SMOOTH",
"485 525 OFFCURVE",
"490 523 OFFCURVE",
"500 525 CURVE SMOOTH",
"551 536 LINE",
"555 568 LINE",
"372 568 LINE",
"368 536 LINE",
"432 522 LINE",
"162 226 LINE",
"155 165 LINE"
);
},
{
closed = 1;
nodes = (
"227 0 LINE",
"231 32 LINE",
"177 42 LINE SMOOTH",
"163 45 OFFCURVE",
"157 51 OFFCURVE",
"159 68 CURVE SMOOTH",
"212 493 LINE SMOOTH",
"215 515 OFFCURVE",
"219 522 OFFCURVE",
"239 526 CURVE SMOOTH",
"290 536 LINE",
"294 568 LINE",
"86 568 LINE",
"82 536 LINE",
"134 526 LINE SMOOTH",
"148 523 OFFCURVE",
"153 517 OFFCURVE",
"151 500 CURVE SMOOTH",
"98 75 LINE SMOOTH",
"95 53 OFFCURVE",
"91 46 OFFCURVE",
"71 42 CURVE SMOOTH",
"20 32 LINE",
"16 0 LINE"
);
},
{
closed = 1;
nodes = (
"456 -7 OFFCURVE",
"498 7 OFFCURVE",
"518 19 CURVE",
"510 52 LINE",
"493 47 OFFCURVE",
"475 45 OFFCURVE",
"463 45 CURVE SMOOTH",
"439 45 OFFCURVE",
"427 59 OFFCURVE",
"410 94 CURVE SMOOTH",
"380 157 OFFCURVE",
"335 274 OFFCURVE",
"314 367 CURVE",
"267 314 LINE",
"287 223 OFFCURVE",
"332 106 OFFCURVE",
"355 53 CURVE SMOOTH",
"374 10 OFFCURVE",
"393 -7 OFFCURVE",
"425 -7 CURVE SMOOTH"
);
}
);
width = 555;
},
{
anchors = (
{
name = bottom;
position = "{307, 0}";
},
{
name = top;
position = "{372, 573}";
}
);
background = {
hints = (
{
origin = "{0, 0}";
type = Corner;
name = _corner.RightSerif;
},
{
origin = "{0, 1}";
type = Corner;
name = _corner.LeftSerif;
},
{
origin = "{0, 2}";
type = Corner;
name = _corner.RightSerif;
},
{
origin = "{0, 3}";
type = Corner;
name = _corner.LeftSerif;
}
);
paths = (
{
closed = 1;
nodes = (
"216 0 LINE",
"286 567 LINE",
"151 568 LINE",
"81 0 LINE"
);
},
{
closed = 1;
nodes = (
"480 -7 OFFCURVE",
"535 5 OFFCURVE",
"576 18 CURVE",
"569 73 LINE",
"556 72 OFFCURVE",
"546 71 OFFCURVE",
"538 71 CURVE SMOOTH",
"514 71 OFFCURVE",
"504 79 OFFCURVE",
"493 99 CURVE SMOOTH",
"465 150 OFFCURVE",
"424 286 OFFCURVE",
"406 397 CURVE",
"296 286 LINE",
"310 207 OFFCURVE",
"327 124 OFFCURVE",
"347 68 CURVE SMOOTH",
"367 11 OFFCURVE",
"391 -7 OFFCURVE",
"440 -7 CURVE SMOOTH"
);
},
{
closed = 1;
nodes = (
"339 289 LINE",
"522 492 LINE SMOOTH",
"528 499 OFFCURVE",
"538 501 OFFCURVE",
"545 502 CURVE SMOOTH",
"605 513 LINE",
"612 568 LINE",
"393 568 LINE",
"387 513 LINE",
"450 502 LINE",
"224 248 LINE",
"211 160 LINE"
);
}
);
};
layerId = "925CB40E-795E-477B-BAE7-1EE7D58841B5";
paths = (
{
closed = 1;
nodes = (
"339 293 LINE",
"533 497 LINE SMOOTH",
"540 504 OFFCURVE",
"549 506 OFFCURVE",
"556 507 CURVE SMOOTH",
"616 518 LINE",
"623 573 LINE",
"404 573 LINE",
"398 518 LINE",
"461 507 LINE",
"224 253 LINE",
"211 165 LINE"
);
},
{
closed = 1;
nodes = (
"286 0 LINE",
"292 52 LINE",
"248 61 LINE SMOOTH",
"232 64 OFFCURVE",
"225 68 OFFCURVE",
"226 85 CURVE SMOOTH",
"276 488 LINE SMOOTH",
"278 504 OFFCURVE",
"286 509 OFFCURVE",
"300 512 CURVE SMOOTH",
"347 521 LINE",
"353 573 LINE",
"82 573 LINE",
"76 521 LINE",
"120 512 LINE SMOOTH",
"136 509 OFFCURVE",
"143 505 OFFCURVE",
"141 488 CURVE SMOOTH",
"91 85 LINE SMOOTH",
"90 69 OFFCURVE",
"82 64 OFFCURVE",
"68 61 CURVE SMOOTH",
"21 52 LINE",
"15 0 LINE"
);
},
{
closed = 1;
nodes = (
"496 -7 OFFCURVE",
"551 7 OFFCURVE",
"593 25 CURVE",
"584 80 LINE",
"570 77 OFFCURVE",
"553 75 OFFCURVE",
"544 75 CURVE SMOOTH",
"526 75 OFFCURVE",
"516 82 OFFCURVE",
"500 115 CURVE SMOOTH",
"465 187 OFFCURVE",
"417 331 OFFCURVE",
"406 397 CURVE",
"298 285 LINE",
"320 193 OFFCURVE",
"358 91 OFFCURVE",
"365 69 CURVE SMOOTH",
"386 9 OFFCURVE",
"411 -7 OFFCURVE",
"455 -7 CURVE SMOOTH"
);
}
);
width = 620;
}
);
leftKerningGroup = H;
leftMetricsKey = H;
rightKerningGroup = K;
unicode = 004B;
userData = {
com.typemytype.robofont.layerData = {
background = {
anchors = (
{
name = btm;
x = 788;
y = -170;
},
{
name = top;
x = 760;
y = 1700;
}
);
components = (
);
contours = (
{
points = (
{
segmentType = line;
smooth = 0;
x = 109;
y = 0;
},
{
segmentType = line;
smooth = 0;
x = 646;
y = 0;
},
{
segmentType = line;
smooth = 0;
x = 646;
y = 85;
},
{
segmentType = line;
smooth = 0;
x = 419;
y = 111;
},
{
segmentType = line;
smooth = 0;
x = 453;
y = 68;
},
{
segmentType = line;
smooth = 0;
x = 453;
y = 630;
},
{
segmentType = line;
smooth = 0;
x = 398;
y = 458;
},
{
segmentType = line;
smooth = 0;
x = 706;
y = 808;
},
{
segmentType = line;
smooth = 0;
x = 750;
y = 858;
},
{
segmentType = line;
smooth = 0;
x = 1289;
y = 1460;
},
{
segmentType = line;
smooth = 0;
x = 1217;
y = 1408;
},
{
segmentType = line;
smooth = 0;
x = 1394;
y = 1434;
},
{
segmentType = line;
smooth = 0;
x = 1394;
y = 1522;
},
{
segmentType = line;
smooth = 0;
x = 920;
y = 1522;
},
{
segmentType = line;
smooth = 0;
x = 920;
y = 1434;
},
{
segmentType = line;
smooth = 0;
x = 1120;
y = 1409;
},
{
segmentType = line;
smooth = 0;
x = 1134;
y = 1460;
},
{
segmentType = line;
smooth = 0;
x = 453;
y = 666;
},
{
segmentType = line;
smooth = 0;
x = 453;
y = 1457;
},
{
segmentType = line;
smooth = 0;
x = 426;
y = 1408;
},
{
segmentType = line;
smooth = 0;
x = 629;
y = 1434;
},
{
segmentType = line;
smooth = 0;
x = 629;
y = 1522;
},
{
segmentType = line;
smooth = 0;
x = 113;
y = 1522;
},
{
segmentType = line;
smooth = 0;
x = 113;
y = 1434;
},
{
segmentType = line;
smooth = 0;
x = 304;
y = 1409;
},
{
segmentType = line;
smooth = 0;
x = 284;
y = 1457;
},
{
segmentType = line;
smooth = 0;
x = 284;
y = 74;
},
{
segmentType = line;
smooth = 0;
x = 314;
y = 111;
},
{
segmentType = line;
smooth = 0;
x = 109;
y = 88;
}
);
},
{
points = (
{
segmentType = line;
smooth = 0;
x = 1460;
y = 0;
},
{
segmentType = line;
smooth = 0;
x = 1460;
y = 85;
},
{
segmentType = line;
smooth = 0;
x = 1364;
y = 108;
},
{
smooth = 0;
x = 1277;
y = 119;
},
{
smooth = 0;
x = 967;
y = 733;
},
{
segmentType = curve;
smooth = 0;
x = 761;
y = 897;
},
{
segmentType = line;
smooth = 0;
x = 702;
y = 856;
},
{
segmentType = line;
smooth = 0;
x = 647;
y = 799;
},
{
smooth = 0;
x = 842;
y = 636;
},
{
smooth = 0;
x = 1103;
y = 0;
},
{
segmentType = curve;
smooth = 0;
x = 1215;
y = 0;
}
);
}
);
lib = {
};
name = K;
unicodes = (
);
width = 1519;
};
};
};
},
{
glyphname = L;
layers = (
{
anchors = (
{
name = bottom;
position = "{232, 0}";
},
{
name = periodcentred;
position = "{384, 306}";
},
{
name = top;
position = "{198, 568}";
},
{
name = topright;
position = "{268, 333}";
}
);
background = {
anchors = (
{
name = btm;
position = "{239, 0}";
},
{
name = top;
position = "{216, 568}";
},
{
name = topright;
position = "{274, 333}";
}
);
paths = (
{
closed = 1;
nodes = (
"383 69 LINE SMOOTH",
"378 58 OFFCURVE",
"371 52 OFFCURVE",
"359 48 CURVE SMOOTH",
"339 41 OFFCURVE",
"309 39 OFFCURVE",
"273 39 CURVE SMOOTH",
"156 39 LINE",
"213 501 LINE SMOOTH",
"215 514 OFFCURVE",
"222 522 OFFCURVE",
"235 524 CURVE SMOOTH",
"313 536 LINE",
"317 568 LINE",
"81 568 LINE",
"77 536 LINE",
"135 525 LINE SMOOTH",
"147 523 OFFCURVE",
"153 514 OFFCURVE",
"151 501 CURVE SMOOTH",
"97 65 LINE SMOOTH",
"95 52 OFFCURVE",
"89 44 OFFCURVE",
"75 42 CURVE SMOOTH",
"15 32 LINE",
"11 0 LINE",
"420 0 LINE",
"436 48 OFFCURVE",
"448 108 OFFCURVE",
"455 157 CURVE",
"424 161 LINE"
);
}
);
};
layerId = "DAAEA780-4710-4479-B303-5C05B40621B2";
paths = (
{
closed = 1;
nodes = (
"352 69 LINE SMOOTH",
"348 60 OFFCURVE",
"346 53 OFFCURVE",
"330 48 CURVE SMOOTH",
"311 42 OFFCURVE",
"281 39 OFFCURVE",
"245 39 CURVE SMOOTH",
"156 39 LINE",
"212 493 LINE SMOOTH",
"215 519 OFFCURVE",
"224 524 OFFCURVE",
"240 526 CURVE SMOOTH",
"307 536 LINE",
"311 568 LINE",
"86 568 LINE",
"82 536 LINE",
"134 526 LINE SMOOTH",
"148 523 OFFCURVE",
"153 517 OFFCURVE",
"151 500 CURVE SMOOTH",
"98 75 LINE SMOOTH",
"95 53 OFFCURVE",
"91 46 OFFCURVE",
"71 42 CURVE SMOOTH",
"20 32 LINE",
"16 0 LINE",
"395 0 LINE",
"404 36 OFFCURVE",
"418 107 OFFCURVE",
"421 157 CURVE",
"388 161 LINE"
);
}
);
width = 456;
},
{
anchors = (
{
name = bottom;
position = "{247, 0}";
},
{
name = periodcentred;
position = "{434, 332}";
},
{
name = top;
position = "{226, 573}";
},
{
name = topright;
position = "{327, 338}";
}
);
background = {
anchors = (
{
name = btm;
position = "{256, 0}";
},
{
name = top;
position = "{267, 568}";
},
{
name = topright;
position = "{336, 333}";
}
);
paths = (
{
closed = 1;
nodes = (
"380 93 LINE SMOOTH",
"374 80 OFFCURVE",
"366 73 OFFCURVE",
"356 69 CURVE SMOOTH",
"342 63 OFFCURVE",
"318 60 OFFCURVE",
"288 60 CURVE SMOOTH",
"225 60 LINE",
"277 481 LINE SMOOTH",
"278 492 OFFCURVE",
"285 499 OFFCURVE",
"297 501 CURVE SMOOTH",
"373 513 LINE",
"380 568 LINE",
"76 568 LINE",
"69 513 LINE",
"125 502 LINE SMOOTH",
"136 500 OFFCURVE",
"140 493 OFFCURVE",
"139 482 CURVE SMOOTH",
"90 83 LINE SMOOTH",
"89 72 OFFCURVE",
"82 65 OFFCURVE",
"71 63 CURVE SMOOTH",
"13 52 LINE",
"6 0 LINE",
"458 0 LINE",
"482 70 OFFCURVE",
"490 139 OFFCURVE",
"498 201 CURVE",
"430 210 LINE"
);
}
);
};
layerId = "925CB40E-795E-477B-BAE7-1EE7D58841B5";
paths = (
{
closed = 1;
nodes = (
"359 95 LINE SMOOTH",
"352 78 OFFCURVE",
"344 69 OFFCURVE",
"330 65 CURVE SMOOTH",
"313 60 OFFCURVE",
"292 59 OFFCURVE",
"266 59 CURVE SMOOTH",
"224 59 LINE",
"277 488 LINE SMOOTH",
"280 509 OFFCURVE",
"292 510 OFFCURVE",
"303 512 CURVE SMOOTH",
"364 521 LINE",
"370 573 LINE",
"82 573 LINE",
"76 521 LINE",
"120 512 LINE SMOOTH",
"136 509 OFFCURVE",
"143 505 OFFCURVE",
"141 488 CURVE SMOOTH",
"91 85 LINE SMOOTH",
"89 69 OFFCURVE",
"81 64 OFFCURVE",
"67 61 CURVE SMOOTH",
"20 52 LINE",
"14 0 LINE",
"439 0 LINE",
"458 63 OFFCURVE",
"467 135 OFFCURVE",
"470 200 CURVE",
"405 209 LINE"
);
}
);
width = 498;
}
);
leftKerningGroup = H;
leftMetricsKey = H;
rightKerningGroup = L;
unicode = 004C;
userData = {
com.typemytype.robofont.layerData = {
background = {
anchors = (
{
name = btm;
x = 695;
y = -170;
},
{
name = top;
x = 577;
y = 1700;
}
);
components = (
);
contours = (
{
points = (
{
segmentType = line;
smooth = 0;
x = 109;
y = 0;
},
{
segmentType = line;
smooth = 0;
x = 1174;
y = 0;
},
{
segmentType = line;
smooth = 0;
x = 1249;
y = 426;
},
{
segmentType = line;
smooth = 0;
x = 1151;
y = 443;
},
{
segmentType = line;
smooth = 0;
x = 1036;
y = 122;
},
{
segmentType = line;
smooth = 0;
x = 407;
y = 106;
},
{
segmentType = line;
smooth = 0;
x = 453;
y = 50;
},
{
segmentType = line;
smooth = 0;
x = 453;
y = 1459;
},
{
segmentType = line;
smooth = 0;
x = 434;
y = 1410;
},
{
segmentType = line;
smooth = 0;
x = 657;
y = 1434;
},
{
segmentType = line;
smooth = 0;
x = 657;
y = 1522;
},
{
segmentType = line;
smooth = 0;
x = 113;
y = 1522;
},
{
segmentType = line;
smooth = 0;
x = 113;
y = 1434;
},
{
segmentType = line;
smooth = 0;
x = 304;
y = 1409;
},
{
segmentType = line;
smooth = 0;
x = 284;
y = 1459;
},
{
segmentType = line;
smooth = 0;
x = 284;
y = 58;
},
{
segmentType = line;
smooth = 0;
x = 327;
y = 112;
},
{
segmentType = line;
smooth = 0;
x = 109;
y = 88;
}
);
}
);
lib = {
};
name = L;
unicodes = (
);
width = 1310;
};
};
};
},
{
glyphname = M;
layers = (
{
anchors = (
{
name = bottom;
position = "{332, 0}";
},
{
name = top;
position = "{410, 568}";
}
);
background = {
anchors = (
{
name = btm;
position = "{338, 0}";
},
{
name = top;
position = "{412, 568}";
}
);
paths = (
{
closed = 1;
nodes = (
"627 499 LINE SMOOTH",
"626 512 OFFCURVE",
"633 521 OFFCURVE",
"648 524 CURVE SMOOTH",
"717 536 LINE",
"721 568 LINE",
"545 568 LINE",
"339 82 LINE",
"368 82 LINE",
"263 568 LINE",
"88 568 LINE",
"84 536 LINE",
"149 524 LINE SMOOTH",
"162 522 OFFCURVE",
"168 512 OFFCURVE",
"165 500 CURVE SMOOTH",
"57 65 LINE SMOOTH",
"53 49 OFFCURVE",
"44 44 OFFCURVE",
"34 42 CURVE SMOOTH",
"-22 32 LINE",
"-26 0 LINE",
"169 0 LINE",
"173 32 LINE",
"101 44 LINE",
"222 547 LINE",
"201 547 LINE",
"320 25 LINE",
"360 25 LINE",
"583 547 LINE",
"561 547 LINE",
"581 44 LINE",
"511 32 LINE",
"507 0 LINE",
"711 0 LINE",
"715 32 LINE",
"662 42 LINE SMOOTH",
"651 44 OFFCURVE",
"645 51 OFFCURVE",
"644 64 CURVE SMOOTH"
);
}
);
};
layerId = "DAAEA780-4710-4479-B303-5C05B40621B2";
paths = (
{
closed = 1;
nodes = (
"617 496 LINE SMOOTH",
"617 514 OFFCURVE",
"621 522 OFFCURVE",
"638 525 CURVE SMOOTH",
"701 536 LINE",
"705 568 LINE",
"535 568 LINE",
"333 82 LINE",
"363 82 LINE",
"282 568 LINE",
"114 568 LINE",
"110 536 LINE",
"171 526 LINE SMOOTH",
"183 524 OFFCURVE",
"191 515 OFFCURVE",
"186 496 CURVE SMOOTH",
"75 65 LINE SMOOTH",
"71 49 OFFCURVE",
"62 44 OFFCURVE",
"52 42 CURVE SMOOTH",
"0 32 LINE",
"-4 0 LINE",
"183 0 LINE",
"187 32 LINE",
"120 44 LINE",
"247 547 LINE",
"224 547 LINE",
"314 25 LINE",
"356 25 LINE",
"575 547 LINE",
"554 547 LINE",
"563 44 LINE",
"497 32 LINE",
"493 0 LINE",
"688 0 LINE",
"692 32 LINE",
"642 42 LINE SMOOTH",
"631 44 OFFCURVE",
"624 51 OFFCURVE",
"624 64 CURVE SMOOTH"
);
}
);
width = 730;
},
{
anchors = (
{
name = bottom;
position = "{351, 0}";
},
{
name = top;
position = "{439, 573}";
}
);
background = {
anchors = (
{
name = btm;
position = "{322, 0}";
},
{
name = top;
position = "{444, 568}";
}
);
paths = (
{
closed = 1;
nodes = (
"710 480 LINE SMOOTH",
"710 492 OFFCURVE",
"715 499 OFFCURVE",
"729 502 CURVE SMOOTH",
"795 513 LINE",
"802 568 LINE",
"538 568 LINE",
"376 118 LINE",
"412 118 LINE",
"351 568 LINE",
"87 568 LINE",
"80 513 LINE",
"141 502 LINE SMOOTH",
"152 500 OFFCURVE",
"156 492 OFFCURVE",
"154 480 CURVE SMOOTH",
"57 84 LINE SMOOTH",
"54 73 OFFCURVE",
"48 67 OFFCURVE",
"37 64 CURVE SMOOTH",
"-21 52 LINE",
"-27 0 LINE",
"199 0 LINE",
"205 52 LINE",
"128 63 LINE",
"240 537 LINE",
"216 537 LINE",
"299 20 LINE",
"409 20 LINE",
"596 536 LINE",
"576 536 LINE",
"581 63 LINE",
"513 52 LINE",
"507 0 LINE",
"781 0 LINE",
"787 52 LINE",
"735 64 LINE SMOOTH",
"725 66 OFFCURVE",
"720 72 OFFCURVE",
"719 84 CURVE SMOOTH"
);
}
);
};
layerId = "925CB40E-795E-477B-BAE7-1EE7D58841B5";
paths = (
{
closed = 1;
nodes = (
"694 480 LINE SMOOTH",
"694 495 OFFCURVE",
"700 504 OFFCURVE",
"714 507 CURVE SMOOTH",
"772 518 LINE",
"779 573 LINE",
"525 573 LINE",
"371 118 LINE",
"402 118 LINE",
"357 573 LINE",
"107 573 LINE",
"100 518 LINE",
"157 507 LINE SMOOTH",
"167 505 OFFCURVE",
"173 498 OFFCURVE",
"169 481 CURVE SMOOTH",
"75 84 LINE SMOOTH",
"72 73 OFFCURVE",
"66 66 OFFCURVE",
"55 64 CURVE SMOOTH",
"1 52 LINE",
"-5 0 LINE",
"214 0 LINE",
"220 52 LINE",
"147 63 LINE",
"258 542 LINE",
"233 542 LINE",
"298 20 LINE",
"407 20 LINE",
"585 541 LINE",
"566 541 LINE",
"564 63 LINE",
"500 52 LINE",
"494 0 LINE",
"755 0 LINE",
"761 52 LINE",
"711 64 LINE SMOOTH",
"701 66 OFFCURVE",
"695 72 OFFCURVE",
"695 84 CURVE SMOOTH"
);
}
);
width = 798;
}
);
leftKerningGroup = M;
rightKerningGroup = M;
unicode = 004D;
userData = {
com.typemytype.robofont.layerData = {
background = {
anchors = (
{
name = btm;
x = 1069;
y = -170;
},
{
name = top;
x = 1078;
y = 1700;
}
);
components = (
);
contours = (
{
points = (
{
segmentType = line;
smooth = 0;
x = 78;
y = 0;
},
{
segmentType = line;
smooth = 0;
x = 595;
y = 0;
},
{
segmentType = line;
smooth = 0;
x = 595;
y = 88;
},
{
segmentType = line;
smooth = 0;
x = 348;
y = 111;
},
{
segmentType = line;
smooth = 0;
x = 388;
y = 57;
},
{
segmentType = line;
smooth = 0;
x = 486;
y = 1041;
},
{
segmentType = line;
smooth = 0;
x = 534;
y = 1498;
},
{
segmentType = line;
smooth = 0;
x = 514;
y = 1498;
},
{
segmentType = line;
smooth = 0;
x = 657;
y = 1053;
},
{
segmentType = line;
smooth = 0;
x = 1041;
y = 74;
},
{
segmentType = line;
smooth = 0;
x = 1113;
y = 74;
},
{
segmentType = line;
smooth = 0;
x = 1450;
y = 1167;
},
{
segmentType = line;
smooth = 0;
x = 1542;
y = 1477;
},
{
segmentType = line;
smooth = 0;
x = 1531;
y = 1477;
},
{
segmentType = line;
smooth = 0;
x = 1587;
y = 1040;
},
{
segmentType = line;
smooth = 0;
x = 1744;
y = 47;
},
{
segmentType = line;
smooth = 0;
x = 1772;
y = 111;
},
{
segmentType = line;
smooth = 0;
x = 1545;
y = 88;
},
{
segmentType = line;
smooth = 0;
x = 1545;
y = 0;
},
{
segmentType = line;
smooth = 0;
x = 2091;
y = 0;
},
{
segmentType = line;
smooth = 0;
x = 2091;
y = 88;
},
{
segmentType = line;
smooth = 0;
x = 1883;
y = 111;
},
{
segmentType = line;
smooth = 0;
x = 1918;
y = 48;
},
{
segmentType = line;
smooth = 0;
x = 1689;
y = 1411;
},
{
segmentType = line;
smooth = 0;
x = 1924;
y = 1434;
},
{
segmentType = line;
smooth = 0;
x = 1924;
y = 1522;
},
{
segmentType = line;
smooth = 0;
x = 1448;
y = 1522;
},
{
segmentType = line;
smooth = 0;
x = 1151;
y = 576;
},
{
segmentType = line;
smooth = 0;
x = 1061;
y = 179;
},
{
segmentType = line;
smooth = 0;
x = 1124;
y = 179;
},
{
segmentType = line;
smooth = 0;
x = 1011;
y = 576;
},
{
segmentType = line;
smooth = 0;
x = 666;
y = 1522;
},
{
segmentType = line;
smooth = 0;
x = 187;
y = 1522;
},
{
segmentType = line;
smooth = 0;
x = 187;
y = 1434;
},
{
segmentType = line;
smooth = 0;
x = 419;
y = 1412;
},
{
segmentType = line;
smooth = 0;
x = 251;
y = 56;
},
{
segmentType = line;
smooth = 0;
x = 294;
y = 111;
},
{
segmentType = line;
smooth = 0;
x = 78;
y = 88;
}
);
}
);
lib = {
};
name = M;
unicodes = (
);
width = 2103;
};
};
};
},
{
glyphname = N;
layers = (
{
anchors = (
{
name = bottom;
position = "{282, 0}";
},
{
name = top;
position = "{352, 568}";
}
);
background = {
anchors = (
{
name = btm;
position = "{298, 0}";
},
{
name = top;
position = "{348, 568}";
}
);
paths = (
{
closed = 1;
nodes = (
"587 524 CURVE SMOOTH",
"641 536 LINE",
"645 568 LINE",
"447 568 LINE",
"443 536 LINE",
"503 524 LINE SMOOTH",
"516 521 OFFCURVE",
"522 513 OFFCURVE",
"521 501 CURVE SMOOTH",
"468 70 LINE",
"489 75 LINE",
"221 568 LINE",
"82 568 LINE",
"78 536 LINE",
"135 524 LINE SMOOTH",
"147 521 OFFCURVE",
"153 513 OFFCURVE",
"152 501 CURVE SMOOTH",
"98 66 LINE SMOOTH",
"96 53 OFFCURVE",
"90 46 OFFCURVE",
"76 43 CURVE SMOOTH",
"16 32 LINE",
"12 0 LINE",
"221 0 LINE",
"225 32 LINE",
"160 43 LINE SMOOTH",
"148 45 OFFCURVE",
"141 53 OFFCURVE",
"143 66 CURVE SMOOTH",
"198 513 LINE",
"177 510 LINE",
"455 0 LINE",
"504 0 LINE",
"566 501 LINE SMOOTH",
"568 514 OFFCURVE",
"575 521 OFFCURVE"
);
}
);
};
layerId = "DAAEA780-4710-4479-B303-5C05B40621B2";
paths = (
{
closed = 1;
nodes = (
"211 0 LINE",
"216 32 LINE",
"161 42 LINE SMOOTH",
"146 45 OFFCURVE",
"140 51 OFFCURVE",
"142 68 CURVE SMOOTH",
"198 513 LINE",
"182 511 LINE",
"419 0 LINE",
"475 0 LINE",
"536 493 LINE SMOOTH",
"539 515 OFFCURVE",
"543 522 OFFCURVE",
"561 526 CURVE SMOOTH",
"607 536 LINE",
"611 568 LINE",
"426 568 LINE",
"422 536 LINE",
"475 526 LINE SMOOTH",
"489 523 OFFCURVE",
"494 517 OFFCURVE",
"492 500 CURVE SMOOTH",
"439 70 LINE",
"452 74 LINE",
"225 568 LINE",
"86 568 LINE",
"82 536 LINE",
"134 526 LINE SMOOTH",
"148 523 OFFCURVE",
"153 517 OFFCURVE",
"151 500 CURVE SMOOTH",
"98 75 LINE SMOOTH",
"95 53 OFFCURVE",
"91 46 OFFCURVE",
"71 42 CURVE SMOOTH",
"20 32 LINE",
"16 0 LINE"
);
}
);
width = 599;
},
{
anchors = (
{
name = bottom;
position = "{295, 0}";
},
{
name = top;
position = "{367, 573}";
}
);
background = {
anchors = (
{
name = btm;
position = "{312, 0}";
},
{
name = top;
position = "{367, 568}";
}
);
paths = (
{
closed = 1;
nodes = (
"615 502 CURVE SMOOTH",
"669 513 LINE",
"676 568 LINE",
"453 568 LINE",
"446 513 LINE",
"505 502 LINE SMOOTH",
"516 500 OFFCURVE",
"520 493 OFFCURVE",
"519 481 CURVE SMOOTH",
"477 134 LINE",
"504 136 LINE",
"292 568 LINE",
"76 568 LINE",
"69 513 LINE",
"125 502 LINE SMOOTH",
"136 500 OFFCURVE",
"140 493 OFFCURVE",
"139 481 CURVE SMOOTH",
"90 83 LINE SMOOTH",
"89 72 OFFCURVE",
"82 65 OFFCURVE",
"71 63 CURVE SMOOTH",
"13 52 LINE",
"6 0 LINE",
"239 0 LINE",
"246 52 LINE",
"181 63 LINE SMOOTH",
"170 65 OFFCURVE",
"165 72 OFFCURVE",
"166 83 CURVE SMOOTH",
"213 466 LINE",
"186 464 LINE",
"411 0 LINE",
"536 0 LINE",
"595 481 LINE SMOOTH",
"596 493 OFFCURVE",
"604 500 OFFCURVE"
);
}
);
};
layerId = "925CB40E-795E-477B-BAE7-1EE7D58841B5";
paths = (
{
closed = 1;
nodes = (
"225 0 LINE",
"231 52 LINE",
"187 61 LINE SMOOTH",
"171 64 OFFCURVE",
"164 68 OFFCURVE",
"166 85 CURVE SMOOTH",
"214 472 LINE",
"192 470 LINE",
"389 0 LINE",
"510 0 LINE",
"571 488 LINE SMOOTH",
"573 504 OFFCURVE",
"581 509 OFFCURVE",
"595 512 CURVE SMOOTH",
"642 521 LINE",
"648 573 LINE",
"437 573 LINE",
"431 521 LINE",
"475 512 LINE SMOOTH",
"491 509 OFFCURVE",
"498 505 OFFCURVE",
"496 488 CURVE SMOOTH",
"452 133 LINE",
"472 135 LINE",
"288 573 LINE",
"82 573 LINE",
"76 521 LINE",
"120 512 LINE SMOOTH",
"136 509 OFFCURVE",
"143 505 OFFCURVE",
"141 488 CURVE SMOOTH",
"91 85 LINE SMOOTH",
"89 69 OFFCURVE",
"81 64 OFFCURVE",
"67 61 CURVE SMOOTH",
"20 52 LINE",
"14 0 LINE"
);
}
);
width = 626;
}
);
leftKerningGroup = H;
leftMetricsKey = H;
rightKerningGroup = N;
unicode = 004E;
userData = {
com.typemytype.robofont.layerData = {
background = {
anchors = (
{
name = btm;
x = 835;
y = -170;
},
{
name = top;
x = 835;
y = 1700;
}
);
components = (
);
contours = (
{
points = (
{
segmentType = line;
smooth = 0;
x = 115;
y = 0;
},
{
segmentType = line;
smooth = 0;
x = 584;
y = 0;
},
{
segmentType = line;
smooth = 0;
x = 584;
y = 88;
},
{
segmentType = line;
smooth = 0;
x = 380;
y = 109;
},
{
segmentType = line;
smooth = 0;
x = 397;
y = 74;
},
{
segmentType = line;
smooth = 0;
x = 397;
y = 1388;
},
{
segmentType = line;
smooth = 0;
x = 360;
y = 1388;
},
{
segmentType = line;
smooth = 0;
x = 566;
y = 1054;
},
{
segmentType = line;
smooth = 0;
x = 1299;
y = 0;
},
{
segmentType = line;
smooth = 0;
x = 1405;
y = 0;
},
{
segmentType = line;
smooth = 0;
x = 1405;
y = 1446;
},
{
segmentType = line;
smooth = 0;
x = 1380;
y = 1408;
},
{
segmentType = line;
smooth = 0;
x = 1572;
y = 1434;
},
{
segmentType = line;
smooth = 0;
x = 1572;
y = 1522;
},
{
segmentType = line;
smooth = 0;
x = 1106;
y = 1522;
},
{
segmentType = line;
smooth = 0;
x = 1106;
y = 1434;
},
{
segmentType = line;
smooth = 0;
x = 1317;
y = 1407;
},
{
segmentType = line;
smooth = 0;
x = 1286;
y = 1446;
},
{
segmentType = line;
smooth = 0;
x = 1286;
y = 113;
},
{
segmentType = line;
smooth = 0;
x = 1373;
y = 113;
},
{
segmentType = line;
smooth = 0;
x = 1170;
y = 471;
},
{
segmentType = line;
smooth = 0;
x = 445;
y = 1522;
},
{
segmentType = line;
smooth = 0;
x = 115;
y = 1522;
},
{
segmentType = line;
smooth = 0;
x = 115;
y = 1434;
},
{
segmentType = line;
smooth = 0;
x = 320;
y = 1405;
},
{
segmentType = line;
smooth = 0;
x = 278;
y = 1441;
},
{
segmentType = line;
smooth = 0;
x = 278;
y = 74;
},
{
segmentType = line;
smooth = 0;
x = 295;
y = 110;
},
{
segmentType = line;
smooth = 0;
x = 115;
y = 88;
}
);
}
);
lib = {
};
name = N;
unicodes = (
);
width = 1730;
};
};
};
},
{
glyphname = O;
layers = (
{
anchors = (
{
name = bottom;
position = "{240, 0}";
},
{
name = horn;
position = "{413, 568}";
},
{
name = ogonek;
position = "{304, 0}";
},
{
name = top;
position = "{320, 568}";
}
);
background = {
paths = (
{
closed = 1;
nodes = (
"392 -11 OFFCURVE",
"514 148 OFFCURVE",
"514 345 CURVE SMOOTH",
"514 502 OFFCURVE",
"441 579 OFFCURVE",
"327 579 CURVE SMOOTH",
"170 579 OFFCURVE",
"46 422 OFFCURVE",
"46 221 CURVE SMOOTH",
"46 79 OFFCURVE",
"110 -11 OFFCURVE",
"233 -11 CURVE SMOOTH"
);
},
{
closed = 1;
nodes = (
"162 31 OFFCURVE",
"118 112 OFFCURVE",
"118 227 CURVE SMOOTH",
"118 394 OFFCURVE",
"196 540 OFFCURVE",
"310 539 CURVE SMOOTH",
"397 537 OFFCURVE",
"442 459 OFFCURVE",
"442 339 CURVE SMOOTH",
"442 168 OFFCURVE",
"362 28 OFFCURVE",
"251 29 CURVE SMOOTH"
);
}
);
};
layerId = "DAAEA780-4710-4479-B303-5C05B40621B2";
paths = (
{
closed = 1;
nodes = (
"394 -11 OFFCURVE",
"514 151 OFFCURVE",
"514 347 CURVE SMOOTH",
"514 499 OFFCURVE",
"442 579 OFFCURVE",
"328 579 CURVE SMOOTH",
"166 579 OFFCURVE",
"46 417 OFFCURVE",
"46 221 CURVE SMOOTH",
"46 69 OFFCURVE",
"118 -11 OFFCURVE",
"232 -11 CURVE SMOOTH"
);
},
{
closed = 1;
nodes = (
"161 29 OFFCURVE",
"118 112 OFFCURVE",
"118 234 CURVE SMOOTH",
"118 393 OFFCURVE",
"195 539 OFFCURVE",
"313 539 CURVE SMOOTH",
"399 539 OFFCURVE",
"442 456 OFFCURVE",
"442 334 CURVE SMOOTH",
"442 175 OFFCURVE",
"365 29 OFFCURVE",
"247 29 CURVE SMOOTH"
);
}
);
width = 541;
},
{
anchors = (
{
name = bottom;
position = "{258, 0}";
},
{
name = horn;
position = "{472, 573}";
},
{
name = ogonek;
position = "{331, 0}";
},
{
name = top;
position = "{342, 573}";
}
);
background = {
paths = (
{
closed = 1;
nodes = (
"449 -13 OFFCURVE",
"560 164 OFFCURVE",
"560 352 CURVE SMOOTH",
"560 500 OFFCURVE",
"484 586 OFFCURVE",
"355 586 CURVE SMOOTH",
"151 586 OFFCURVE",
"40 409 OFFCURVE",
"40 221 CURVE SMOOTH",
"40 74 OFFCURVE",
"115 -13 OFFCURVE",
"245 -13 CURVE SMOOTH"
);
},
{
closed = 1;
nodes = (
"224 49 OFFCURVE",
"189 128 OFFCURVE",
"189 242 CURVE SMOOTH",
"189 371 OFFCURVE",
"231 524 OFFCURVE",
"315 524 CURVE SMOOTH",
"375 524 OFFCURVE",
"411 446 OFFCURVE",
"411 331 CURVE SMOOTH",
"411 200 OFFCURVE",
"369 49 OFFCURVE",
"285 49 CURVE SMOOTH"
);
}
);
};
layerId = "925CB40E-795E-477B-BAE7-1EE7D58841B5";
paths = (
{
closed = 1;
nodes = (
"446 -13 OFFCURVE",
"560 166 OFFCURVE",
"560 352 CURVE SMOOTH",
"560 503 OFFCURVE",
"489 586 OFFCURVE",
"351 586 CURVE SMOOTH",
"154 586 OFFCURVE",
"40 407 OFFCURVE",
"40 221 CURVE SMOOTH",
"40 70 OFFCURVE",
"111 -13 OFFCURVE",
"249 -13 CURVE SMOOTH"
);
},
{
closed = 1;
nodes = (
"215 48 OFFCURVE",
"188 111 OFFCURVE",
"188 220 CURVE SMOOTH",
"188 360 OFFCURVE",
"236 525 OFFCURVE",
"329 525 CURVE SMOOTH",
"385 525 OFFCURVE",
"412 461 OFFCURVE",
"412 353 CURVE SMOOTH",
"412 213 OFFCURVE",
"364 48 OFFCURVE",
"271 48 CURVE SMOOTH"
);
}
);
width = 581;
}
);
leftKerningGroup = O;
rightKerningGroup = O;
rightMetricsKey = "=|";
unicode = 004F;
userData = {
com.typemytype.robofont.layerData = {
background = {
anchors = (
{
name = btm;
x = 727;
y = -170;
},
{
name = top;
x = 741;
y = 1700;
}
);
components = (
);
contours = (
{
points = (
{
segmentType = curve;
smooth = 1;
x = 722;
y = -23;
},
{
smooth = 0;
x = 1100;
y = -16;
},
{
smooth = 0;
x = 1398;
y = 292;
},
{
segmentType = curve;
smooth = 1;
x = 1398;
y = 775;
},
{
smooth = 0;
x = 1398;
y = 1234;
},
{
smooth = 0;
x = 1172;
y = 1538;
},
{
segmentType = curve;
smooth = 1;
x = 757;
y = 1538;
},
{
smooth = 0;
x = 377;
y = 1538;
},
{
smooth = 0;
x = 75;
y = 1232;
},
{
segmentType = curve;
smooth = 1;
x = 75;
y = 749;
},
{
smooth = 0;
x = 75;
y = 289;
},
{
smooth = 0;
x = 307;
y = -30;
}
);
},
{
points = (
{
segmentType = curve;
smooth = 1;
x = 740;
y = 1442;
},
{
smooth = 0;
x = 1040;
y = 1442;
},
{
smooth = 0;
x = 1209;
y = 1167;
},
{
segmentType = curve;
smooth = 1;
x = 1209;
y = 774;
},
{
smooth = 0;
x = 1209;
y = 310;
},
{
smooth = 0;
x = 1015;
y = 74;
},
{
segmentType = curve;
smooth = 1;
x = 734;
y = 74;
},
{
smooth = 0;
x = 432;
y = 74;
},
{
smooth = 0;
x = 262;
y = 358;
},
{
segmentType = curve;
smooth = 1;
x = 262;
y = 750;
},
{
smooth = 0;
x = 262;
y = 1214;
},
{
smooth = 0;
x = 456;
y = 1442;
}
);
}
);
lib = {
};
name = O;
unicodes = (
);
width = 1563;
};
};
};
},
{
glyphname = P;
layers = (
{
anchors = (
{
name = bottom;
position = "{132, 0}";
},
{
name = top;
position = "{285, 568}";
}
);
background = {
anchors = (
{
name = btm;
position = "{231, 0}";
},
{
name = top;
position = "{302, 568}";
}
);
paths = (
{
closed = 1;
nodes = (
"217 533 LINE",
"238 533 OFFCURVE",
"264 537 OFFCURVE",
"300 537 CURVE SMOOTH",
"398 537 OFFCURVE",
"440 505 OFFCURVE",
"429 415 CURVE SMOOTH",
"414 296 OFFCURVE",
"340 260 OFFCURVE",
"265 260 CURVE SMOOTH",
"226 260 OFFCURVE",
"203 262 OFFCURVE",
"166 264 CURVE",
"163 227 LINE",
"195 225 OFFCURVE",
"227 223 OFFCURVE",
"259 223 CURVE SMOOTH",
"378 223 OFFCURVE",
"481 293 OFFCURVE",
"496 415 CURVE SMOOTH",
"508 515 OFFCURVE",
"469 573 OFFCURVE",
"323 573 CURVE SMOOTH",
"258 573 OFFCURVE",
"242 568 OFFCURVE",
"192 568 CURVE SMOOTH",
"83 568 LINE",
"79 536 LINE",
"139 524 LINE SMOOTH",
"149 522 OFFCURVE",
"153 512 OFFCURVE",
"152 502 CURVE SMOOTH",
"97 65 LINE SMOOTH",
"95 53 OFFCURVE",
"87 45 OFFCURVE",
"75 43 CURVE SMOOTH",
"15 32 LINE",
"11 0 LINE",
"258 0 LINE",
"262 32 LINE",
"175 44 LINE SMOOTH",
"164 46 OFFCURVE",
"158 54 OFFCURVE",
"159 65 CURVE SMOOTH"
);
}
);
};
layerId = "DAAEA780-4710-4479-B303-5C05B40621B2";
paths = (
{
closed = 1;
nodes = (
"217 533 LINE",
"234 533 OFFCURVE",
"266 537 OFFCURVE",
"289 537 CURVE SMOOTH",
"363 537 OFFCURVE",
"401 498 OFFCURVE",
"401 422 CURVE SMOOTH",
"401 344 OFFCURVE",
"361 260 OFFCURVE",
"245 260 CURVE SMOOTH",
"221 260 OFFCURVE",
"187 264 OFFCURVE",
"165 267 CURVE",
"161 230 LINE",
"178 228 OFFCURVE",
"213 223 OFFCURVE",
"245 223 CURVE SMOOTH",
"385 223 OFFCURVE",
"471 313 OFFCURVE",
"471 431 CURVE SMOOTH",
"471 521 OFFCURVE",
"413 573 OFFCURVE",
"306 573 CURVE SMOOTH",
"270 573 OFFCURVE",
"212 568 OFFCURVE",
"171 568 CURVE SMOOTH",
"86 568 LINE",
"82 536 LINE",
"134 526 LINE SMOOTH",
"148 523 OFFCURVE",
"153 517 OFFCURVE",
"151 500 CURVE SMOOTH",
"98 75 LINE SMOOTH",
"95 53 OFFCURVE",
"91 46 OFFCURVE",
"71 42 CURVE SMOOTH",
"20 32 LINE",
"16 0 LINE",
"254 0 LINE",
"258 32 LINE",
"177 44 LINE SMOOTH",
"163 46 OFFCURVE",
"158 55 OFFCURVE",
"160 68 CURVE SMOOTH"
);
}
);
width = 471;
},
{
anchors = (
{
name = bottom;
position = "{159, 0}";
},
{
name = top;
position = "{311, 573}";
}
);
background = {
anchors = (
{
name = btm;
position = "{249, 0}";
},
{
name = top;
position = "{320, 568}";
}
);
paths = (
{
closed = 1;
nodes = (
"281 516 LINE",
"291 517 OFFCURVE",
"299 520 OFFCURVE",
"325 520 CURVE SMOOTH",
"383 520 OFFCURVE",
"409 484 OFFCURVE",
"399 401 CURVE SMOOTH",
"385 288 OFFCURVE",
"344 254 OFFCURVE",
"293 254 CURVE SMOOTH",
"267 254 OFFCURVE",
"255 256 OFFCURVE",
"232 259 CURVE",
"226 204 LINE",
"246 203 OFFCURVE",
"268 201 OFFCURVE",
"291 201 CURVE SMOOTH",
"438 201 OFFCURVE",
"524 277 OFFCURVE",
"540 405 CURVE SMOOTH",
"553 512 OFFCURVE",
"512 572 OFFCURVE",
"346 572 CURVE SMOOTH",
"290 572 OFFCURVE",
"253 568 OFFCURVE",
"221 568 CURVE SMOOTH",
"76 568 LINE",
"69 513 LINE",
"126 501 LINE SMOOTH",
"135 499 OFFCURVE",
"140 492 OFFCURVE",
"139 484 CURVE SMOOTH",
"90 81 LINE SMOOTH",
"89 72 OFFCURVE",
"82 65 OFFCURVE",
"72 63 CURVE SMOOTH",
"12 52 LINE",
"6 0 LINE",
"324 0 LINE",
"330 52 LINE",
"242 64 LINE SMOOTH",
"233 65 OFFCURVE",
"227 72 OFFCURVE",
"228 81 CURVE SMOOTH"
);
}
);
};
layerId = "925CB40E-795E-477B-BAE7-1EE7D58841B5";
paths = (
{
closed = 1;
nodes = (
"282 521 LINE",
"293 522 OFFCURVE",
"305 523 OFFCURVE",
"314 523 CURVE SMOOTH",
"362 523 OFFCURVE",
"384 491 OFFCURVE",
"384 423 CURVE SMOOTH",
"384 347 OFFCURVE",
"356 254 OFFCURVE",
"277 254 CURVE SMOOTH",
"262 254 OFFCURVE",
"246 257 OFFCURVE",
"230 259 CURVE",
"225 203 LINE",
"244 201 OFFCURVE",
"265 199 OFFCURVE",
"286 199 CURVE SMOOTH",
"430 199 OFFCURVE",
"523 286 OFFCURVE",
"523 419 CURVE SMOOTH",
"523 540 OFFCURVE",
"446 577 OFFCURVE",
"337 577 CURVE SMOOTH",
"301 577 OFFCURVE",
"246 573 OFFCURVE",
"212 573 CURVE SMOOTH",
"82 573 LINE",
"76 521 LINE",
"120 512 LINE SMOOTH",
"136 509 OFFCURVE",
"143 505 OFFCURVE",
"141 488 CURVE SMOOTH",
"91 85 LINE SMOOTH",
"89 69 OFFCURVE",
"81 64 OFFCURVE",
"67 61 CURVE SMOOTH",
"20 52 LINE",
"14 0 LINE",
"315 0 LINE",
"321 52 LINE",
"249 61 LINE SMOOTH",
"225 64 OFFCURVE",
"226 77 OFFCURVE",
"228 90 CURVE SMOOTH"
);
}
);
width = 518;
}
);
leftKerningGroup = H;
leftMetricsKey = H;
rightKerningGroup = P;
unicode = 0050;
userData = {
com.typemytype.robofont.layerData = {
background = {
anchors = (
{
name = btm;
x = 675;
y = -170;
},
{
name = top;
x = 675;
y = 1700;
}
);
components = (
);
contours = (
{
points = (
{
segmentType = line;
smooth = 0;
x = 109;
y = 0;
},
{
segmentType = line;
smooth = 0;
x = 737;
y = 0;
},
{
segmentType = line;
smooth = 0;
x = 737;
y = 88;
},
{
segmentType = line;
smooth = 0;
x = 408;
y = 111;
},
{
segmentType = line;
smooth = 0;
x = 453;
y = 63;
},
{
segmentType = line;
smooth = 0;
x = 453;
y = 590;
},
{
smooth = 0;
x = 472;
y = 586;
},
{
smooth = 0;
x = 589;
y = 581;
},
{
segmentType = curve;
smooth = 1;
x = 670;
y = 581;
},
{
smooth = 0;
x = 996;
y = 581;
},
{
smooth = 0;
x = 1255;
y = 774;
},
{
segmentType = curve;
smooth = 1;
x = 1255;
y = 1105;
},
{
smooth = 0;
x = 1255;
y = 1376;
},
{
smooth = 0;
x = 1128;
y = 1537;
},
{
segmentType = curve;
smooth = 1;
x = 728;
y = 1537;
},
{
smooth = 0;
x = 549;
y = 1537;
},
{
smooth = 0;
x = 504;
y = 1522;
},
{
segmentType = curve;
smooth = 1;
x = 369;
y = 1522;
},
{
segmentType = line;
smooth = 0;
x = 121;
y = 1522;
},
{
segmentType = line;
smooth = 0;
x = 121;
y = 1434;
},
{
segmentType = line;
smooth = 0;
x = 316;
y = 1407;
},
{
segmentType = line;
smooth = 0;
x = 284;
y = 1445;
},
{
segmentType = line;
smooth = 0;
x = 284;
y = 64;
},
{
segmentType = line;
smooth = 0;
x = 317;
y = 111;
},
{
segmentType = line;
smooth = 0;
x = 109;
y = 88;
}
);
},
{
points = (
{
segmentType = curve;
smooth = 0;
x = 453;
y = 691;
},
{
segmentType = line;
smooth = 0;
x = 453;
y = 1425;
},
{
smooth = 0;
x = 509;
y = 1425;
},
{
smooth = 0;
x = 577;
y = 1438;
},
{
segmentType = curve;
smooth = 1;
x = 675;
y = 1438;
},
{
smooth = 0;
x = 946;
y = 1438;
},
{
smooth = 0;
x = 1075;
y = 1349;
},
{
segmentType = curve;
smooth = 1;
x = 1075;
y = 1105;
},
{
smooth = 0;
x = 1075;
y = 781;
},
{
smooth = 0;
x = 880;
y = 682;
},
{
segmentType = curve;
smooth = 1;
x = 673;
y = 682;
},
{
smooth = 0;
x = 572;
y = 682;
},
{
smooth = 0;
x = 491;
y = 684;
}
);
}
);
lib = {
};
name = P;
unicodes = (
);
width = 1352;
};
};
};
},
{
glyphname = Q;
layers = (
{
anchors = (
{
name = bottom;
position = "{240, 0}";
},
{
name = top;
position = "{320, 568}";
}
);
background = {
paths = (
{
closed = 1;
nodes = (
"468 -153 OFFCURVE",
"505 -134 OFFCURVE",
"525 -116 CURVE",
"514 -88 LINE",
"499 -93 OFFCURVE",
"483 -96 OFFCURVE",
"468 -96 CURVE SMOOTH",
"436 -96 OFFCURVE",
"397 -85 OFFCURVE",
"361 -57 CURVE SMOOTH",
"304 -12 OFFCURVE",
"295 -6 OFFCURVE",
"254 0 CURVE",
"187 -6 LINE",
"299 -39 OFFCURVE",
"322 -153 OFFCURVE",
"426 -153 CURVE SMOOTH"
);
},
{
closed = 1;
nodes = (
"394 -11 OFFCURVE",
"514 151 OFFCURVE",
"514 347 CURVE SMOOTH",
"514 499 OFFCURVE",
"442 579 OFFCURVE",
"328 579 CURVE SMOOTH",
"166 579 OFFCURVE",
"46 417 OFFCURVE",
"46 221 CURVE SMOOTH",
"46 69 OFFCURVE",
"118 -11 OFFCURVE",
"232 -11 CURVE SMOOTH"
);
},
{
closed = 1;
nodes = (
"161 29 OFFCURVE",
"118 112 OFFCURVE",
"118 234 CURVE SMOOTH",
"118 393 OFFCURVE",
"195 539 OFFCURVE",
"313 539 CURVE SMOOTH",
"399 539 OFFCURVE",
"442 456 OFFCURVE",
"442 334 CURVE SMOOTH",
"442 175 OFFCURVE",
"365 29 OFFCURVE",
"247 29 CURVE SMOOTH"
);
}
);
};
layerId = "DAAEA780-4710-4479-B303-5C05B40621B2";
paths = (
{
closed = 1;
nodes = (
"450 -153 OFFCURVE",
"484 -134 OFFCURVE",
"503 -116 CURVE",
"493 -88 LINE",
"479 -93 OFFCURVE",
"464 -96 OFFCURVE",
"450 -96 CURVE SMOOTH",
"420 -96 OFFCURVE",
"383 -85 OFFCURVE",
"350 -57 CURVE SMOOTH",
"296 -12 OFFCURVE",
"288 -6 OFFCURVE",
"250 0 CURVE",
"188 -6 LINE",
"292 -39 OFFCURVE",
"313 -153 OFFCURVE",
"410 -153 CURVE SMOOTH"
);
},
{
closed = 1;
nodes = (
"394 -11 OFFCURVE",
"514 151 OFFCURVE",
"514 347 CURVE SMOOTH",
"514 499 OFFCURVE",
"442 579 OFFCURVE",
"328 579 CURVE SMOOTH",
"166 579 OFFCURVE",
"46 417 OFFCURVE",
"46 221 CURVE SMOOTH",
"46 69 OFFCURVE",
"118 -11 OFFCURVE",
"232 -11 CURVE SMOOTH"
);
},
{
closed = 1;
nodes = (
"161 29 OFFCURVE",
"118 112 OFFCURVE",
"118 234 CURVE SMOOTH",
"118 393 OFFCURVE",
"195 539 OFFCURVE",
"313 539 CURVE SMOOTH",
"399 539 OFFCURVE",
"442 456 OFFCURVE",
"442 334 CURVE SMOOTH",
"442 175 OFFCURVE",
"365 29 OFFCURVE",
"247 29 CURVE SMOOTH"
);
}
);
width = 543;
},
{
anchors = (
{
name = bottom;
position = "{258, 0}";
},
{
name = top;
position = "{342, 573}";
}
);
background = {
paths = (
{
closed = 1;
nodes = (
"496 -159 OFFCURVE",
"541 -132 OFFCURVE",
"574 -99 CURVE",
"552 -55 LINE",
"534 -60 OFFCURVE",
"514 -64 OFFCURVE",
"493 -64 CURVE SMOOTH",
"467 -64 OFFCURVE",
"443 -59 OFFCURVE",
"402 -38 CURVE SMOOTH",
"335 -4 OFFCURVE",
"326 0 OFFCURVE",
"294 5 CURVE",
"188 0 LINE",
"293 -42 OFFCURVE",
"325 -159 OFFCURVE",
"441 -159 CURVE SMOOTH"
);
},
{
closed = 1;
nodes = (
"446 -13 OFFCURVE",
"560 166 OFFCURVE",
"560 352 CURVE SMOOTH",
"560 503 OFFCURVE",
"489 586 OFFCURVE",
"351 586 CURVE SMOOTH",
"154 586 OFFCURVE",
"40 407 OFFCURVE",
"40 221 CURVE SMOOTH",
"40 70 OFFCURVE",
"111 -13 OFFCURVE",
"249 -13 CURVE SMOOTH"
);
},
{
closed = 1;
nodes = (
"215 48 OFFCURVE",
"188 111 OFFCURVE",
"188 220 CURVE SMOOTH",
"188 360 OFFCURVE",
"236 525 OFFCURVE",
"329 525 CURVE SMOOTH",
"385 525 OFFCURVE",
"412 461 OFFCURVE",
"412 353 CURVE SMOOTH",
"412 213 OFFCURVE",
"364 48 OFFCURVE",
"271 48 CURVE SMOOTH"
);
}
);
};
layerId = "925CB40E-795E-477B-BAE7-1EE7D58841B5";
paths = (
{
closed = 1;
nodes = (
"473 -159 OFFCURVE",
"515 -132 OFFCURVE",
"545 -99 CURVE",
"525 -55 LINE",
"508 -60 OFFCURVE",
"490 -64 OFFCURVE",
"470 -64 CURVE SMOOTH",
"446 -64 OFFCURVE",
"424 -59 OFFCURVE",
"386 -38 CURVE SMOOTH",
"324 -4 OFFCURVE",
"316 0 OFFCURVE",
"286 5 CURVE",
"191 -7 LINE",
"287 -41 OFFCURVE",
"315 -159 OFFCURVE",
"422 -159 CURVE SMOOTH"
);
},
{
closed = 1;
nodes = (
"446 -13 OFFCURVE",
"560 166 OFFCURVE",
"560 352 CURVE SMOOTH",
"560 503 OFFCURVE",
"489 586 OFFCURVE",
"351 586 CURVE SMOOTH",
"154 586 OFFCURVE",
"40 407 OFFCURVE",
"40 221 CURVE SMOOTH",
"40 70 OFFCURVE",
"111 -13 OFFCURVE",
"249 -13 CURVE SMOOTH"
);
},
{
closed = 1;
nodes = (
"215 48 OFFCURVE",
"188 111 OFFCURVE",
"188 220 CURVE SMOOTH",
"188 360 OFFCURVE",
"236 525 OFFCURVE",
"329 525 CURVE SMOOTH",
"385 525 OFFCURVE",
"412 461 OFFCURVE",
"412 353 CURVE SMOOTH",
"412 213 OFFCURVE",
"364 48 OFFCURVE",
"271 48 CURVE SMOOTH"
);
}
);
width = 584;
}
);
leftKerningGroup = O;
leftMetricsKey = O;
rightKerningGroup = O;
unicode = 0051;
userData = {
com.typemytype.robofont.layerData = {
background = {
anchors = (
{
name = btm;
x = 733;
y = -170;
},
{
name = top;
x = 733;
y = 1700;
}
);
components = (
);
contours = (
{
points = (
{
segmentType = curve;
smooth = 0;
x = 1668;
y = -413;
},
{
segmentType = line;
smooth = 0;
x = 1679;
y = -413;
},
{
smooth = 0;
x = 1749;
y = -413;
},
{
smooth = 0;
x = 1815;
y = -371;
},
{
segmentType = curve;
smooth = 0;
x = 1834;
y = -353;
},
{
segmentType = line;
smooth = 0;
x = 1814;
y = -268;
},
{
smooth = 0;
x = 1801;
y = -269;
},
{
smooth = 0;
x = 1789;
y = -270;
},
{
segmentType = curve;
smooth = 1;
x = 1770;
y = -270;
},
{
segmentType = line;
smooth = 0;
x = 1768;
y = -270;
},
{
smooth = 0;
x = 1491;
y = -270;
},
{
smooth = 0;
x = 1266;
y = 34;
},
{
segmentType = curve;
smooth = 0;
x = 951;
y = 34;
},
{
segmentType = line;
smooth = 0;
x = 865;
y = 28;
},
{
segmentType = line;
smooth = 0;
x = 809;
y = -3;
},
{
smooth = 0;
x = 1102;
y = -3;
},
{
smooth = 0;
x = 1292;
y = -413;
}
);
},
{
points = (
{
segmentType = curve;
smooth = 1;
x = 728;
y = -23;
},
{
smooth = 0;
x = 1106;
y = -16;
},
{
smooth = 0;
x = 1404;
y = 292;
},
{
segmentType = curve;
smooth = 1;
x = 1404;
y = 775;
},
{
smooth = 0;
x = 1404;
y = 1234;
},
{
smooth = 0;
x = 1178;
y = 1538;
},
{
segmentType = curve;
smooth = 1;
x = 763;
y = 1538;
},
{
smooth = 0;
x = 383;
y = 1538;
},
{
smooth = 0;
x = 81;
y = 1232;
},
{
segmentType = curve;
smooth = 1;
x = 81;
y = 749;
},
{
smooth = 0;
x = 81;
y = 289;
},
{
smooth = 0;
x = 313;
y = -30;
}
);
},
{
points = (
{
segmentType = curve;
smooth = 1;
x = 746;
y = 1442;
},
{
smooth = 0;
x = 1046;
y = 1442;
},
{
smooth = 0;
x = 1215;
y = 1167;
},
{
segmentType = curve;
smooth = 1;
x = 1215;
y = 774;
},
{
smooth = 0;
x = 1215;
y = 310;
},
{
smooth = 0;
x = 1021;
y = 74;
},
{
segmentType = curve;
smooth = 1;
x = 740;
y = 74;
},
{
smooth = 0;
x = 438;
y = 74;
},
{
smooth = 0;
x = 268;
y = 358;
},
{
segmentType = curve;
smooth = 1;
x = 268;
y = 750;
},
{
smooth = 0;
x = 268;
y = 1214;
},
{
smooth = 0;
x = 462;
y = 1442;
}
);
}
);
lib = {
};
name = Q;
unicodes = (
);
width = 1563;
};
};
};
},
{
glyphname = R;
layers = (
{
anchors = (
{
name = bottom;
position = "{260, 0}";
},
{
name = top;
position = "{296, 568}";
}
);
background = {
hints = (
{
origin = "{0, 31}";
type = Corner;
name = _corner.RightSerif;
},
{
origin = "{0, 32}";
type = Corner;
name = _corner.LeftSerif;
}
);
paths = (
{
closed = 1;
nodes = (
"233 0 LINE",
"237 32 LINE",
"177 43 LINE SMOOTH",
"159 46 OFFCURVE",
"158 58 OFFCURVE",
"159 66 CURVE SMOOTH",
"217 533 LINE",
"229 533 OFFCURVE",
"256 537 OFFCURVE",
"281 537 CURVE SMOOTH",
"376 537 OFFCURVE",
"396 479 OFFCURVE",
"396 429 CURVE SMOOTH",
"396 345 OFFCURVE",
"341 289 OFFCURVE",
"255 289 CURVE SMOOTH",
"231 289 OFFCURVE",
"195 289 OFFCURVE",
"173 291 CURVE",
"169 253 LINE",
"274 253 LINE",
"296 260 LINE",
"407 271 OFFCURVE",
"465 351 OFFCURVE",
"465 436 CURVE SMOOTH",
"465 511 OFFCURVE",
"420 573 OFFCURVE",
"296 573 CURVE SMOOTH",
"261 573 OFFCURVE",
"232 568 OFFCURVE",
"192 568 CURVE SMOOTH",
"159 568 LINE",
"89 0 LINE"
);
},
{
closed = 1;
nodes = (
"263 270 LINE",
"279 198 OFFCURVE",
"302 121 OFFCURVE",
"328 59 CURVE SMOOTH",
"351 4 OFFCURVE",
"373 -7 OFFCURVE",
"399 -7 CURVE SMOOTH",
"429 -7 OFFCURVE",
"468 6 OFFCURVE",
"492 17 CURVE",
"486 50 LINE",
"473 48 OFFCURVE",
"452 45 OFFCURVE",
"436 45 CURVE SMOOTH",
"414 45 OFFCURVE",
"403 57 OFFCURVE",
"385 94 CURVE SMOOTH",
"364 138 OFFCURVE",
"339 207 OFFCURVE",
"317 285 CURVE"
);
}
);
};
layerId = "DAAEA780-4710-4479-B303-5C05B40621B2";
paths = (
{
closed = 1;
nodes = (
"226 0 LINE",
"230 32 LINE",
"177 43 LINE SMOOTH",
"159 47 OFFCURVE",
"159 59 OFFCURVE",
"159 66 CURVE SMOOTH",
"217 533 LINE",
"229 533 OFFCURVE",
"256 537 OFFCURVE",
"281 537 CURVE SMOOTH",
"376 537 OFFCURVE",
"396 479 OFFCURVE",
"396 429 CURVE SMOOTH",
"396 345 OFFCURVE",
"341 289 OFFCURVE",
"255 289 CURVE SMOOTH",
"231 289 OFFCURVE",
"195 289 OFFCURVE",
"173 291 CURVE",
"169 253 LINE",
"274 253 LINE",
"296 260 LINE",
"407 271 OFFCURVE",
"465 351 OFFCURVE",
"465 436 CURVE SMOOTH",
"465 511 OFFCURVE",
"420 573 OFFCURVE",
"296 573 CURVE SMOOTH",
"261 573 OFFCURVE",
"232 568 OFFCURVE",
"192 568 CURVE SMOOTH",
"86 568 LINE",
"82 536 LINE",
"134 526 LINE SMOOTH",
"148 523 OFFCURVE",
"153 517 OFFCURVE",
"151 500 CURVE SMOOTH",
"98 75 LINE SMOOTH",
"95 53 OFFCURVE",
"91 46 OFFCURVE",
"71 42 CURVE SMOOTH",
"20 32 LINE",
"16 0 LINE"
);
},
{
closed = 1;
nodes = (
"434 -7 OFFCURVE",
"477 8 OFFCURVE",
"497 21 CURVE",
"490 54 LINE",
"472 48 OFFCURVE",
"454 45 OFFCURVE",
"442 45 CURVE SMOOTH",
"420 45 OFFCURVE",
"407 57 OFFCURVE",
"390 94 CURVE SMOOTH",
"370 138 OFFCURVE",
"346 207 OFFCURVE",
"326 285 CURVE",
"271 270 LINE",
"286 198 OFFCURVE",
"308 121 OFFCURVE",
"333 59 CURVE SMOOTH",
"353 9 OFFCURVE",
"371 -7 OFFCURVE",
"404 -7 CURVE SMOOTH"
);
}
);
width = 522;
},
{
anchors = (
{
name = bottom;
position = "{297, 0}";
},
{
name = top;
position = "{341, 573}";
}
);
background = {
hints = (
{
origin = "{0, 31}";
type = Corner;
name = _corner.RightSerif;
},
{
origin = "{0, 32}";
type = Corner;
name = _corner.LeftSerif;
}
);
paths = (
{
closed = 1;
nodes = (
"291 0 LINE",
"297 52 LINE",
"243 62 LINE SMOOTH",
"230 64 OFFCURVE",
"226 70 OFFCURVE",
"227 81 CURVE SMOOTH",
"281 516 LINE",
"291 517 OFFCURVE",
"304 518 OFFCURVE",
"313 518 CURVE SMOOTH",
"365 518 OFFCURVE",
"392 486 OFFCURVE",
"392 425 CURVE SMOOTH",
"392 345 OFFCURVE",
"351 291 OFFCURVE",
"276 291 CURVE SMOOTH",
"266 291 OFFCURVE",
"253 292 OFFCURVE",
"242 298 CURVE",
"235 241 LINE",
"345 241 LINE",
"382 256 LINE",
"461 274 OFFCURVE",
"531 328 OFFCURVE",
"531 427 CURVE SMOOTH",
"531 531 OFFCURVE",
"455 572 OFFCURVE",
"331 572 CURVE SMOOTH",
"292 572 OFFCURVE",
"251 568 OFFCURVE",
"216 568 CURVE SMOOTH",
"151 568 LINE",
"80 0 LINE"
);
},
{
closed = 1;
nodes = (
"291 255 LINE",
"303 182 OFFCURVE",
"322 104 OFFCURVE",
"341 59 CURVE SMOOTH",
"360 13 OFFCURVE",
"381 -7 OFFCURVE",
"430 -7 CURVE SMOOTH",
"463 -7 OFFCURVE",
"513 2 OFFCURVE",
"563 18 CURVE",
"556 73 LINE",
"544 72 OFFCURVE",
"533 71 OFFCURVE",
"524 71 CURVE SMOOTH",
"502 71 OFFCURVE",
"493 78 OFFCURVE",
"482 95 CURVE SMOOTH",
"461 128 OFFCURVE",
"432 203 OFFCURVE",
"414 279 CURVE"
);
}
);
};
layerId = "925CB40E-795E-477B-BAE7-1EE7D58841B5";
paths = (
{
closed = 1;
nodes = (
"283 0 LINE",
"289 52 LINE",
"243 62 LINE SMOOTH",
"230 65 OFFCURVE",
"225 68 OFFCURVE",
"227 81 CURVE SMOOTH",
"282 521 LINE",
"292 522 OFFCURVE",
"305 523 OFFCURVE",
"314 523 CURVE SMOOTH",
"370 523 OFFCURVE",
"399 489 OFFCURVE",
"399 426 CURVE SMOOTH",
"399 347 OFFCURVE",
"354 291 OFFCURVE",
"279 291 CURVE SMOOTH",
"269 291 OFFCURVE",
"253 292 OFFCURVE",
"242 298 CURVE",
"235 241 LINE",
"345 241 LINE",
"385 256 LINE",
"464 274 OFFCURVE",
"538 329 OFFCURVE",
"538 430 CURVE SMOOTH",
"538 535 OFFCURVE",
"459 577 OFFCURVE",
"332 577 CURVE SMOOTH",
"293 577 OFFCURVE",
"252 573 OFFCURVE",
"217 573 CURVE SMOOTH",
"82 573 LINE",
"76 521 LINE",
"120 512 LINE SMOOTH",
"136 509 OFFCURVE",
"143 505 OFFCURVE",
"140 482 CURVE SMOOTH",
"91 85 LINE SMOOTH",
"89 69 OFFCURVE",
"81 64 OFFCURVE",
"67 61 CURVE SMOOTH",
"20 52 LINE",
"14 0 LINE"
);
},
{
closed = 1;
nodes = (
"475 -7 OFFCURVE",
"530 8 OFFCURVE",
"567 24 CURVE",
"558 79 LINE",
"545 76 OFFCURVE",
"531 74 OFFCURVE",
"522 74 CURVE SMOOTH",
"504 74 OFFCURVE",
"497 82 OFFCURVE",
"485 104 CURVE SMOOTH",
"468 135 OFFCURVE",
"446 209 OFFCURVE",
"431 279 CURVE",
"306 255 LINE",
"320 183 OFFCURVE",
"340 95 OFFCURVE",
"360 49 CURVE SMOOTH",
"375 14 OFFCURVE",
"393 -7 OFFCURVE",
"437 -7 CURVE SMOOTH"
);
}
);
width = 586;
}
);
leftKerningGroup = H;
leftMetricsKey = H;
rightKerningGroup = R;
unicode = 0052;
userData = {
com.typemytype.robofont.layerData = {
"Light Sep 30 15, 11:17" = {
anchors = (
{
name = btm;
x = 817;
y = -170;
},
{
name = top;
x = 774;
y = 1700;
}
);
components = (
);
contours = (
{
points = (
{
segmentType = line;
smooth = 0;
x = 505;
y = 1465;
},
{
smooth = 0;
x = 552;
y = 1465;
},
{
smooth = 0;
x = 624;
y = 1477;
},
{
segmentType = curve;
smooth = 1;
x = 730;
y = 1477;
},
{
smooth = 0;
x = 1026;
y = 1477;
},
{
smooth = 0;
x = 1107;
y = 1345;
},
{
segmentType = curve;
smooth = 1;
x = 1107;
y = 1153;
},
{
smooth = 0;
x = 1107;
y = 908;
},
{
smooth = 0;
x = 983;
y = 796;
},
{
segmentType = curve;
smooth = 1;
x = 801;
y = 796;
},
{
smooth = 0;
x = 748;
y = 796;
},
{
smooth = 0;
x = 558;
y = 794;
},
{
segmentType = curve;
smooth = 0;
x = 467;
y = 800;
},
{
segmentType = line;
smooth = 0;
x = 467;
y = 697;
},
{
smooth = 0;
x = 523;
y = 696;
},
{
smooth = 0;
x = 799;
y = 695;
},
{
segmentType = curve;
smooth = 1;
x = 838;
y = 695;
},
{
smooth = 0;
x = 916;
y = 695;
},
{
smooth = 0;
x = 868;
y = 706;
},
{
segmentType = curve;
smooth = 1;
x = 906;
y = 710;
},
{
smooth = 0;
x = 1146;
y = 735;
},
{
smooth = 0;
x = 1291;
y = 940;
},
{
segmentType = curve;
smooth = 1;
x = 1291;
y = 1167;
},
{
smooth = 0;
x = 1291;
y = 1443;
},
{
smooth = 0;
x = 1146;
y = 1578;
},
{
segmentType = curve;
smooth = 1;
x = 746;
y = 1578;
},
{
smooth = 0;
x = 645;
y = 1578;
},
{
smooth = 0;
x = 532;
y = 1562;
},
{
segmentType = curve;
smooth = 1;
x = 423;
y = 1562;
},
{
segmentType = line;
smooth = 0;
x = 120;
y = 1562;
},
{
segmentType = line;
smooth = 0;
x = 120;
y = 1474;
},
{
segmentType = line;
smooth = 1;
x = 279;
y = 1442;
},
{
smooth = 0;
x = 314;
y = 1435;
},
{
smooth = 0;
x = 335;
y = 1415;
},
{
segmentType = curve;
smooth = 1;
x = 335;
y = 1378;
},
{
segmentType = line;
smooth = 1;
x = 335;
y = 181;
},
{
smooth = 0;
x = 335;
y = 144;
},
{
smooth = 0;
x = 314;
y = 125;
},
{
segmentType = curve;
smooth = 1;
x = 278;
y = 118;
},
{
segmentType = line;
smooth = 0;
x = 120;
y = 88;
},
{
segmentType = line;
smooth = 0;
x = 120;
y = 0;
},
{
segmentType = line;
smooth = 0;
x = 735;
y = 0;
},
{
segmentType = line;
smooth = 0;
x = 735;
y = 88;
},
{
segmentType = line;
smooth = 1;
x = 562;
y = 119;
},
{
smooth = 0;
x = 525;
y = 126;
},
{
smooth = 0;
x = 505;
y = 144;
},
{
segmentType = curve;
smooth = 1;
x = 505;
y = 181;
}
);
},
{
points = (
{
segmentType = line;
smooth = 0;
x = 1495;
y = 0;
},
{
segmentType = line;
smooth = 0;
x = 1495;
y = 88;
},
{
segmentType = line;
smooth = 1;
x = 1364;
y = 118;
},
{
smooth = 0;
x = 1259;
y = 142;
},
{
smooth = 0;
x = 1101;
y = 663;
},
{
segmentType = curve;
smooth = 0;
x = 942;
y = 736;
},
{
segmentType = line;
smooth = 0;
x = 806;
y = 742;
},
{
segmentType = line;
smooth = 0;
x = 775;
y = 703;
},
{
smooth = 0;
x = 933;
y = 657;
},
{
smooth = 0;
x = 1109;
y = 0;
},
{
segmentType = curve;
smooth = 1;
x = 1216;
y = 0;
}
);
}
);
lib = {
};
name = R;
unicodes = (
);
width = 1494;
};
background = {
anchors = (
{
name = btm;
x = 817;
y = -170;
},
{
name = top;
x = 774;
y = 1700;
}
);
components = (
);
contours = (
{
points = (
{
smooth = 0;
x = 1236;
y = 0;
},
{
smooth = 0;
x = 1276;
y = 0;
},
{
segmentType = curve;
smooth = 0;
x = 1474;
y = 0;
},
{
segmentType = line;
smooth = 0;
x = 1474;
y = 85;
},
{
segmentType = line;
smooth = 0;
x = 1388;
y = 108;
},
{
smooth = 0;
x = 1283;
y = 133;
},
{
smooth = 0;
x = 1100;
y = 643;
},
{
segmentType = curve;
smooth = 0;
x = 941;
y = 716;
},
{
segmentType = line;
smooth = 0;
x = 805;
y = 722;
},
{
segmentType = line;
smooth = 0;
x = 774;
y = 683;
},
{
smooth = 0;
x = 932;
y = 637;
},
{
smooth = 0;
x = 1128;
y = 0;
},
{
segmentType = curve;
smooth = 1;
x = 1235;
y = 0;
}
);
},
{
points = (
{
segmentType = line;
smooth = 0;
x = 160;
y = 0;
},
{
segmentType = line;
smooth = 0;
x = 714;
y = 0;
},
{
segmentType = line;
smooth = 0;
x = 714;
y = 88;
},
{
segmentType = line;
smooth = 0;
x = 463;
y = 110;
},
{
segmentType = line;
smooth = 0;
x = 504;
y = 63;
},
{
segmentType = line;
smooth = 0;
x = 504;
y = 677;
},
{
smooth = 0;
x = 547;
y = 676;
},
{
smooth = 0;
x = 780;
y = 675;
},
{
segmentType = curve;
smooth = 0;
x = 817;
y = 675;
},
{
smooth = 0;
x = 895;
y = 675;
},
{
smooth = 0;
x = 847;
y = 686;
},
{
segmentType = curve;
smooth = 0;
x = 885;
y = 690;
},
{
smooth = 0;
x = 1125;
y = 715;
},
{
smooth = 0;
x = 1268;
y = 921;
},
{
segmentType = curve;
smooth = 1;
x = 1268;
y = 1137;
},
{
smooth = 0;
x = 1268;
y = 1402;
},
{
smooth = 0;
x = 1125;
y = 1538;
},
{
segmentType = curve;
smooth = 1;
x = 725;
y = 1538;
},
{
smooth = 0;
x = 624;
y = 1538;
},
{
smooth = 0;
x = 531;
y = 1522;
},
{
segmentType = curve;
smooth = 1;
x = 422;
y = 1522;
},
{
segmentType = line;
smooth = 0;
x = 171;
y = 1522;
},
{
segmentType = line;
smooth = 0;
x = 171;
y = 1437;
},
{
segmentType = line;
smooth = 0;
x = 367;
y = 1410;
},
{
segmentType = line;
smooth = 0;
x = 335;
y = 1447;
},
{
segmentType = line;
smooth = 0;
x = 335;
y = 63;
},
{
segmentType = line;
smooth = 0;
x = 366;
y = 110;
},
{
segmentType = line;
smooth = 0;
x = 160;
y = 88;
}
);
},
{
points = (
{
smooth = 0;
x = 730;
y = 776;
},
{
smooth = 0;
x = 576;
y = 774;
},
{
segmentType = curve;
smooth = 0;
x = 504;
y = 779;
},
{
segmentType = line;
smooth = 0;
x = 504;
y = 1425;
},
{
smooth = 0;
x = 551;
y = 1425;
},
{
smooth = 0;
x = 603;
y = 1437;
},
{
segmentType = curve;
smooth = 1;
x = 709;
y = 1437;
},
{
smooth = 0;
x = 1005;
y = 1437;
},
{
smooth = 0;
x = 1086;
y = 1305;
},
{
segmentType = curve;
smooth = 1;
x = 1086;
y = 1123;
},
{
smooth = 0;
x = 1086;
y = 889;
},
{
smooth = 0;
x = 962;
y = 776;
},
{
segmentType = curve;
smooth = 1;
x = 780;
y = 776;
}
);
}
);
lib = {
};
name = R;
unicodes = (
);
width = 1485;
};
};
};
},
{
glyphname = S;
layers = (
{
anchors = (
{
name = bottom;
position = "{197, 0}";
},
{
name = top;
position = "{273, 568}";
}
);
background = {
anchors = (
{
name = btm;
position = "{186, 0}";
},
{
name = top;
position = "{269, 568}";
}
);
paths = (
{
closed = 1;
nodes = (
"394 148 CURVE SMOOTH",
"404 241 OFFCURVE",
"332 280 OFFCURVE",
"259 316 CURVE SMOOTH",
"175 358 OFFCURVE",
"129 381 OFFCURVE",
"137 451 CURVE SMOOTH",
"144 509 OFFCURVE",
"184 542 OFFCURVE",
"254 542 CURVE SMOOTH",
"293 542 OFFCURVE",
"324 529 OFFCURVE",
"340 515 CURVE SMOOTH",
"349 507 OFFCURVE",
"350 497 OFFCURVE",
"351 489 CURVE SMOOTH",
"357 417 LINE",
"394 417 LINE",
"405 458 OFFCURVE",
"412 499 OFFCURVE",
"414 547 CURVE",
"380 566 OFFCURVE",
"325 577 OFFCURVE",
"274 577 CURVE SMOOTH",
"156 577 OFFCURVE",
"87 517 OFFCURVE",
"77 434 CURVE SMOOTH",
"65 334 OFFCURVE",
"148 293 OFFCURVE",
"214 263 CURVE SMOOTH",
"290 229 OFFCURVE",
"337 204 OFFCURVE",
"328 130 CURVE SMOOTH",
"320 64 OFFCURVE",
"274 24 OFFCURVE",
"195 24 CURVE SMOOTH",
"146 24 OFFCURVE",
"107 44 OFFCURVE",
"90 66 CURVE SMOOTH",
"83 75 OFFCURVE",
"80 84 OFFCURVE",
"80 91 CURVE SMOOTH",
"78 173 LINE",
"40 173 LINE",
"28 125 OFFCURVE",
"20 81 OFFCURVE",
"17 36 CURVE",
"48 13 OFFCURVE",
"107 -12 OFFCURVE",
"184 -12 CURVE SMOOTH",
"315 -12 OFFCURVE",
"385 67 OFFCURVE"
);
}
);
};
layerId = "DAAEA780-4710-4479-B303-5C05B40621B2";
paths = (
{
closed = 1;
nodes = (
"302 -11 OFFCURVE",
"383 62 OFFCURVE",
"383 161 CURVE SMOOTH",
"383 329 OFFCURVE",
"148 309 OFFCURVE",
"148 440 CURVE SMOOTH",
"148 495 OFFCURVE",
"189 544 OFFCURVE",
"257 544 CURVE SMOOTH",
"287 544 OFFCURVE",
"310 537 OFFCURVE",
"326 526 CURVE SMOOTH",
"343 514 OFFCURVE",
"344 500 OFFCURVE",
"345 490 CURVE SMOOTH",
"351 420 LINE",
"386 420 LINE",
"397 464 OFFCURVE",
"404 513 OFFCURVE",
"406 554 CURVE",
"367 570 OFFCURVE",
"319 579 OFFCURVE",
"277 579 CURVE SMOOTH",
"165 579 OFFCURVE",
"87 516 OFFCURVE",
"87 420 CURVE SMOOTH",
"87 254 OFFCURVE",
"318 277 OFFCURVE",
"318 139 CURVE SMOOTH",
"318 74 OFFCURVE",
"268 26 OFFCURVE",
"194 26 CURVE SMOOTH",
"159 26 OFFCURVE",
"126 37 OFFCURVE",
"106 55 CURVE SMOOTH",
"91 68 OFFCURVE",
"92 80 OFFCURVE",
"91 96 CURVE SMOOTH",
"87 173 LINE",
"52 173 LINE",
"40 127 OFFCURVE",
"31 78 OFFCURVE",
"28 29 CURVE",
"65 6 OFFCURVE",
"118 -11 OFFCURVE",
"178 -11 CURVE SMOOTH"
);
}
);
width = 435;
},
{
anchors = (
{
name = bottom;
position = "{214, 0}";
},
{
name = top;
position = "{289, 573}";
}
);
background = {
anchors = (
{
name = btm;
position = "{190, 0}";
},
{
name = top;
position = "{283, 568}";
}
);
paths = (
{
closed = 1;
nodes = (
"435 161 CURVE SMOOTH",
"446 251 OFFCURVE",
"382 300 OFFCURVE",
"304 343 CURVE SMOOTH",
"233 382 OFFCURVE",
"191 404 OFFCURVE",
"198 460 CURVE SMOOTH",
"203 500 OFFCURVE",
"232 527 OFFCURVE",
"275 527 CURVE SMOOTH",
"296 527 OFFCURVE",
"318 519 OFFCURVE",
"330 511 CURVE SMOOTH",
"339 505 OFFCURVE",
"341 496 OFFCURVE",
"342 481 CURVE SMOOTH",
"347 399 LINE",
"423 399 LINE",
"437 446 OFFCURVE",
"448 501 OFFCURVE",
"450 549 CURVE",
"408 567 OFFCURVE",
"346 579 OFFCURVE",
"288 579 CURVE SMOOTH",
"150 579 OFFCURVE",
"73 507 OFFCURVE",
"62 412 CURVE SMOOTH",
"51 316 OFFCURVE",
"115 279 OFFCURVE",
"187 239 CURVE SMOOTH",
"248 205 OFFCURVE",
"301 175 OFFCURVE",
"292 113 CURVE SMOOTH",
"286 70 OFFCURVE",
"255 41 OFFCURVE",
"207 41 CURVE SMOOTH",
"174 41 OFFCURVE",
"146 56 OFFCURVE",
"134 69 CURVE SMOOTH",
"126 78 OFFCURVE",
"121 85 OFFCURVE",
"121 97 CURVE SMOOTH",
"119 191 LINE",
"41 191 LINE",
"27 148 OFFCURVE",
"15 84 OFFCURVE",
"11 31 CURVE",
"56 8 OFFCURVE",
"122 -12 OFFCURVE",
"198 -12 CURVE SMOOTH",
"356 -12 OFFCURVE",
"425 79 OFFCURVE"
);
}
);
};
layerId = "925CB40E-795E-477B-BAE7-1EE7D58841B5";
paths = (
{
closed = 1;
nodes = (
"333 -13 OFFCURVE",
"430 60 OFFCURVE",
"430 178 CURVE SMOOTH",
"430 355 OFFCURVE",
"203 344 OFFCURVE",
"203 457 CURVE SMOOTH",
"203 500 OFFCURVE",
"238 532 OFFCURVE",
"285 532 CURVE SMOOTH",
"305 532 OFFCURVE",
"325 527 OFFCURVE",
"336 519 CURVE SMOOTH",
"350 509 OFFCURVE",
"351 496 OFFCURVE",
"354 468 CURVE SMOOTH",
"360 404 LINE",
"433 404 LINE",
"446 451 OFFCURVE",
"455 513 OFFCURVE",
"457 557 CURVE",
"412 575 OFFCURVE",
"352 586 OFFCURVE",
"299 586 CURVE SMOOTH",
"158 586 OFFCURVE",
"75 510 OFFCURVE",
"75 407 CURVE SMOOTH",
"75 240 OFFCURVE",
"300 255 OFFCURVE",
"300 128 CURVE SMOOTH",
"300 76 OFFCURVE",
"261 43 OFFCURVE",
"211 43 CURVE SMOOTH",
"189 43 OFFCURVE",
"163 50 OFFCURVE",
"146 65 CURVE SMOOTH",
"129 80 OFFCURVE",
"128 93 OFFCURVE",
"127 119 CURVE SMOOTH",
"123 198 LINE",
"47 198 LINE",
"34 154 OFFCURVE",
"21 90 OFFCURVE",
"18 26 CURVE",
"66 0 OFFCURVE",
"132 -13 OFFCURVE",
"197 -13 CURVE SMOOTH"
);
}
);
width = 469;
}
);
leftKerningGroup = S;
rightKerningGroup = S;
unicode = 0053;
userData = {
com.typemytype.robofont.layerData = {
background = {
anchors = (
{
name = btm;
x = 560;
y = -170;
},
{
name = top;
x = 605;
y = 1700;
}
);
components = (
);
contours = (
{
points = (
{
segmentType = curve;
smooth = 1;
x = 545;
y = -23;
},
{
smooth = 0;
x = 883;
y = -23;
},
{
smooth = 0;
x = 1075;
y = 196;
},
{
segmentType = curve;
smooth = 1;
x = 1075;
y = 408;
},
{
smooth = 0;
x = 1075;
y = 654;
},
{
smooth = 0;
x = 838;
y = 757;
},
{
segmentType = curve;
smooth = 1;
x = 636;
y = 853;
},
{
smooth = 0;
x = 421;
y = 955;
},
{
smooth = 0;
x = 274;
y = 1018;
},
{
segmentType = curve;
smooth = 1;
x = 274;
y = 1194;
},
{
smooth = 0;
x = 274;
y = 1360;
},
{
smooth = 0;
x = 384;
y = 1441;
},
{
segmentType = curve;
smooth = 1;
x = 586;
y = 1441;
},
{
smooth = 0;
x = 702;
y = 1441;
},
{
smooth = 0;
x = 803;
y = 1407;
},
{
segmentType = curve;
smooth = 0;
x = 831;
y = 1383;
},
{
segmentType = line;
smooth = 0;
x = 869;
y = 1128;
},
{
segmentType = line;
smooth = 0;
x = 970;
y = 1128;
},
{
segmentType = line;
smooth = 0;
x = 983;
y = 1465;
},
{
smooth = 0;
x = 923;
y = 1475;
},
{
smooth = 0;
x = 779;
y = 1538;
},
{
segmentType = curve;
smooth = 1;
x = 595;
y = 1538;
},
{
smooth = 0;
x = 312;
y = 1538;
},
{
smooth = 0;
x = 113;
y = 1383;
},
{
segmentType = curve;
smooth = 1;
x = 113;
y = 1152;
},
{
smooth = 0;
x = 113;
y = 888;
},
{
smooth = 0;
x = 361;
y = 778;
},
{
segmentType = curve;
smooth = 1;
x = 530;
y = 705;
},
{
smooth = 0;
x = 737;
y = 616;
},
{
smooth = 0;
x = 898;
y = 542;
},
{
segmentType = curve;
smooth = 1;
x = 898;
y = 362;
},
{
smooth = 0;
x = 898;
y = 189;
},
{
smooth = 0;
x = 781;
y = 77;
},
{
segmentType = curve;
smooth = 1;
x = 555;
y = 77;
},
{
smooth = 0;
x = 414;
y = 77;
},
{
smooth = 0;
x = 293;
y = 122;
},
{
segmentType = curve;
smooth = 0;
x = 245;
y = 168;
},
{
segmentType = line;
smooth = 0;
x = 214;
y = 437;
},
{
segmentType = line;
smooth = 0;
x = 109;
y = 437;
},
{
segmentType = line;
smooth = 0;
x = 92;
y = 71;
},
{
smooth = 0;
x = 156;
y = 65;
},
{
smooth = 0;
x = 313;
y = -23;
}
);
}
);
lib = {
};
name = S;
unicodes = (
);
width = 1227;
};
};
};
},
{
glyphname = T;
layers = (
{
anchors = (
{
name = bottom;
position = "{224, 0}";
},
{
name = top;
position = "{295, 568}";
}
);
background = {
anchors = (
{
name = btm;
position = "{222, 0}";
},
{
name = top;
position = "{295, 568}";
}
);
paths = (
{
closed = 1;
nodes = (
"361 0 LINE",
"365 32 LINE",
"282 45 LINE SMOOTH",
"268 47 OFFCURVE",
"261 54 OFFCURVE",
"263 68 CURVE SMOOTH",
"320 532 LINE",
"369 532 LINE SMOOTH",
"407 532 OFFCURVE",
"435 529 OFFCURVE",
"450 524 CURVE SMOOTH",
"460 521 OFFCURVE",
"466 514 OFFCURVE",
"467 501 CURVE SMOOTH",
"476 406 LINE",
"511 406 LINE",
"523 464 OFFCURVE",
"527 516 OFFCURVE",
"528 568 CURVE",
"62 568 LINE",
"49 516 OFFCURVE",
"40 464 OFFCURVE",
"36 406 CURVE",
"72 406 LINE",
"105 501 LINE SMOOTH",
"109 514 OFFCURVE",
"116 520 OFFCURVE",
"128 524 CURVE SMOOTH",
"143 529 OFFCURVE",
"175 532 OFFCURVE",
"212 532 CURVE SMOOTH",
"259 532 LINE",
"202 68 LINE SMOOTH",
"200 54 OFFCURVE",
"193 47 OFFCURVE",
"179 45 CURVE SMOOTH",
"92 32 LINE",
"88 0 LINE"
);
}
);
};
layerId = "DAAEA780-4710-4479-B303-5C05B40621B2";
paths = (
{
closed = 1;
nodes = (
"358 0 LINE",
"362 32 LINE",
"290 41 LINE SMOOTH",
"266 44 OFFCURVE",
"261 51 OFFCURVE",
"263 68 CURVE SMOOTH",
"321 532 LINE",
"359 532 LINE SMOOTH",
"391 532 OFFCURVE",
"419 530 OFFCURVE",
"432 526 CURVE SMOOTH",
"443 523 OFFCURVE",
"448 514 OFFCURVE",
"449 497 CURVE SMOOTH",
"455 406 LINE",
"490 406 LINE",
"504 464 OFFCURVE",
"511 514 OFFCURVE",
"513 568 CURVE",
"76 568 LINE",
"66 518 OFFCURVE",
"58 464 OFFCURVE",
"56 406 CURVE",
"92 406 LINE",
"121 497 LINE SMOOTH",
"126 511 OFFCURVE",
"133 521 OFFCURVE",
"147 526 CURVE SMOOTH",
"162 531 OFFCURVE",
"191 532 OFFCURVE",
"223 532 CURVE SMOOTH",
"259 532 LINE",
"202 75 LINE SMOOTH",
"199 51 OFFCURVE",
"194 44 OFFCURVE",
"171 42 CURVE SMOOTH",
"94 32 LINE",
"90 0 LINE"
);
}
);
width = 499;
},
{
anchors = (
{
name = bottom;
position = "{247, 0}";
},
{
name = top;
position = "{318, 573}";
}
);
background = {
anchors = (
{
name = btm;
position = "{246, 0}";
},
{
name = top;
position = "{317, 568}";
}
);
paths = (
{
closed = 1;
nodes = (
"418 0 LINE",
"425 52 LINE",
"341 66 LINE SMOOTH",
"330 68 OFFCURVE",
"326 74 OFFCURVE",
"327 85 CURVE SMOOTH",
"379 512 LINE",
"408 512 LINE SMOOTH",
"428 512 OFFCURVE",
"447 509 OFFCURVE",
"457 505 CURVE SMOOTH",
"467 501 OFFCURVE",
"471 495 OFFCURVE",
"472 486 CURVE SMOOTH",
"489 360 LINE",
"556 360 LINE",
"572 433 OFFCURVE",
"583 493 OFFCURVE",
"584 568 CURVE",
"49 568 LINE",
"32 493 OFFCURVE",
"28 435 OFFCURVE",
"26 360 CURVE",
"93 360 LINE",
"140 485 LINE SMOOTH",
"144 495 OFFCURVE",
"149 501 OFFCURVE",
"159 505 CURVE SMOOTH",
"172 510 OFFCURVE",
"191 512 OFFCURVE",
"210 512 CURVE SMOOTH",
"241 512 LINE",
"189 85 LINE SMOOTH",
"188 74 OFFCURVE",
"180 68 OFFCURVE",
"169 66 CURVE SMOOTH",
"82 52 LINE",
"75 0 LINE"
);
}
);
};
layerId = "925CB40E-795E-477B-BAE7-1EE7D58841B5";
paths = (
{
closed = 1;
nodes = (
"410 0 LINE",
"417 52 LINE",
"348 61 LINE SMOOTH",
"327 64 OFFCURVE",
"323 70 OFFCURVE",
"325 85 CURVE SMOOTH",
"379 517 LINE",
"397 517 LINE SMOOTH",
"415 517 OFFCURVE",
"432 516 OFFCURVE",
"442 512 CURVE SMOOTH",
"456 506 OFFCURVE",
"459 499 OFFCURVE",
"460 482 CURVE SMOOTH",
"470 366 LINE",
"536 366 LINE",
"555 439 OFFCURVE",
"567 500 OFFCURVE",
"570 573 CURVE",
"65 573 LINE",
"52 497 OFFCURVE",
"48 448 OFFCURVE",
"46 366 CURVE",
"112 366 LINE",
"152 484 LINE SMOOTH",
"157 498 OFFCURVE",
"162 507 OFFCURVE",
"175 512 CURVE SMOOTH",
"189 517 OFFCURVE",
"206 517 OFFCURVE",
"223 517 CURVE SMOOTH",
"243 517 LINE",
"189 86 LINE SMOOTH",
"187 66 OFFCURVE",
"175 64 OFFCURVE",
"160 62 CURVE SMOOTH",
"91 52 LINE",
"85 0 LINE"
);
}
);
width = 546;
}
);
leftKerningGroup = T;
rightKerningGroup = T;
rightMetricsKey = "=|";
unicode = 0054;
userData = {
com.schriftgestaltung.Glyphs.rightMetricsKey = "=|";
com.typemytype.robofont.layerData = {
background = {
anchors = (
{
name = btm;
x = 712;
y = -170;
},
{
name = top;
x = 712;
y = 1700;
}
);
components = (
);
contours = (
{
points = (
{
segmentType = line;
smooth = 0;
x = 336;
y = 0;
},
{
segmentType = line;
smooth = 0;
x = 1073;
y = 0;
},
{
segmentType = line;
smooth = 0;
x = 1073;
y = 88;
},
{
segmentType = line;
smooth = 0;
x = 731;
y = 111;
},
{
segmentType = line;
smooth = 0;
x = 781;
y = 58;
},
{
segmentType = line;
smooth = 0;
x = 781;
y = 1429;
},
{
segmentType = line;
smooth = 0;
x = 1175;
y = 1418;
},
{
segmentType = line;
smooth = 0;
x = 1232;
y = 1001;
},
{
segmentType = line;
smooth = 0;
x = 1342;
y = 1001;
},
{
segmentType = line;
smooth = 0;
x = 1319;
y = 1522;
},
{
segmentType = line;
smooth = 0;
x = 71;
y = 1522;
},
{
segmentType = line;
smooth = 0;
x = 37;
y = 1001;
},
{
segmentType = line;
smooth = 0;
x = 149;
y = 1001;
},
{
segmentType = line;
smooth = 0;
x = 215;
y = 1418;
},
{
segmentType = line;
smooth = 0;
x = 604;
y = 1429;
},
{
segmentType = line;
smooth = 0;
x = 604;
y = 61;
},
{
segmentType = line;
smooth = 0;
x = 653;
y = 111;
},
{
segmentType = line;
smooth = 0;
x = 336;
y = 88;
}
);
}
);
lib = {
};
name = T;
unicodes = (
);
width = 1442;
};
};
};
},
{
glyphname = U;
layers = (
{
anchors = (
{
name = bottom;
position = "{251, 0}";
},
{
name = horn;
position = "{512, 568}";
},
{
name = ogonek;
position = "{331, 0}";
},
{
name = top;
position = "{322, 568}";
}
);
background = {
anchors = (
{
name = btm;
position = "{248, 0}";
},
{
name = top;
position = "{327, 568}";
}
);
paths = (
{
closed = 1;
nodes = (
"391 568 LINE",
"387 536 LINE",
"450 524 LINE SMOOTH",
"463 522 OFFCURVE",
"468 514 OFFCURVE",
"466 501 CURVE SMOOTH",
"430 206 LINE SMOOTH",
"416 89 OFFCURVE",
"364 29 OFFCURVE",
"259 29 CURVE SMOOTH",
"174 29 OFFCURVE",
"118 71 OFFCURVE",
"135 212 CURVE SMOOTH",
"170 500 LINE SMOOTH",
"172 513 OFFCURVE",
"180 522 OFFCURVE",
"192 524 CURVE SMOOTH",
"260 536 LINE",
"264 568 LINE",
"52 568 LINE",
"48 536 LINE",
"91 525 LINE SMOOTH",
"103 522 OFFCURVE",
"108 514 OFFCURVE",
"106 501 CURVE SMOOTH",
"71 219 LINE SMOOTH",
"52 69 OFFCURVE",
"104 -7 OFFCURVE",
"243 -7 CURVE SMOOTH",
"376 -7 OFFCURVE",
"460 59 OFFCURVE",
"478 209 CURVE SMOOTH",
"514 501 LINE SMOOTH",
"516 514 OFFCURVE",
"523 522 OFFCURVE",
"536 525 CURVE SMOOTH",
"582 536 LINE",
"586 568 LINE"
);
}
);
};
layerId = "DAAEA780-4710-4479-B303-5C05B40621B2";
paths = (
{
closed = 1;
nodes = (
"424 -11 OFFCURVE",
"456 115 OFFCURVE",
"468 207 CURVE SMOOTH",
"504 493 LINE SMOOTH",
"507 516 OFFCURVE",
"510 522 OFFCURVE",
"532 527 CURVE SMOOTH",
"570 536 LINE",
"574 568 LINE",
"384 568 LINE",
"380 536 LINE",
"439 526 LINE SMOOTH",
"453 524 OFFCURVE",
"458 517 OFFCURVE",
"456 500 CURVE SMOOTH",
"419 207 LINE SMOOTH",
"409 126 OFFCURVE",
"383 27 OFFCURVE",
"264 27 CURVE SMOOTH",
"187 27 OFFCURVE",
"148 72 OFFCURVE",
"148 164 CURVE SMOOTH",
"148 184 OFFCURVE",
"151 223 OFFCURVE",
"154 248 CURVE SMOOTH",
"185 493 LINE SMOOTH",
"189 522 OFFCURVE",
"197 523 OFFCURVE",
"212 526 CURVE SMOOTH",
"270 536 LINE",
"274 568 LINE",
"70 568 LINE",
"66 536 LINE",
"105 527 LINE SMOOTH",
"119 524 OFFCURVE",
"124 517 OFFCURVE",
"122 500 CURVE SMOOTH",
"88 235 LINE SMOOTH",
"84 203 OFFCURVE",
"82 177 OFFCURVE",
"82 156 CURVE SMOOTH",
"82 42 OFFCURVE",
"139 -11 OFFCURVE",
"252 -11 CURVE SMOOTH"
);
}
);
width = 554;
},
{
anchors = (
{
name = bottom;
position = "{272, 0}";
},
{
name = horn;
position = "{560, 573}";
},
{
name = ogonek;
position = "{355, 0}";
},
{
name = top;
position = "{347, 573}";
}
);
background = {
anchors = (
{
name = btm;
position = "{269, 0}";
},
{
name = top;
position = "{351, 568}";
}
);
paths = (
{
closed = 1;
nodes = (
"406 568 LINE",
"400 513 LINE",
"459 502 LINE SMOOTH",
"470 500 OFFCURVE",
"474 493 OFFCURVE",
"473 481 CURVE SMOOTH",
"439 203 LINE SMOOTH",
"428 110 OFFCURVE",
"391 45 OFFCURVE",
"302 45 CURVE SMOOTH",
"217 45 OFFCURVE",
"195 104 OFFCURVE",
"207 203 CURVE SMOOTH",
"241 480 LINE SMOOTH",
"242 491 OFFCURVE",
"249 499 OFFCURVE",
"260 501 CURVE SMOOTH",
"320 513 LINE",
"326 568 LINE",
"57 568 LINE",
"51 513 LINE",
"85 503 LINE SMOOTH",
"95 500 OFFCURVE",
"100 493 OFFCURVE",
"99 482 CURVE SMOOTH",
"66 215 LINE SMOOTH",
"46 56 OFFCURVE",
"116 -9 OFFCURVE",
"274 -9 CURVE SMOOTH",
"411 -9 OFFCURVE",
"504 50 OFFCURVE",
"524 210 CURVE SMOOTH",
"558 482 LINE SMOOTH",
"559 493 OFFCURVE",
"565 500 OFFCURVE",
"576 503 CURVE SMOOTH",
"618 513 LINE",
"624 568 LINE"
);
}
);
};
layerId = "925CB40E-795E-477B-BAE7-1EE7D58841B5";
paths = (
{
closed = 1;
nodes = (
"422 -13 OFFCURVE",
"500 71 OFFCURVE",
"517 210 CURVE SMOOTH",
"551 490 LINE SMOOTH",
"553 509 OFFCURVE",
"564 513 OFFCURVE",
"575 515 CURVE SMOOTH",
"609 521 LINE",
"615 573 LINE",
"402 573 LINE",
"396 521 LINE",
"445 512 LINE SMOOTH",
"461 509 OFFCURVE",
"465 504 OFFCURVE",
"463 488 CURVE SMOOTH",
"428 205 LINE SMOOTH",
"415 97 OFFCURVE",
"375 48 OFFCURVE",
"303 48 CURVE SMOOTH",
"246 48 OFFCURVE",
"216 85 OFFCURVE",
"216 148 CURVE SMOOTH",
"216 187 OFFCURVE",
"219 219 OFFCURVE",
"223 249 CURVE SMOOTH",
"253 488 LINE SMOOTH",
"256 510 OFFCURVE",
"267 510 OFFCURVE",
"276 512 CURVE SMOOTH",
"326 521 LINE",
"332 573 LINE",
"65 573 LINE",
"59 521 LINE",
"94 514 LINE SMOOTH",
"109 511 OFFCURVE",
"114 506 OFFCURVE",
"112 490 CURVE SMOOTH",
"79 229 LINE SMOOTH",
"76 205 OFFCURVE",
"75 181 OFFCURVE",
"75 161 CURVE SMOOTH",
"75 48 OFFCURVE",
"136 -13 OFFCURVE",
"267 -13 CURVE SMOOTH"
);
}
);
width = 590;
}
);
leftKerningGroup = U;
rightKerningGroup = U;
rightMetricsKey = "=|";
unicode = 0055;
userData = {
com.schriftgestaltung.Glyphs.rightMetricsKey = "=|";
com.typemytype.robofont.layerData = {
background = {
anchors = (
{
name = btm;
x = 793;
y = -170;
},
{
name = top;
x = 799;
y = 1700;
}
);
components = (
);
contours = (
{
points = (
{
segmentType = curve;
smooth = 1;
x = 781;
y = -16;
},
{
smooth = 0;
x = 1092;
y = -16;
},
{
smooth = 0;
x = 1322;
y = 181;
},
{
segmentType = curve;
smooth = 1;
x = 1322;
y = 625;
},
{
segmentType = line;
smooth = 0;
x = 1322;
y = 1460;
},
{
segmentType = line;
smooth = 0;
x = 1294;
y = 1407;
},
{
segmentType = line;
smooth = 0;
x = 1479;
y = 1434;
},
{
segmentType = line;
smooth = 0;
x = 1479;
y = 1522;
},
{
segmentType = line;
smooth = 0;
x = 1024;
y = 1522;
},
{
segmentType = line;
smooth = 0;
x = 1024;
y = 1434;
},
{
segmentType = line;
smooth = 0;
x = 1227;
y = 1406;
},
{
segmentType = line;
smooth = 0;
x = 1193;
y = 1460;
},
{
segmentType = line;
smooth = 0;
x = 1193;
y = 617;
},
{
smooth = 0;
x = 1193;
y = 269;
},
{
smooth = 0;
x = 1059;
y = 83;
},
{
segmentType = curve;
smooth = 1;
x = 797;
y = 83;
},
{
smooth = 0;
x = 557;
y = 83;
},
{
smooth = 0;
x = 385;
y = 208;
},
{
segmentType = curve;
smooth = 1;
x = 385;
y = 633;
},
{
segmentType = line;
smooth = 0;
x = 385;
y = 1460;
},
{
segmentType = line;
smooth = 0;
x = 356;
y = 1407;
},
{
segmentType = line;
smooth = 0;
x = 561;
y = 1434;
},
{
segmentType = line;
smooth = 0;
x = 561;
y = 1522;
},
{
segmentType = line;
smooth = 0;
x = 60;
y = 1522;
},
{
segmentType = line;
smooth = 0;
x = 60;
y = 1434;
},
{
segmentType = line;
smooth = 0;
x = 238;
y = 1407;
},
{
segmentType = line;
smooth = 0;
x = 212;
y = 1460;
},
{
segmentType = line;
smooth = 0;
x = 212;
y = 651;
},
{
smooth = 0;
x = 212;
y = 199;
},
{
smooth = 0;
x = 385;
y = -16;
}
);
}
);
lib = {
};
name = U;
unicodes = (
);
width = 1638;
};
};
};
},
{
glyphname = V;
layers = (
{
anchors = (
{
name = bottom;
position = "{237, 0}";
},
{
name = top;
position = "{307, 568}";
}
);
background = {
anchors = (
{
name = bottom;
position = "{229, -65}";
},
{
name = btm;
position = "{248, 0}";
},
{
name = top;
position = "{266, 568}";
}
);
paths = (
{
closed = 1;
nodes = (
"216 -2 LINE",
"274 -2 LINE",
"510 505 LINE SMOOTH",
"515 516 OFFCURVE",
"525 521 OFFCURVE",
"535 524 CURVE SMOOTH",
"579 536 LINE",
"583 568 LINE",
"398 568 LINE",
"394 536 LINE",
"468 521 LINE",
"243 28 LINE",
"272 28 LINE",
"150 521 LINE",
"229 536 LINE",
"233 568 LINE",
"32 568 LINE",
"28 536 LINE",
"67 524 LINE SMOOTH",
"79 520 OFFCURVE",
"84 516 OFFCURVE",
"87 505 CURVE SMOOTH"
);
}
);
};
layerId = "DAAEA780-4710-4479-B303-5C05B40621B2";
paths = (
{
closed = 1;
nodes = (
"207 -2 LINE",
"266 -2 LINE",
"489 503 LINE SMOOTH",
"495 517 OFFCURVE",
"501 521 OFFCURVE",
"515 525 CURVE SMOOTH",
"551 536 LINE",
"555 568 LINE",
"379 568 LINE",
"375 536 LINE",
"445 521 LINE",
"233 31 LINE",
"261 31 LINE",
"161 521 LINE",
"233 536 LINE",
"237 568 LINE",
"46 568 LINE",
"42 536 LINE",
"80 525 LINE SMOOTH",
"93 521 OFFCURVE",
"98 515 OFFCURVE",
"101 500 CURVE SMOOTH"
);
}
);
width = 516;
},
{
anchors = (
{
name = bottom;
position = "{260, 0}";
},
{
name = top;
position = "{334, 573}";
}
);
background = {
anchors = (
{
name = bottom;
position = "{275, -65}";
},
{
name = btm;
position = "{333, 0}";
},
{
name = top;
position = "{279, 568}";
}
);
paths = (
{
closed = 1;
nodes = (
"226 -2 LINE",
"349 -2 LINE",
"568 485 LINE SMOOTH",
"573 496 OFFCURVE",
"582 500 OFFCURVE",
"590 502 CURVE SMOOTH",
"641 513 LINE",
"648 568 LINE",
"436 568 LINE",
"429 513 LINE",
"497 500 LINE",
"308 58 LINE",
"344 58 LINE",
"249 500 LINE",
"321 513 LINE",
"328 568 LINE",
"54 568 LINE",
"47 513 LINE",
"92 502 LINE SMOOTH",
"100 500 OFFCURVE",
"106 496 OFFCURVE",
"109 485 CURVE SMOOTH"
);
}
);
};
guideLines = (
{
angle = 11.7683;
position = "{608, 513}";
},
{
angle = -11.8215;
position = "{34, 513}";
}
);
layerId = "925CB40E-795E-477B-BAE7-1EE7D58841B5";
paths = (
{
closed = 1;
nodes = (
"198 -1 LINE",
"322 -1 LINE",
"533 485 LINE SMOOTH",
"540 501 OFFCURVE",
"546 506 OFFCURVE",
"562 509 CURVE SMOOTH",
"605 518 LINE",
"612 573 LINE",
"401 573 LINE",
"394 518 LINE",
"462 505 LINE",
"276 59 LINE",
"317 59 LINE",
"239 505 LINE",
"305 518 LINE",
"312 573 LINE",
"46 573 LINE",
"39 518 LINE",
"80 509 LINE SMOOTH",
"96 506 OFFCURVE",
"101 501 OFFCURVE",
"105 482 CURVE SMOOTH"
);
}
);
width = 571;
}
);
leftKerningGroup = V;
rightKerningGroup = V;
unicode = 0056;
userData = {
com.typemytype.robofont.layerData = {
background = {
anchors = (
{
name = btm;
x = 703;
y = -170;
},
{
name = top;
x = 672;
y = 1700;
}
);
components = (
);
contours = (
{
points = (
{
segmentType = line;
smooth = 0;
x = 633;
y = -16;
},
{
segmentType = line;
smooth = 0;
x = 768;
y = -16;
},
{
segmentType = line;
smooth = 0;
x = 1271;
y = 1455;
},
{
segmentType = line;
smooth = 0;
x = 1228;
y = 1407;
},
{
segmentType = line;
smooth = 0;
x = 1386;
y = 1434;
},
{
segmentType = line;
smooth = 0;
x = 1386;
y = 1522;
},
{
segmentType = line;
smooth = 0;
x = 955;
y = 1522;
},
{
segmentType = line;
smooth = 0;
x = 955;
y = 1434;
},
{
segmentType = line;
smooth = 0;
x = 1139;
y = 1409;
},
{
segmentType = line;
smooth = 0;
x = 1134;
y = 1457;
},
{
segmentType = line;
smooth = 0;
x = 805;
y = 428;
},
{
segmentType = line;
smooth = 0;
x = 727;
y = 145;
},
{
segmentType = line;
smooth = 0;
x = 641;
y = 423;
},
{
segmentType = line;
smooth = 0;
x = 263;
y = 1454;
},
{
segmentType = line;
smooth = 0;
x = 244;
y = 1408;
},
{
segmentType = line;
smooth = 0;
x = 467;
y = 1434;
},
{
segmentType = line;
smooth = 0;
x = 467;
y = 1522;
},
{
segmentType = line;
smooth = 0;
x = -30;
y = 1522;
},
{
segmentType = line;
smooth = 0;
x = -30;
y = 1434;
},
{
segmentType = line;
smooth = 0;
x = 135;
y = 1405;
},
{
segmentType = line;
smooth = 0;
x = 83;
y = 1450;
}
);
}
);
lib = {
};
name = V;
unicodes = (
);
width = 1482;
};
};
};
},
{
glyphname = W;
layers = (
{
anchors = (
{
name = bottom;
position = "{354, 0}";
},
{
name = top;
position = "{421, 568}";
}
);
background = {
anchors = (
{
name = btm;
position = "{355, 0}";
},
{
name = top;
position = "{420, 568}";
}
);
paths = (
{
closed = 1;
nodes = (
"399 488 LINE",
"212 46 LINE",
"227 46 LINE",
"140 521 LINE",
"218 536 LINE",
"222 568 LINE",
"20 568 LINE",
"16 536 LINE",
"57 524 LINE SMOOTH",
"68 521 OFFCURVE",
"74 515 OFFCURVE",
"76 504 CURVE SMOOTH",
"176 -4 LINE",
"236 -4 LINE",
"416 425 LINE"
);
},
{
closed = 1;
nodes = (
"397 425 LINE",
"473 -4 LINE",
"534 -4 LINE",
"747 504 LINE SMOOTH",
"754 520 OFFCURVE",
"763 521 OFFCURVE",
"771 524 CURVE SMOOTH",
"816 536 LINE",
"820 568 LINE",
"636 568 LINE",
"632 536 LINE",
"706 521 LINE",
"510 44 LINE",
"526 44 LINE",
"442 521 LINE",
"519 536 LINE",
"523 568 LINE",
"327 568 LINE",
"323 536 LINE",
"360 524 LINE SMOOTH",
"372 520 OFFCURVE",
"376 515 OFFCURVE",
"379 504 CURVE SMOOTH"
);
}
);
};
layerId = "DAAEA780-4710-4479-B303-5C05B40621B2";
paths = (
{
closed = 1;
nodes = (
"402 487 LINE",
"224 46 LINE",
"241 46 LINE",
"168 521 LINE",
"239 536 LINE",
"243 568 LINE",
"55 568 LINE",
"51 536 LINE",
"90 525 LINE SMOOTH",
"103 521 OFFCURVE",
"108 515 OFFCURVE",
"110 501 CURVE SMOOTH",
"190 -4 LINE",
"250 -4 LINE",
"421 425 LINE"
);
},
{
closed = 1;
nodes = (
"399 423 LINE",
"457 -4 LINE",
"518 -4 LINE",
"727 504 LINE SMOOTH",
"733 518 OFFCURVE",
"738 523 OFFCURVE",
"751 526 CURVE SMOOTH",
"788 536 LINE",
"792 568 LINE",
"618 568 LINE",
"614 536 LINE",
"684 521 LINE",
"491 44 LINE",
"510 44 LINE",
"444 521 LINE",
"515 536 LINE",
"519 568 LINE",
"332 568 LINE",
"328 536 LINE",
"363 526 LINE SMOOTH",
"376 522 OFFCURVE",
"382 516 OFFCURVE",
"385 501 CURVE SMOOTH"
);
}
);
width = 759;
},
{
anchors = (
{
name = bottom;
position = "{380, 0}";
},
{
name = top;
position = "{459, 573}";
}
);
background = {
anchors = (
{
name = btm;
position = "{404, 0}";
},
{
name = top;
position = "{476, 568}";
}
);
paths = (
{
closed = 1;
nodes = (
"431 459 LINE",
"280 83 LINE",
"296 83 LINE",
"239 500 LINE",
"304 513 LINE",
"311 568 LINE",
"45 568 LINE",
"38 513 LINE",
"85 502 LINE SMOOTH",
"93 500 OFFCURVE",
"98 494 OFFCURVE",
"100 484 CURVE SMOOTH",
"189 -2 LINE",
"312 -2 LINE",
"462 380 LINE"
);
},
{
closed = 1;
nodes = (
"434 383 LINE",
"496 -2 LINE",
"619 -2 LINE",
"816 484 LINE SMOOTH",
"820 494 OFFCURVE",
"827 499 OFFCURVE",
"837 502 CURVE SMOOTH",
"889 513 LINE",
"896 568 LINE",
"693 568 LINE",
"686 513 LINE",
"747 500 LINE",
"586 83 LINE",
"606 83 LINE",
"550 500 LINE",
"624 513 LINE",
"631 568 LINE",
"372 568 LINE",
"365 513 LINE",
"397 502 LINE SMOOTH",
"408 498 OFFCURVE",
"410 491 OFFCURVE",
"412 484 CURVE SMOOTH"
);
}
);
};
guideLines = (
{
angle = -13.1726;
position = "{38, 513}";
},
{
angle = 11.9442;
position = "{849, 513}";
},
{
angle = -18.9704;
position = "{345, 513}";
}
);
layerId = "925CB40E-795E-477B-BAE7-1EE7D58841B5";
paths = (
{
closed = 1;
nodes = (
"411 460 LINE",
"263 85 LINE",
"282 85 LINE",
"234 505 LINE",
"292 518 LINE",
"299 573 LINE",
"44 573 LINE",
"37 518 LINE",
"79 508 LINE SMOOTH",
"92 505 OFFCURVE",
"98 498 OFFCURVE",
"100 483 CURVE SMOOTH",
"175 0 LINE",
"298 0 LINE",
"445 381 LINE"
);
},
{
closed = 1;
nodes = (
"411 388 LINE",
"462 0 LINE",
"585 0 LINE",
"778 486 LINE SMOOTH",
"783 500 OFFCURVE",
"790 504 OFFCURVE",
"805 508 CURVE SMOOTH",
"847 518 LINE",
"854 573 LINE",
"656 573 LINE",
"649 518 LINE",
"712 505 LINE",
"550 85 LINE",
"572 85 LINE",
"527 505 LINE",
"594 518 LINE",
"601 573 LINE",
"353 573 LINE",
"346 518 LINE",
"372 509 LINE SMOOTH",
"387 504 OFFCURVE",
"391 498 OFFCURVE",
"394 483 CURVE SMOOTH"
);
}
);
width = 809;
}
);
leftKerningGroup = W;
rightKerningGroup = W;
unicode = 0057;
userData = {
com.typemytype.robofont.layerData = {
background = {
anchors = (
{
name = btm;
x = 1109;
y = -170;
},
{
name = top;
x = 1119;
y = 1700;
}
);
components = (
);
contours = (
{
points = (
{
segmentType = line;
smooth = 0;
x = 655;
y = -11;
},
{
segmentType = line;
smooth = 0;
x = 804;
y = -11;
},
{
segmentType = line;
smooth = 0;
x = 1149;
y = 1122;
},
{
segmentType = line;
smooth = 0;
x = 1118;
y = 1101;
},
{
segmentType = line;
smooth = 0;
x = 1461;
y = -11;
},
{
segmentType = line;
smooth = 0;
x = 1620;
y = -11;
},
{
segmentType = line;
smooth = 0;
x = 2052;
y = 1453;
},
{
segmentType = line;
smooth = 0;
x = 2026;
y = 1409;
},
{
segmentType = line;
smooth = 0;
x = 2177;
y = 1434;
},
{
segmentType = line;
smooth = 0;
x = 2177;
y = 1522;
},
{
segmentType = line;
smooth = 0;
x = 1692;
y = 1522;
},
{
segmentType = line;
smooth = 0;
x = 1692;
y = 1434;
},
{
segmentType = line;
smooth = 0;
x = 1927;
y = 1409;
},
{
segmentType = line;
smooth = 0;
x = 1922;
y = 1463;
},
{
segmentType = line;
smooth = 0;
x = 1633;
y = 439;
},
{
segmentType = line;
smooth = 0;
x = 1555;
y = 34;
},
{
segmentType = line;
smooth = 0;
x = 1579;
y = 34;
},
{
segmentType = line;
smooth = 0;
x = 1486;
y = 439;
},
{
segmentType = line;
smooth = 0;
x = 1179;
y = 1474;
},
{
segmentType = line;
smooth = 0;
x = 1169;
y = 1408;
},
{
segmentType = line;
smooth = 0;
x = 1400;
y = 1434;
},
{
segmentType = line;
smooth = 0;
x = 1400;
y = 1522;
},
{
segmentType = line;
smooth = 0;
x = 868;
y = 1522;
},
{
segmentType = line;
smooth = 0;
x = 868;
y = 1434;
},
{
segmentType = line;
smooth = 0;
x = 1042;
y = 1408;
},
{
segmentType = line;
smooth = 0;
x = 1003;
y = 1463;
},
{
segmentType = line;
smooth = 0;
x = 1089;
y = 1195;
},
{
segmentType = line;
smooth = 0;
x = 1089;
y = 1285;
},
{
segmentType = line;
smooth = 0;
x = 829;
y = 439;
},
{
segmentType = line;
smooth = 0;
x = 732;
y = 44;
},
{
segmentType = line;
smooth = 0;
x = 764;
y = 44;
},
{
segmentType = line;
smooth = 0;
x = 682;
y = 439;
},
{
segmentType = line;
smooth = 0;
x = 369;
y = 1462;
},
{
segmentType = line;
smooth = 0;
x = 359;
y = 1408;
},
{
segmentType = line;
smooth = 0;
x = 585;
y = 1434;
},
{
segmentType = line;
smooth = 0;
x = 585;
y = 1522;
},
{
segmentType = line;
smooth = 0;
x = 70;
y = 1522;
},
{
segmentType = line;
smooth = 0;
x = 70;
y = 1434;
},
{
segmentType = line;
smooth = 0;
x = 235;
y = 1407;
},
{
segmentType = line;
smooth = 0;
x = 195;
y = 1466;
}
);
}
);
lib = {
};
name = W;
unicodes = (
);
width = 2173;
};
};
};
},
{
glyphname = X;
layers = (
{
anchors = (
{
name = bottom;
position = "{247, 0}";
},
{
name = top;
position = "{316, 568}";
}
);
background = {
anchors = (
{
name = btm;
position = "{260, 0}";
},
{
name = top;
position = "{331, 568}";
}
);
paths = (
{
closed = 1;
nodes = (
"521 0 LINE",
"525 32 LINE",
"483 43 LINE SMOOTH",
"474 45 OFFCURVE",
"466 49 OFFCURVE",
"461 59 CURVE SMOOTH",
"323 312 LINE",
"319 312 LINE",
"213 523 LINE",
"291 536 LINE",
"295 568 LINE",
"86 568 LINE",
"82 536 LINE",
"122 524 LINE SMOOTH",
"133 521 OFFCURVE",
"139 516 OFFCURVE",
"144 507 CURVE SMOOTH",
"272 268 LINE",
"277 267 LINE",
"392 44 LINE",
"318 32 LINE",
"314 0 LINE"
);
},
{
closed = 1;
nodes = (
"198 0 LINE",
"202 32 LINE",
"126 44 LINE",
"303 269 LINE",
"309 269 LINE",
"504 508 LINE SMOOTH",
"512 518 OFFCURVE",
"519 521 OFFCURVE",
"529 524 CURVE SMOOTH",
"575 536 LINE",
"579 568 LINE",
"401 568 LINE",
"397 536 LINE",
"462 523 LINE",
"294 306 LINE",
"285 306 LINE",
"82 59 LINE SMOOTH",
"73 48 OFFCURVE",
"66 45 OFFCURVE",
"57 43 CURVE SMOOTH",
"6 32 LINE",
"2 0 LINE"
);
}
);
};
layerId = "DAAEA780-4710-4479-B303-5C05B40621B2";
paths = (
{
closed = 1;
nodes = (
"482 0 LINE",
"486 32 LINE",
"442 43 LINE SMOOTH",
"433 45 OFFCURVE",
"427 49 OFFCURVE",
"422 59 CURVE SMOOTH",
"303 313 LINE",
"300 313 LINE",
"208 523 LINE",
"278 536 LINE",
"282 568 LINE",
"84 568 LINE",
"80 536 LINE",
"123 524 LINE SMOOTH",
"133 521 OFFCURVE",
"139 516 OFFCURVE",
"143 507 CURVE SMOOTH",
"255 269 LINE",
"258 268 LINE",
"357 44 LINE",
"290 32 LINE",
"286 0 LINE"
);
},
{
closed = 1;
nodes = (
"188 0 LINE",
"192 32 LINE",
"119 44 LINE",
"286 270 LINE",
"292 270 LINE",
"473 509 LINE SMOOTH",
"480 518 OFFCURVE",
"486 522 OFFCURVE",
"496 525 CURVE SMOOTH",
"537 536 LINE",
"541 568 LINE",
"371 568 LINE",
"367 536 LINE",
"430 523 LINE",
"272 307 LINE",
"263 307 LINE",
"75 58 LINE SMOOTH",
"67 48 OFFCURVE",
"61 44 OFFCURVE",
"51 42 CURVE SMOOTH",
"5 32 LINE",
"1 0 LINE"
);
}
);
width = 533;
},
{
anchors = (
{
name = bottom;
position = "{260, 0}";
},
{
name = top;
position = "{339, 573}";
}
);
background = {
anchors = (
{
name = btm;
position = "{269, 0}";
},
{
name = top;
position = "{340, 568}";
}
);
paths = (
{
closed = 1;
nodes = (
"553 0 LINE",
"559 52 LINE",
"520 63 LINE SMOOTH",
"510 66 OFFCURVE",
"506 69 OFFCURVE",
"501 77 CURVE SMOOTH",
"368 329 LINE",
"362 329 LINE",
"279 500 LINE",
"337 513 LINE",
"344 568 LINE",
"77 568 LINE",
"70 513 LINE",
"109 502 LINE SMOOTH",
"119 499 OFFCURVE",
"124 495 OFFCURVE",
"128 487 CURVE SMOOTH",
"251 249 LINE",
"257 249 LINE",
"347 64 LINE",
"289 52 LINE",
"283 0 LINE"
);
},
{
closed = 1;
nodes = (
"210 0 LINE",
"216 52 LINE",
"150 64 LINE",
"303 261 LINE",
"337 261 LINE",
"527 488 LINE SMOOTH",
"535 497 OFFCURVE",
"542 500 OFFCURVE",
"550 502 CURVE SMOOTH",
"600 513 LINE",
"607 568 LINE",
"406 568 LINE",
"399 513 LINE",
"459 500 LINE",
"314 316 LINE",
"278 316 LINE",
"81 77 LINE SMOOTH",
"73 67 OFFCURVE",
"68 65 OFFCURVE",
"59 63 CURVE SMOOTH",
"3 52 LINE",
"-3 0 LINE"
);
}
);
};
guideLines = (
{
angle = -65.5923;
position = "{186, 368}";
},
{
angle = 112.8337;
position = "{312, 415}";
},
{
angle = 231;
position = "{372, 408}";
},
{
angle = 50.2193;
position = "{418, 375}";
}
);
layerId = "925CB40E-795E-477B-BAE7-1EE7D58841B5";
paths = (
{
closed = 1;
nodes = (
"526 0 LINE",
"533 52 LINE",
"489 63 LINE SMOOTH",
"480 65 OFFCURVE",
"474 69 OFFCURVE",
"470 77 CURVE SMOOTH",
"355 332 LINE",
"348 332 LINE",
"276 508 LINE",
"334 521 LINE",
"340 573 LINE",
"80 573 LINE",
"74 521 LINE",
"115 510 LINE SMOOTH",
"124 508 OFFCURVE",
"129 503 OFFCURVE",
"133 495 CURVE SMOOTH",
"241 252 LINE",
"248 252 LINE",
"325 64 LINE",
"269 52 LINE",
"263 0 LINE"
);
},
{
closed = 1;
nodes = (
"198 0 LINE",
"205 52 LINE",
"144 64 LINE",
"299 264 LINE",
"326 264 LINE",
"516 496 LINE SMOOTH",
"522 504 OFFCURVE",
"529 508 OFFCURVE",
"538 510 CURVE SMOOTH",
"581 521 LINE",
"588 573 LINE",
"393 573 LINE",
"387 521 LINE",
"444 508 LINE",
"293 319 LINE",
"264 319 LINE",
"69 77 LINE SMOOTH",
"62 68 OFFCURVE",
"57 65 OFFCURVE",
"48 63 CURVE SMOOTH",
"-2 52 LINE",
"-9 0 LINE"
);
}
);
width = 570;
}
);
leftKerningGroup = X;
rightKerningGroup = X;
unicode = 0058;
userData = {
com.typemytype.robofont.guides = (
{
angle = 123.098;
isGlobal = 0;
x = -85;
y = -57;
},
{
angle = 55.848;
isGlobal = 0;
x = 1754;
y = 1115;
}
);
com.typemytype.robofont.layerData = {
background = {
anchors = (
{
name = btm;
x = 759;
y = -170;
},
{
name = top;
x = 759;
y = 1700;
}
);
components = (
);
contours = (
{
points = (
{
segmentType = line;
smooth = 0;
x = 50;
y = 0;
},
{
segmentType = line;
smooth = 0;
x = 588;
y = 0;
},
{
segmentType = line;
smooth = 0;
x = 588;
y = 90;
},
{
segmentType = line;
smooth = 0;
x = 341;
y = 113;
},
{
segmentType = line;
smooth = 0;
x = 346;
y = 54;
},
{
segmentType = line;
smooth = 0;
x = 753;
y = 749;
},
{
segmentType = line;
smooth = 0;
x = 721;
y = 744;
},
{
segmentType = line;
smooth = 0;
x = 1135;
y = 67;
},
{
segmentType = line;
smooth = 0;
x = 1149;
y = 114;
},
{
segmentType = line;
smooth = 0;
x = 908;
y = 90;
},
{
segmentType = line;
smooth = 0;
x = 908;
y = 0;
},
{
segmentType = line;
smooth = 0;
x = 1478;
y = 0;
},
{
segmentType = line;
smooth = 0;
x = 1478;
y = 90;
},
{
segmentType = line;
smooth = 0;
x = 1259;
y = 116;
},
{
segmentType = line;
smooth = 0;
x = 1343;
y = 69;
},
{
segmentType = line;
smooth = 0;
x = 829;
y = 844;
},
{
segmentType = line;
smooth = 0;
x = 834;
y = 786;
},
{
segmentType = line;
smooth = 0;
x = 1313;
y = 1498;
},
{
segmentType = line;
smooth = 0;
x = 1233;
y = 1441;
},
{
segmentType = line;
smooth = 0;
x = 1440;
y = 1472;
},
{
segmentType = line;
smooth = 0;
x = 1440;
y = 1562;
},
{
segmentType = line;
smooth = 0;
x = 951;
y = 1562;
},
{
segmentType = line;
smooth = 0;
x = 951;
y = 1472;
},
{
segmentType = line;
smooth = 0;
x = 1161;
y = 1445;
},
{
segmentType = line;
smooth = 0;
x = 1160;
y = 1491;
},
{
segmentType = line;
smooth = 0;
x = 771;
y = 841;
},
{
segmentType = line;
smooth = 0;
x = 823;
y = 835;
},
{
segmentType = line;
smooth = 0;
x = 419;
y = 1499;
},
{
segmentType = line;
smooth = 0;
x = 408;
y = 1443;
},
{
segmentType = line;
smooth = 0;
x = 660;
y = 1472;
},
{
segmentType = line;
smooth = 0;
x = 660;
y = 1562;
},
{
segmentType = line;
smooth = 0;
x = 86;
y = 1562;
},
{
segmentType = line;
smooth = 0;
x = 86;
y = 1472;
},
{
segmentType = line;
smooth = 0;
x = 289;
y = 1441;
},
{
segmentType = line;
smooth = 0;
x = 214;
y = 1493;
},
{
segmentType = line;
smooth = 0;
x = 699;
y = 758;
},
{
segmentType = line;
smooth = 0;
x = 689;
y = 810;
},
{
segmentType = line;
smooth = 0;
x = 200;
y = 69;
},
{
segmentType = line;
smooth = 0;
x = 269;
y = 114;
},
{
segmentType = line;
smooth = 0;
x = 50;
y = 90;
}
);
}
);
lib = {
};
name = X;
unicodes = (
);
width = 1445;
};
};
};
},
{
glyphname = Y;
layers = (
{
anchors = (
{
name = bottom;
position = "{242, 0}";
},
{
name = top;
position = "{308, 568}";
}
);
background = {
anchors = (
{
name = btm;
position = "{261, 0}";
},
{
name = top;
position = "{325, 568}";
}
);
paths = (
{
closed = 1;
nodes = (
"306 196 LINE",
"508 508 LINE SMOOTH",
"515 519 OFFCURVE",
"524 523 OFFCURVE",
"535 526 CURVE SMOOTH",
"582 536 LINE",
"586 568 LINE",
"404 568 LINE",
"400 536 LINE",
"467 523 LINE",
"289 246 LINE",
"313 246 LINE",
"191 523 LINE",
"263 536 LINE",
"267 568 LINE",
"64 568 LINE",
"60 536 LINE",
"104 525 LINE SMOOTH",
"119 521 OFFCURVE",
"122 514 OFFCURVE",
"126 507 CURVE SMOOTH",
"266 196 LINE"
);
},
{
closed = 1;
nodes = (
"382 0 LINE",
"386 32 LINE",
"318 45 LINE SMOOTH",
"304 48 OFFCURVE",
"299 53 OFFCURVE",
"301 68 CURVE SMOOTH",
"320 223 LINE",
"258 223 LINE",
"239 68 LINE SMOOTH",
"237 51 OFFCURVE",
"225 47 OFFCURVE",
"215 45 CURVE SMOOTH",
"143 32 LINE",
"139 0 LINE"
);
}
);
};
layerId = "DAAEA780-4710-4479-B303-5C05B40621B2";
paths = (
{
closed = 1;
nodes = (
"286 196 LINE",
"469 509 LINE SMOOTH",
"476 520 OFFCURVE",
"485 525 OFFCURVE",
"496 527 CURVE SMOOTH",
"537 536 LINE",
"541 568 LINE",
"364 568 LINE",
"360 536 LINE",
"427 523 LINE",
"269 246 LINE",
"291 246 LINE",
"182 523 LINE",
"248 536 LINE",
"252 568 LINE",
"61 568 LINE",
"57 536 LINE",
"100 526 LINE SMOOTH",
"115 522 OFFCURVE",
"119 515 OFFCURVE",
"122 508 CURVE SMOOTH",
"247 196 LINE"
);
},
{
closed = 1;
nodes = (
"358 0 LINE",
"362 32 LINE",
"302 42 LINE SMOOTH",
"286 45 OFFCURVE",
"279 50 OFFCURVE",
"281 68 CURVE SMOOTH",
"300 223 LINE",
"238 223 LINE",
"220 75 LINE SMOOTH",
"217 48 OFFCURVE",
"210 45 OFFCURVE",
"190 42 CURVE SMOOTH",
"130 32 LINE",
"126 0 LINE"
);
}
);
width = 518;
},
{
anchors = (
{
name = bottom;
position = "{257, 0}";
},
{
name = top;
position = "{330, 573}";
}
);
background = {
anchors = (
{
name = btm;
position = "{277, 0}";
},
{
name = top;
position = "{357, 568}";
}
);
paths = (
{
closed = 1;
nodes = (
"356 189 LINE",
"544 488 LINE SMOOTH",
"549 496 OFFCURVE",
"555 500 OFFCURVE",
"566 503 CURVE SMOOTH",
"609 513 LINE",
"616 568 LINE",
"413 568 LINE",
"406 513 LINE",
"468 499 LINE",
"326 264 LINE",
"364 264 LINE",
"272 499 LINE",
"331 513 LINE",
"338 568 LINE",
"61 568 LINE",
"54 513 LINE",
"98 502 LINE SMOOTH",
"106 500 OFFCURVE",
"112 495 OFFCURVE",
"116 487 CURVE SMOOTH",
"249 189 LINE"
);
},
{
closed = 1;
nodes = (
"435 0 LINE",
"442 52 LINE",
"374 66 LINE SMOOTH",
"360 69 OFFCURVE",
"358 77 OFFCURVE",
"359 85 CURVE SMOOTH",
"378 239 LINE",
"236 239 LINE",
"217 85 LINE SMOOTH",
"215 72 OFFCURVE",
"208 69 OFFCURVE",
"197 66 CURVE SMOOTH",
"127 52 LINE",
"120 0 LINE"
);
}
);
};
guideLines = (
{
angle = -68.7587;
position = "{335, 266}";
}
);
layerId = "925CB40E-795E-477B-BAE7-1EE7D58841B5";
paths = (
{
closed = 1;
nodes = (
"334 191 LINE",
"511 493 LINE SMOOTH",
"516 501 OFFCURVE",
"522 505 OFFCURVE",
"533 508 CURVE SMOOTH",
"574 518 LINE",
"581 573 LINE",
"382 573 LINE",
"375 518 LINE",
"433 504 LINE",
"300 266 LINE",
"335 266 LINE",
"249 504 LINE",
"305 518 LINE",
"312 573 LINE",
"54 573 LINE",
"47 518 LINE",
"91 507 LINE SMOOTH",
"99 505 OFFCURVE",
"106 500 OFFCURVE",
"109 492 CURVE SMOOTH",
"226 191 LINE"
);
},
{
closed = 1;
nodes = (
"407 0 LINE",
"414 52 LINE",
"357 61 LINE SMOOTH",
"337 64 OFFCURVE",
"332 69 OFFCURVE",
"334 85 CURVE SMOOTH",
"353 241 LINE",
"216 241 LINE",
"197 85 LINE SMOOTH",
"195 69 OFFCURVE",
"186 65 OFFCURVE",
"175 63 CURVE SMOOTH",
"112 52 LINE",
"106 0 LINE"
);
}
);
width = 547;
}
);
leftKerningGroup = Y;
rightKerningGroup = Y;
unicode = 0059;
userData = {
com.typemytype.robofont.layerData = {
background = {
anchors = (
{
name = btm;
x = 734;
y = -170;
},
{
name = top;
x = 787;
y = 1700;
}
);
components = (
);
contours = (
{
points = (
{
segmentType = line;
smooth = 0;
x = 463;
y = 0;
},
{
segmentType = line;
smooth = 0;
x = 1096;
y = 0;
},
{
segmentType = line;
smooth = 0;
x = 1096;
y = 88;
},
{
segmentType = line;
smooth = 0;
x = 826;
y = 111;
},
{
segmentType = line;
smooth = 0;
x = 863;
y = 75;
},
{
segmentType = line;
smooth = 0;
x = 863;
y = 639;
},
{
segmentType = line;
smooth = 0;
x = 831;
y = 528;
},
{
segmentType = line;
smooth = 0;
x = 1333;
y = 1463;
},
{
segmentType = line;
smooth = 0;
x = 1264;
y = 1404;
},
{
segmentType = line;
smooth = 0;
x = 1441;
y = 1434;
},
{
segmentType = line;
smooth = 0;
x = 1441;
y = 1522;
},
{
segmentType = line;
smooth = 0;
x = 996;
y = 1522;
},
{
segmentType = line;
smooth = 0;
x = 996;
y = 1434;
},
{
segmentType = line;
smooth = 0;
x = 1192;
y = 1408;
},
{
segmentType = line;
smooth = 0;
x = 1199;
y = 1473;
},
{
segmentType = line;
smooth = 0;
x = 870;
y = 831;
},
{
segmentType = line;
smooth = 0;
x = 786;
y = 655;
},
{
segmentType = line;
smooth = 0;
x = 797;
y = 655;
},
{
segmentType = line;
smooth = 0;
x = 718;
y = 831;
},
{
segmentType = line;
smooth = 0;
x = 377;
y = 1470;
},
{
segmentType = line;
smooth = 0;
x = 381;
y = 1408;
},
{
segmentType = line;
smooth = 0;
x = 581;
y = 1434;
},
{
segmentType = line;
smooth = 0;
x = 581;
y = 1522;
},
{
segmentType = line;
smooth = 0;
x = 90;
y = 1522;
},
{
segmentType = line;
smooth = 0;
x = 90;
y = 1434;
},
{
segmentType = line;
smooth = 0;
x = 266;
y = 1401;
},
{
segmentType = line;
smooth = 0;
x = 182;
y = 1474;
},
{
segmentType = line;
smooth = 0;
x = 725;
y = 526;
},
{
segmentType = line;
smooth = 0;
x = 691;
y = 639;
},
{
segmentType = line;
smooth = 0;
x = 691;
y = 74;
},
{
segmentType = line;
smooth = 0;
x = 729;
y = 111;
},
{
segmentType = line;
smooth = 0;
x = 463;
y = 88;
}
);
}
);
lib = {
};
name = Y;
unicodes = (
);
width = 1415;
};
};
};
},
{
glyphname = Z;
layers = (
{
anchors = (
{
name = bottom;
position = "{222, 0}";
},
{
name = top;
position = "{289, 568}";
}
);
background = {
anchors = (
{
name = btm;
position = "{201, 0}";
},
{
name = top;
position = "{300, 568}";
}
);
paths = (
{
closed = 1;
nodes = (
"412 0 LINE",
"426 46 OFFCURVE",
"439 111 OFFCURVE",
"444 159 CURVE",
"411 162 LINE",
"372 69 LINE SMOOTH",
"367 58 OFFCURVE",
"361 52 OFFCURVE",
"349 48 CURVE SMOOTH",
"329 41 OFFCURVE",
"298 39 OFFCURVE",
"263 39 CURVE SMOOTH",
"69 39 LINE",
"82 24 LINE",
"489 540 LINE",
"477 568 LINE",
"122 568 LINE",
"109 519 OFFCURVE",
"98 463 OFFCURVE",
"95 414 CURVE",
"129 414 LINE",
"163 501 LINE SMOOTH",
"167 512 OFFCURVE",
"174 518 OFFCURVE",
"185 522 CURVE SMOOTH",
"205 529 OFFCURVE",
"236 530 OFFCURVE",
"271 530 CURVE SMOOTH",
"428 530 LINE",
"418 544 LINE",
"11 29 LINE",
"24 0 LINE"
);
}
);
};
layerId = "DAAEA780-4710-4479-B303-5C05B40621B2";
paths = (
{
closed = 1;
nodes = (
"408 0 LINE",
"419 47 OFFCURVE",
"428 119 OFFCURVE",
"432 166 CURVE",
"396 169 LINE",
"361 73 LINE SMOOTH",
"356 59 OFFCURVE",
"352 53 OFFCURVE",
"338 48 CURVE SMOOTH",
"315 40 OFFCURVE",
"276 39 OFFCURVE",
"254 39 CURVE SMOOTH",
"83 39 LINE",
"96 24 LINE",
"473 540 LINE",
"460 568 LINE",
"117 568 LINE",
"107 519 OFFCURVE",
"100 462 OFFCURVE",
"98 414 CURVE",
"135 414 LINE",
"163 499 LINE SMOOTH",
"166 507 OFFCURVE",
"169 515 OFFCURVE",
"185 521 CURVE SMOOTH",
"210 530 OFFCURVE",
"257 530 OFFCURVE",
"269 530 CURVE SMOOTH",
"411 530 LINE",
"401 544 LINE",
"25 29 LINE",
"38 0 LINE"
);
}
);
width = 488;
},
{
anchors = (
{
name = bottom;
position = "{236, 0}";
},
{
name = top;
position = "{298, 573}";
}
);
background = {
anchors = (
{
name = btm;
position = "{239, 0}";
},
{
name = top;
position = "{339, 568}";
}
);
paths = (
{
closed = 1;
nodes = (
"443 0 LINE",
"460 55 OFFCURVE",
"476 137 OFFCURVE",
"480 188 CURVE",
"407 198 LINE",
"357 92 LINE SMOOTH",
"352 79 OFFCURVE",
"344 72 OFFCURVE",
"333 68 CURVE SMOOTH",
"320 63 OFFCURVE",
"296 60 OFFCURVE",
"266 60 CURVE SMOOTH",
"133 60 LINE",
"156 40 LINE",
"524 523 LINE",
"511 569 LINE",
"114 569 LINE",
"96 511 OFFCURVE",
"83 443 OFFCURVE",
"79 381 CURVE",
"155 381 LINE",
"200 483 LINE SMOOTH",
"207 495 OFFCURVE",
"214 502 OFFCURVE",
"225 506 CURVE SMOOTH",
"239 511 OFFCURVE",
"262 514 OFFCURVE",
"292 514 CURVE SMOOTH",
"387 514 LINE",
"372 528 LINE",
"0 45 LINE",
"20 0 LINE"
);
}
);
};
layerId = "925CB40E-795E-477B-BAE7-1EE7D58841B5";
paths = (
{
closed = 1;
nodes = (
"441 0 LINE",
"456 58 OFFCURVE",
"468 140 OFFCURVE",
"470 194 CURVE",
"402 203 LINE",
"356 95 LINE SMOOTH",
"348 75 OFFCURVE",
"340 68 OFFCURVE",
"328 65 CURVE SMOOTH",
"309 60 OFFCURVE",
"293 59 OFFCURVE",
"263 59 CURVE SMOOTH",
"141 59 LINE",
"160 40 LINE",
"505 527 LINE",
"491 573 LINE",
"96 573 LINE",
"84 513 OFFCURVE",
"74 445 OFFCURVE",
"70 381 CURVE",
"142 381 LINE",
"184 486 LINE SMOOTH",
"190 501 OFFCURVE",
"196 506 OFFCURVE",
"207 510 CURVE SMOOTH",
"224 516 OFFCURVE",
"242 516 OFFCURVE",
"275 516 CURVE SMOOTH",
"368 516 LINE",
"357 532 LINE",
"9 45 LINE",
"29 0 LINE"
);
}
);
width = 507;
}
);
leftKerningGroup = Z;
rightKerningGroup = Z;
unicode = 005A;
userData = {
com.typemytype.robofont.layerData = {
background = {
anchors = (
{
name = btm;
x = 683;
y = -170;
},
{
name = top;
x = 706;
y = 1700;
}
);
components = (
);
contours = (
{
points = (
{
segmentType = line;
smooth = 0;
x = 135;
y = 0;
},
{
segmentType = line;
smooth = 0;
x = 1201;
y = 0;
},
{
segmentType = line;
smooth = 0;
x = 1249;
y = 433;
},
{
segmentType = line;
smooth = 0;
x = 1151;
y = 454;
},
{
segmentType = line;
smooth = 0;
x = 1049;
y = 132;
},
{
segmentType = line;
smooth = 0;
x = 291;
y = 96;
},
{
segmentType = line;
smooth = 0;
x = 424;
y = 256;
},
{
segmentType = line;
smooth = 0;
x = 1226;
y = 1452;
},
{
segmentType = line;
smooth = 0;
x = 1182;
y = 1528;
},
{
segmentType = line;
smooth = 0;
x = 217;
y = 1528;
},
{
segmentType = line;
smooth = 0;
x = 174;
y = 1157;
},
{
segmentType = line;
smooth = 0;
x = 268;
y = 1146;
},
{
segmentType = line;
smooth = 0;
x = 369;
y = 1413;
},
{
segmentType = line;
smooth = 0;
x = 1019;
y = 1434;
},
{
segmentType = line;
smooth = 0;
x = 903;
y = 1286;
},
{
segmentType = line;
smooth = 0;
x = 87;
y = 80;
}
);
}
);
lib = {
};
name = Z;
unicodes = (
);
width = 1307;
};
};
};
},
{
glyphname = AE;
layers = (
{
anchors = (
{
name = bottom;
position = "{347, 0}";
},
{
name = top;
position = "{437, 568}";
}
);
background = {
anchors = (
{
name = btm;
position = "{351, 0}";
},
{
name = top;
position = "{447, 568}";
}
);
paths = (
{
closed = 1;
nodes = (
"658 0 LINE",
"673 47 OFFCURVE",
"685 96 OFFCURVE",
"691 140 CURVE",
"660 144 LINE",
"625 69 LINE SMOOTH",
"619 59 OFFCURVE",
"614 52 OFFCURVE",
"601 48 CURVE SMOOTH",
"582 41 OFFCURVE",
"550 39 OFFCURVE",
"515 39 CURVE SMOOTH",
"392 39 LINE",
"421 272 LINE",
"604 268 LINE",
"610 317 LINE",
"425 311 LINE",
"452 532 LINE",
"553 532 LINE SMOOTH",
"587 532 OFFCURVE",
"616 530 OFFCURVE",
"633 524 CURVE SMOOTH",
"645 519 OFFCURVE",
"650 513 OFFCURVE",
"652 503 CURVE SMOOTH",
"658 433 LINE",
"691 433 LINE",
"701 482 OFFCURVE",
"706 524 OFFCURVE",
"709 568 CURVE",
"397 568 LINE",
"335 66 LINE SMOOTH",
"334 53 OFFCURVE",
"327 45 OFFCURVE",
"312 43 CURVE SMOOTH",
"253 32 LINE",
"249 0 LINE"
);
},
{
closed = 1;
nodes = (
"143 0 LINE",
"147 32 LINE",
"76 43 LINE",
"343 528 LINE",
"399 528 LINE",
"422 568 LINE",
"315 568 LINE",
"34 60 LINE SMOOTH",
"28 50 OFFCURVE",
"21 44 OFFCURVE",
"9 42 CURVE SMOOTH",
"-38 32 LINE",
"-42 0 LINE"
);
},
{
closed = 1;
nodes = (
"381 212 LINE",
"386 251 LINE",
"161 251 LINE",
"144 212 LINE"
);
},
{
closed = 1;
nodes = (
"336 568 LINE",
"200 568 LINE",
"196 536 LINE",
"300 518 LINE"
);
}
);
};
layerId = "DAAEA780-4710-4479-B303-5C05B40621B2";
paths = (
{
closed = 1;
nodes = (
"638 0 LINE",
"650 47 OFFCURVE",
"660 98 OFFCURVE",
"663 140 CURVE",
"632 144 LINE",
"600 69 LINE SMOOTH",
"597 62 OFFCURVE",
"592 53 OFFCURVE",
"578 48 CURVE SMOOTH",
"560 42 OFFCURVE",
"528 39 OFFCURVE",
"493 39 CURVE SMOOTH",
"392 39 LINE",
"421 272 LINE",
"574 268 LINE",
"581 284 OFFCURVE",
"583 301 OFFCURVE",
"580 317 CURVE",
"426 311 LINE",
"453 532 LINE",
"534 532 LINE SMOOTH",
"561 532 OFFCURVE",
"596 531 OFFCURVE",
"614 524 CURVE SMOOTH",
"626 519 OFFCURVE",
"630 513 OFFCURVE",
"631 503 CURVE SMOOTH",
"636 433 LINE",
"669 433 LINE",
"680 482 OFFCURVE",
"688 523 OFFCURVE",
"692 568 CURVE",
"397 568 LINE",
"336 75 LINE SMOOTH",
"333 53 OFFCURVE",
"329 46 OFFCURVE",
"309 42 CURVE SMOOTH",
"258 32 LINE",
"254 0 LINE"
);
},
{
closed = 1;
nodes = (
"155 0 LINE",
"159 32 LINE",
"90 43 LINE",
"359 528 LINE",
"399 528 LINE",
"422 568 LINE",
"331 568 LINE",
"47 60 LINE SMOOTH",
"41 50 OFFCURVE",
"34 45 OFFCURVE",
"22 42 CURVE SMOOTH",
"-22 32 LINE",
"-26 0 LINE"
);
},
{
closed = 1;
nodes = (
"381 212 LINE",
"386 251 LINE",
"174 251 LINE",
"157 212 LINE"
);
},
{
closed = 1;
nodes = (
"352 568 LINE",
"216 568 LINE",
"212 536 LINE",
"316 518 LINE"
);
}
);
width = 713;
},
{
anchors = (
{
name = bottom;
position = "{386, 0}";
},
{
name = top;
position = "{485, 573}";
}
);
background = {
anchors = (
{
name = btm;
position = "{376, 0}";
},
{
name = top;
position = "{472, 568}";
}
);
paths = (
{
closed = 1;
nodes = (
"715 0 LINE",
"731 59 OFFCURVE",
"742 112 OFFCURVE",
"749 171 CURVE",
"686 181 LINE",
"643 91 LINE SMOOTH",
"638 78 OFFCURVE",
"633 72 OFFCURVE",
"621 67 CURVE SMOOTH",
"608 62 OFFCURVE",
"578 59 OFFCURVE",
"554 59 CURVE SMOOTH",
"477 59 LINE",
"501 253 LINE",
"658 249 LINE",
"667 323 LINE",
"509 317 LINE",
"533 512 LINE",
"595 512 LINE SMOOTH",
"619 512 OFFCURVE",
"643 508 OFFCURVE",
"654 504 CURVE SMOOTH",
"664 499 OFFCURVE",
"671 493 OFFCURVE",
"673 480 CURVE SMOOTH",
"684 413 LINE",
"749 413 LINE",
"759 466 OFFCURVE",
"766 517 OFFCURVE",
"766 568 CURVE",
"409 568 LINE",
"349 83 LINE SMOOTH",
"348 72 OFFCURVE",
"341 65 OFFCURVE",
"330 63 CURVE SMOOTH",
"272 52 LINE",
"265 0 LINE"
);
},
{
closed = 1;
nodes = (
"190 0 LINE",
"197 52 LINE",
"126 63 LINE",
"366 506 LINE",
"428 506 LINE",
"438 568 LINE",
"323 568 LINE",
"52 81 LINE SMOOTH",
"47 72 OFFCURVE",
"40 67 OFFCURVE",
"31 64 CURVE SMOOTH",
"-25 52 LINE",
"-32 0 LINE"
);
},
{
closed = 1;
nodes = (
"413 199 LINE",
"420 261 LINE",
"188 261 LINE",
"162 199 LINE"
);
},
{
closed = 1;
nodes = (
"341 568 LINE",
"200 568 LINE",
"193 513 LINE",
"304 495 LINE"
);
}
);
};
layerId = "925CB40E-795E-477B-BAE7-1EE7D58841B5";
paths = (
{
closed = 1;
nodes = (
"706 0 LINE",
"722 59 OFFCURVE",
"731 117 OFFCURVE",
"735 172 CURVE",
"671 178 LINE",
"637 99 LINE SMOOTH",
"630 82 OFFCURVE",
"624 72 OFFCURVE",
"609 67 CURVE SMOOTH",
"592 61 OFFCURVE",
"565 59 OFFCURVE",
"536 59 CURVE SMOOTH",
"481 59 LINE",
"505 252 LINE",
"646 247 LINE",
"655 270 OFFCURVE",
"658 298 OFFCURVE",
"656 324 CURVE",
"513 317 LINE",
"539 517 LINE",
"592 517 LINE SMOOTH",
"610 517 OFFCURVE",
"633 517 OFFCURVE",
"649 511 CURVE SMOOTH",
"665 505 OFFCURVE",
"667 498 OFFCURVE",
"669 481 CURVE SMOOTH",
"676 418 LINE",
"740 418 LINE",
"752 471 OFFCURVE",
"759 525 OFFCURVE",
"762 573 CURVE",
"410 573 LINE",
"349 85 LINE SMOOTH",
"347 69 OFFCURVE",
"339 64 OFFCURVE",
"325 61 CURVE SMOOTH",
"278 52 LINE",
"272 0 LINE"
);
},
{
closed = 1;
nodes = (
"195 0 LINE",
"201 52 LINE",
"136 64 LINE",
"379 511 LINE",
"429 511 LINE",
"439 573 LINE",
"330 573 LINE",
"56 82 LINE SMOOTH",
"51 73 OFFCURVE",
"44 67 OFFCURVE",
"35 65 CURVE SMOOTH",
"-19 52 LINE",
"-25 0 LINE"
);
},
{
closed = 1;
nodes = (
"413 199 LINE",
"420 261 LINE",
"195 261 LINE",
"169 199 LINE"
);
},
{
closed = 1;
nodes = (
"351 573 LINE",
"208 573 LINE",
"201 518 LINE",
"314 500 LINE"
);
}
);
width = 779;
}
);
leftKerningGroup = AE;
rightKerningGroup = E;
rightMetricsKey = E;
unicode = 00C6;
userData = {
com.typemytype.robofont.layerData = {
background = {
anchors = (
{
name = btm;
x = 889;
y = -170;
},
{
name = top;
x = 960;
y = 1700;
}
);
components = (
);
contours = (
{
points = (
{
segmentType = line;
smooth = 0;
x = -185;
y = 0;
},
{
segmentType = line;
smooth = 0;
x = 284;
y = 0;
},
{
segmentType = line;
smooth = 0;
x = 284;
y = 87;
},
{
segmentType = line;
smooth = 0;
x = 91;
y = 111;
},
{
segmentType = line;
smooth = 0;
x = 106;
y = 63;
},
{
segmentType = line;
smooth = 0;
x = 566;
y = 1161;
},
{
segmentType = line;
smooth = 0;
x = 679;
y = 1424;
},
{
segmentType = line;
smooth = 0;
x = 833;
y = 1424;
},
{
segmentType = line;
smooth = 0;
x = 888;
y = 1522;
},
{
segmentType = line;
smooth = 0;
x = 602;
y = 1522;
},
{
segmentType = line;
smooth = 0;
x = -53;
y = 67;
},
{
segmentType = line;
smooth = 0;
x = 7;
y = 112;
},
{
segmentType = line;
smooth = 0;
x = -185;
y = 87;
}
);
},
{
points = (
{
segmentType = line;
smooth = 0;
x = 225;
y = 450;
},
{
segmentType = line;
smooth = 0;
x = 852;
y = 450;
},
{
segmentType = line;
smooth = 0;
x = 849;
y = 557;
},
{
segmentType = line;
smooth = 0;
x = 275;
y = 557;
}
);
},
{
points = (
{
segmentType = line;
smooth = 0;
x = 276;
y = 1437;
},
{
segmentType = line;
smooth = 0;
x = 558;
y = 1415;
},
{
segmentType = line;
smooth = 0;
x = 596;
y = 1469;
},
{
segmentType = line;
smooth = 0;
x = 602;
y = 1522;
},
{
segmentType = line;
smooth = 0;
x = 276;
y = 1522;
}
);
},
{
points = (
{
segmentType = line;
smooth = 0;
x = 640;
y = 0;
},
{
segmentType = line;
smooth = 0;
x = 1755;
y = 0;
},
{
segmentType = line;
smooth = 0;
x = 1832;
y = 351;
},
{
segmentType = line;
smooth = 0;
x = 1735;
y = 377;
},
{
segmentType = line;
smooth = 0;
x = 1616;
y = 121;
},
{
segmentType = line;
smooth = 0;
x = 989;
y = 101;
},
{
segmentType = line;
smooth = 0;
x = 989;
y = 736;
},
{
segmentType = line;
smooth = 0;
x = 1360;
y = 731;
},
{
segmentType = line;
smooth = 0;
x = 1385;
y = 555;
},
{
segmentType = line;
smooth = 0;
x = 1488;
y = 555;
},
{
segmentType = line;
smooth = 0;
x = 1488;
y = 1007;
},
{
segmentType = line;
smooth = 0;
x = 1385;
y = 1007;
},
{
segmentType = line;
smooth = 0;
x = 1360;
y = 838;
},
{
segmentType = line;
smooth = 0;
x = 989;
y = 832;
},
{
segmentType = line;
smooth = 0;
x = 989;
y = 1430;
},
{
segmentType = line;
smooth = 0;
x = 1532;
y = 1421;
},
{
segmentType = line;
smooth = 0;
x = 1594;
y = 1214;
},
{
segmentType = line;
smooth = 0;
x = 1691;
y = 1214;
},
{
segmentType = line;
smooth = 0;
x = 1656;
y = 1522;
},
{
segmentType = line;
smooth = 0;
x = 884;
y = 1522;
},
{
segmentType = line;
smooth = 0;
x = 822;
y = 1457;
},
{
segmentType = line;
smooth = 0;
x = 822;
y = 60;
},
{
segmentType = line;
smooth = 0;
x = 871;
y = 111;
},
{
segmentType = line;
smooth = 0;
x = 640;
y = 87;
}
);
}
);
lib = {
};
name = AE;
unicodes = (
);
width = 2027;
};
};
};
},
{
glyphname = Oslash;
layers = (
{
anchors = (
{
name = bottom;
position = "{241, 0}";
},
{
name = top;
position = "{321, 568}";
}
);
background = {
anchors = (
{
name = btm;
position = "{241, 0}";
},
{
name = top;
position = "{321, 568}";
}
);
paths = (
{
closed = 1;
nodes = (
"393 -11 OFFCURVE",
"515 148 OFFCURVE",
"515 345 CURVE SMOOTH",
"515 502 OFFCURVE",
"442 579 OFFCURVE",
"328 579 CURVE SMOOTH",
"171 579 OFFCURVE",
"47 422 OFFCURVE",
"47 221 CURVE SMOOTH",
"47 79 OFFCURVE",
"111 -11 OFFCURVE",
"234 -11 CURVE SMOOTH"
);
},
{
closed = 1;
nodes = (
"163 31 OFFCURVE",
"119 112 OFFCURVE",
"119 227 CURVE SMOOTH",
"119 394 OFFCURVE",
"197 540 OFFCURVE",
"311 539 CURVE SMOOTH",
"398 537 OFFCURVE",
"443 459 OFFCURVE",
"443 339 CURVE SMOOTH",
"443 168 OFFCURVE",
"363 28 OFFCURVE",
"252 29 CURVE SMOOTH"
);
}
);
};
layerId = "DAAEA780-4710-4479-B303-5C05B40621B2";
paths = (
{
closed = 1;
nodes = (
"134 34 LINE",
"143 46 LINE",
"453 501 LINE",
"464 509 LINE",
"524 592 LINE",
"491 616 LINE",
"431 533 LINE",
"422 521 LINE",
"112 66 LINE",
"101 58 LINE",
"38 -29 LINE",
"71 -53 LINE"
);
},
{
closed = 1;
nodes = (
"393 -11 OFFCURVE",
"515 148 OFFCURVE",
"515 345 CURVE SMOOTH",
"515 502 OFFCURVE",
"442 579 OFFCURVE",
"328 579 CURVE SMOOTH",
"171 579 OFFCURVE",
"47 422 OFFCURVE",
"47 221 CURVE SMOOTH",
"47 79 OFFCURVE",
"113 -11 OFFCURVE",
"234 -11 CURVE SMOOTH"
);
},
{
closed = 1;
nodes = (
"160 31 OFFCURVE",
"118 102 OFFCURVE",
"118 224 CURVE SMOOTH",
"118 394 OFFCURVE",
"197 542 OFFCURVE",
"311 539 CURVE SMOOTH",
"401 537 OFFCURVE",
"444 469 OFFCURVE",
"444 342 CURVE SMOOTH",
"444 168 OFFCURVE",
"363 27 OFFCURVE",
"252 29 CURVE SMOOTH"
);
}
);
width = 542;
},
{
anchors = (
{
name = bottom;
position = "{258, 0}";
},
{
name = top;
position = "{342, 573}";
}
);
background = {
anchors = (
{
name = btm;
position = "{258, 0}";
},
{
name = top;
position = "{342, 573}";
}
);
paths = (
{
closed = 1;
nodes = (
"446 -11 OFFCURVE",
"560 164 OFFCURVE",
"560 350 CURVE SMOOTH",
"560 501 OFFCURVE",
"489 584 OFFCURVE",
"351 584 CURVE SMOOTH",
"154 584 OFFCURVE",
"40 409 OFFCURVE",
"40 223 CURVE SMOOTH",
"40 72 OFFCURVE",
"111 -11 OFFCURVE",
"249 -11 CURVE SMOOTH"
);
},
{
closed = 1;
nodes = (
"215 50 OFFCURVE",
"188 113 OFFCURVE",
"188 222 CURVE SMOOTH",
"188 362 OFFCURVE",
"236 523 OFFCURVE",
"329 523 CURVE SMOOTH",
"385 523 OFFCURVE",
"412 459 OFFCURVE",
"412 351 CURVE SMOOTH",
"412 211 OFFCURVE",
"364 50 OFFCURVE",
"271 50 CURVE SMOOTH"
);
}
);
};
layerId = "925CB40E-795E-477B-BAE7-1EE7D58841B5";
paths = (
{
closed = 1;
nodes = (
"161 20 LINE",
"170 42 LINE",
"473 494 LINE",
"496 508 LINE",
"558 589 LINE",
"506 631 LINE",
"441 542 LINE",
"431 521 LINE",
"128 68 LINE",
"105 55 LINE",
"42 -27 LINE",
"95 -68 LINE"
);
},
{
closed = 1;
nodes = (
"446 -13 OFFCURVE",
"560 166 OFFCURVE",
"560 352 CURVE SMOOTH",
"560 503 OFFCURVE",
"488 586 OFFCURVE",
"351 586 CURVE SMOOTH",
"154 586 OFFCURVE",
"40 407 OFFCURVE",
"40 221 CURVE SMOOTH",
"40 70 OFFCURVE",
"111 -13 OFFCURVE",
"249 -13 CURVE SMOOTH"
);
},
{
closed = 1;
nodes = (
"205 48 OFFCURVE",
"186 101 OFFCURVE",
"186 220 CURVE SMOOTH",
"186 360 OFFCURVE",
"236 525 OFFCURVE",
"329 525 CURVE SMOOTH",
"395 525 OFFCURVE",
"414 471 OFFCURVE",
"414 353 CURVE SMOOTH",
"414 213 OFFCURVE",
"364 48 OFFCURVE",
"271 48 CURVE SMOOTH"
);
}
);
width = 581;
}
);
leftKerningGroup = O;
leftMetricsKey = O;
rightKerningGroup = O;
rightMetricsKey = O;
unicode = 00D8;
userData = {
com.typemytype.robofont.guides = (
{
angle = 0;
isGlobal = 0;
x = 255;
y = 779;
}
);
com.typemytype.robofont.layerData = {
background = {
anchors = (
);
components = (
);
contours = (
{
points = (
{
segmentType = line;
smooth = 0;
x = 404;
y = -203;
},
{
segmentType = line;
smooth = 0;
x = 509;
y = 45;
},
{
segmentType = line;
smooth = 0;
x = 527;
y = 86;
},
{
segmentType = line;
smooth = 0;
x = 1021;
y = 1397;
},
{
segmentType = line;
smooth = 0;
x = 1053;
y = 1466;
},
{
segmentType = line;
smooth = 0;
x = 1139;
y = 1678;
},
{
segmentType = line;
smooth = 0;
x = 1060;
y = 1707;
},
{
segmentType = line;
smooth = 0;
x = 977;
y = 1493;
},
{
segmentType = line;
smooth = 0;
x = 958;
y = 1459;
},
{
segmentType = line;
smooth = 0;
x = 446;
y = 95;
},
{
segmentType = line;
smooth = 0;
x = 422;
y = 49;
},
{
segmentType = line;
smooth = 0;
x = 325;
y = -177;
}
);
},
{
points = (
{
segmentType = curve;
smooth = 1;
x = 723;
y = -23;
},
{
smooth = 0;
x = 1101;
y = -16;
},
{
smooth = 0;
x = 1399;
y = 292;
},
{
segmentType = curve;
smooth = 1;
x = 1399;
y = 775;
},
{
smooth = 0;
x = 1399;
y = 1234;
},
{
smooth = 0;
x = 1173;
y = 1538;
},
{
segmentType = curve;
smooth = 1;
x = 758;
y = 1538;
},
{
smooth = 0;
x = 378;
y = 1538;
},
{
smooth = 0;
x = 76;
y = 1232;
},
{
segmentType = curve;
smooth = 1;
x = 76;
y = 749;
},
{
smooth = 0;
x = 76;
y = 289;
},
{
smooth = 0;
x = 308;
y = -30;
}
);
},
{
points = (
{
segmentType = curve;
smooth = 1;
x = 741;
y = 1442;
},
{
smooth = 0;
x = 1041;
y = 1442;
},
{
smooth = 0;
x = 1210;
y = 1167;
},
{
segmentType = curve;
smooth = 1;
x = 1210;
y = 774;
},
{
smooth = 0;
x = 1210;
y = 310;
},
{
smooth = 0;
x = 1016;
y = 74;
},
{
segmentType = curve;
smooth = 1;
x = 735;
y = 74;
},
{
smooth = 0;
x = 433;
y = 74;
},
{
smooth = 0;
x = 263;
y = 358;
},
{
segmentType = curve;
smooth = 1;
x = 263;
y = 750;
},
{
smooth = 0;
x = 263;
y = 1214;
},
{
smooth = 0;
x = 457;
y = 1442;
}
);
}
);
lib = {
};
name = Oslash;
unicodes = (
);
width = 1563;
};
};
};
},
{
glyphname = Thorn;
layers = (
{
anchors = (
{
name = bottom;
position = "{123, 0}";
},
{
name = top;
position = "{193, 568}";
}
);
background = {
paths = (
{
closed = 1;
nodes = (
"235 0 LINE",
"239 32 LINE",
"178 43 LINE SMOOTH",
"166 45 OFFCURVE",
"159 53 OFFCURVE",
"161 66 CURVE SMOOTH",
"215 501 LINE SMOOTH",
"217 514 OFFCURVE",
"224 522 OFFCURVE",
"237 524 CURVE SMOOTH",
"301 536 LINE",
"305 568 LINE",
"91 568 LINE",
"87 536 LINE",
"137 524 LINE SMOOTH",
"149 521 OFFCURVE",
"155 513 OFFCURVE",
"154 501 CURVE SMOOTH",
"100 66 LINE SMOOTH",
"98 53 OFFCURVE",
"92 46 OFFCURVE",
"78 43 CURVE SMOOTH",
"25 32 LINE",
"21 0 LINE"
);
},
{
closed = 1;
nodes = (
"386 122 OFFCURVE",
"464 174 OFFCURVE",
"478 292 CURVE SMOOTH",
"491 398 OFFCURVE",
"433 447 OFFCURVE",
"316 447 CURVE SMOOTH",
"275 447 OFFCURVE",
"238 444 OFFCURVE",
"193 439 CURVE",
"189 403 LINE",
"218 406 OFFCURVE",
"254 410 OFFCURVE",
"290 410 CURVE SMOOTH",
"389 410 OFFCURVE",
"420 370 OFFCURVE",
"410 289 CURVE SMOOTH",
"398 188 OFFCURVE",
"341 156 OFFCURVE",
"264 156 CURVE SMOOTH",
"229 156 OFFCURVE",
"198 159 OFFCURVE",
"159 163 CURVE",
"155 126 LINE",
"186 124 OFFCURVE",
"215 122 OFFCURVE",
"262 122 CURVE SMOOTH"
);
}
);
};
layerId = "DAAEA780-4710-4479-B303-5C05B40621B2";
paths = (
{
closed = 1;
nodes = (
"227 0 LINE",
"231 32 LINE",
"179 42 LINE SMOOTH",
"165 45 OFFCURVE",
"160 51 OFFCURVE",
"162 68 CURVE SMOOTH",
"215 493 LINE SMOOTH",
"218 515 OFFCURVE",
"222 522 OFFCURVE",
"242 526 CURVE SMOOTH",
"293 536 LINE",
"297 568 LINE",
"89 568 LINE",
"85 536 LINE",
"137 526 LINE SMOOTH",
"151 523 OFFCURVE",
"156 517 OFFCURVE",
"154 500 CURVE SMOOTH",
"101 75 LINE SMOOTH",
"98 53 OFFCURVE",
"94 46 OFFCURVE",
"74 42 CURVE SMOOTH",
"23 32 LINE",
"19 0 LINE"
);
},
{
closed = 1;
nodes = (
"365 122 OFFCURVE",
"456 178 OFFCURVE",
"456 316 CURVE SMOOTH",
"456 411 OFFCURVE",
"389 447 OFFCURVE",
"299 447 CURVE SMOOTH",
"261 447 OFFCURVE",
"229 445 OFFCURVE",
"193 441 CURVE",
"189 405 LINE",
"217 409 OFFCURVE",
"249 410 OFFCURVE",
"282 410 CURVE SMOOTH",
"358 410 OFFCURVE",
"386 370 OFFCURVE",
"386 308 CURVE SMOOTH",
"386 204 OFFCURVE",
"329 158 OFFCURVE",
"240 158 CURVE SMOOTH",
"208 158 OFFCURVE",
"188 159 OFFCURVE",
"159 162 CURVE",
"155 125 LINE",
"181 123 OFFCURVE",
"205 122 OFFCURVE",
"235 122 CURVE SMOOTH"
);
}
);
width = 475;
},
{
anchors = (
{
name = bottom;
position = "{151, 0}";
},
{
name = top;
position = "{223, 573}";
}
);
background = {
paths = (
{
closed = 1;
nodes = (
"297 0 LINE",
"304 52 LINE",
"245 63 LINE SMOOTH",
"234 65 OFFCURVE",
"229 72 OFFCURVE",
"230 84 CURVE SMOOTH",
"279 481 LINE SMOOTH",
"280 493 OFFCURVE",
"288 500 OFFCURVE",
"299 502 CURVE SMOOTH",
"360 513 LINE",
"367 568 LINE",
"87 568 LINE",
"80 513 LINE",
"129 502 LINE SMOOTH",
"140 500 OFFCURVE",
"144 493 OFFCURVE",
"143 481 CURVE SMOOTH",
"94 83 LINE SMOOTH",
"93 72 OFFCURVE",
"86 65 OFFCURVE",
"75 63 CURVE SMOOTH",
"24 52 LINE",
"17 0 LINE"
);
},
{
closed = 1;
nodes = (
"438 118 OFFCURVE",
"513 173 OFFCURVE",
"528 294 CURVE SMOOTH",
"541 400 OFFCURVE",
"492 448 OFFCURVE",
"381 448 CURVE SMOOTH",
"343 448 OFFCURVE",
"299 443 OFFCURVE",
"258 439 CURVE",
"252 386 LINE",
"276 391 OFFCURVE",
"298 392 OFFCURVE",
"318 392 CURVE SMOOTH",
"376 392 OFFCURVE",
"390 345 OFFCURVE",
"384 289 CURVE SMOOTH",
"375 205 OFFCURVE",
"340 170 OFFCURVE",
"293 170 CURVE SMOOTH",
"275 170 OFFCURVE",
"252 172 OFFCURVE",
"229 176 CURVE",
"222 123 LINE",
"251 120 OFFCURVE",
"277 118 OFFCURVE",
"313 118 CURVE SMOOTH"
);
}
);
};
layerId = "925CB40E-795E-477B-BAE7-1EE7D58841B5";
paths = (
{
closed = 1;
nodes = (
"289 0 LINE",
"295 52 LINE",
"251 61 LINE SMOOTH",
"235 64 OFFCURVE",
"228 68 OFFCURVE",
"230 85 CURVE SMOOTH",
"280 488 LINE SMOOTH",
"282 504 OFFCURVE",
"288 509 OFFCURVE",
"304 512 CURVE SMOOTH",
"351 521 LINE",
"357 573 LINE",
"85 573 LINE",
"79 521 LINE",
"123 512 LINE SMOOTH",
"139 509 OFFCURVE",
"146 505 OFFCURVE",
"144 488 CURVE SMOOTH",
"94 85 LINE SMOOTH",
"92 69 OFFCURVE",
"84 64 OFFCURVE",
"70 61 CURVE SMOOTH",
"23 52 LINE",
"17 0 LINE"
);
},
{
closed = 1;
nodes = (
"433 124 OFFCURVE",
"512 190 OFFCURVE",
"512 312 CURVE SMOOTH",
"512 401 OFFCURVE",
"458 451 OFFCURVE",
"339 451 CURVE SMOOTH",
"313 451 OFFCURVE",
"288 450 OFFCURVE",
"258 448 CURVE",
"252 396 LINE",
"271 397 OFFCURVE",
"285 397 OFFCURVE",
"301 397 CURVE SMOOTH",
"349 397 OFFCURVE",
"372 373 OFFCURVE",
"372 311 CURVE SMOOTH",
"372 236 OFFCURVE",
"339 175 OFFCURVE",
"278 175 CURVE SMOOTH",
"262 175 OFFCURVE",
"247 177 OFFCURVE",
"229 180 CURVE",
"222 128 LINE",
"247 126 OFFCURVE",
"278 124 OFFCURVE",
"300 124 CURVE SMOOTH"
);
}
);
width = 527;
}
);
leftKerningGroup = H;
unicode = 00DE;
userData = {
com.typemytype.robofont.layerData = {
background = {
anchors = (
);
components = (
);
contours = (
{
points = (
{
segmentType = line;
smooth = 0;
x = 103;
y = 0;
},
{
segmentType = line;
smooth = 0;
x = 665;
y = 0;
},
{
segmentType = line;
smooth = 0;
x = 665;
y = 87;
},
{
segmentType = line;
smooth = 0;
x = 416;
y = 109;
},
{
segmentType = line;
smooth = 0;
x = 443;
y = 56;
},
{
segmentType = line;
smooth = 0;
x = 443;
y = 344;
},
{
smooth = 0;
x = 507;
y = 337;
},
{
smooth = 0;
x = 584;
y = 336;
},
{
segmentType = curve;
smooth = 1;
x = 700;
y = 336;
},
{
smooth = 0;
x = 1031;
y = 336;
},
{
smooth = 0;
x = 1236;
y = 478;
},
{
segmentType = curve;
smooth = 1;
x = 1236;
y = 785;
},
{
smooth = 0;
x = 1236;
y = 1053;
},
{
smooth = 0;
x = 1061;
y = 1186;
},
{
segmentType = curve;
smooth = 1;
x = 769;
y = 1186;
},
{
smooth = 0;
x = 644;
y = 1186;
},
{
smooth = 0;
x = 519;
y = 1172;
},
{
segmentType = curve;
smooth = 0;
x = 410;
y = 1164;
},
{
segmentType = line;
smooth = 0;
x = 443;
y = 1113;
},
{
segmentType = line;
smooth = 0;
x = 443;
y = 1449;
},
{
segmentType = line;
smooth = 0;
x = 413;
y = 1409;
},
{
segmentType = line;
smooth = 0;
x = 627;
y = 1436;
},
{
segmentType = line;
smooth = 0;
x = 627;
y = 1523;
},
{
segmentType = line;
smooth = 0;
x = 106;
y = 1523;
},
{
segmentType = line;
smooth = 0;
x = 106;
y = 1436;
},
{
segmentType = line;
smooth = 0;
x = 312;
y = 1408;
},
{
segmentType = line;
smooth = 0;
x = 277;
y = 1449;
},
{
segmentType = line;
smooth = 0;
x = 277;
y = 54;
},
{
segmentType = line;
smooth = 0;
x = 324;
y = 111;
},
{
segmentType = line;
smooth = 0;
x = 103;
y = 87;
}
);
},
{
points = (
{
segmentType = curve;
smooth = 1;
x = 694;
y = 428;
},
{
smooth = 0;
x = 618;
y = 428;
},
{
smooth = 0;
x = 530;
y = 426;
},
{
segmentType = curve;
smooth = 0;
x = 443;
y = 437;
},
{
segmentType = line;
smooth = 0;
x = 443;
y = 1067;
},
{
smooth = 0;
x = 504;
y = 1075;
},
{
smooth = 0;
x = 589;
y = 1085;
},
{
segmentType = curve;
smooth = 1;
x = 681;
y = 1087;
},
{
smooth = 0;
x = 943;
y = 1094;
},
{
smooth = 0;
x = 1051;
y = 976;
},
{
segmentType = curve;
smooth = 1;
x = 1051;
y = 775;
},
{
smooth = 0;
x = 1051;
y = 517;
},
{
smooth = 0;
x = 898;
y = 428;
}
);
}
);
lib = {
};
name = Thorn;
unicodes = (
);
width = 1344;
};
};
};
},
{
color = 7;
glyphname = Aogonek;
layers = (
{
background = {
anchors = (
{
name = btm;
position = "{236, -62}";
},
{
name = top;
position = "{330, 618}";
}
);
paths = (
{
closed = 1;
nodes = (
"492 -160 CURVE",
"483 -133 LINE",
"464 -141 OFFCURVE",
"445 -145 OFFCURVE",
"429 -145 CURVE SMOOTH",
"398 -145 OFFCURVE",
"377 -131 OFFCURVE",
"381 -101 CURVE SMOOTH",
"386 -58 OFFCURVE",
"442 -15 OFFCURVE",
"504 5 CURVE",
"435 5 LINE",
"434 -2 LINE",
"380 -25 OFFCURVE",
"326 -68 OFFCURVE",
"320 -119 CURVE SMOOTH",
"314 -166 OFFCURVE",
"352 -187 OFFCURVE",
"399 -187 CURVE SMOOTH",
"432 -187 OFFCURVE",
"468 -176 OFFCURVE"
);
},
{
closed = 1;
nodes = (
"126 176 LINE",
"403 176 LINE",
"393 214 LINE",
"143 214 LINE"
);
},
{
closed = 1;
nodes = (
"351 570 LINE",
"290 570 LINE",
"52 62 LINE SMOOTH",
"48 51 OFFCURVE",
"39 45 OFFCURVE",
"28 42 CURVE SMOOTH",
"-17 32 LINE",
"-21 0 LINE",
"160 0 LINE",
"164 32 LINE",
"94 46 LINE",
"321 543 LINE",
"295 543 LINE",
"413 46 LINE",
"338 32 LINE",
"334 0 LINE",
"530 0 LINE",
"534 32 LINE",
"495 42 LINE SMOOTH",
"484 45 OFFCURVE",
"478 51 OFFCURVE",
"475 62 CURVE SMOOTH"
);
}
);
};
components = (
{
name = A;
},
{
name = ogonekcomb.case.alt;
transform = "{1, 0, 0, 1, 379, 0}";
}
);
layerId = "DAAEA780-4710-4479-B303-5C05B40621B2";
width = 536;
},
{
background = {
anchors = (
{
name = btm;
position = "{207, -62}";
},
{
name = top;
position = "{339, 618}";
}
);
paths = (
{
closed = 1;
nodes = (
"521 -161 CURVE",
"507 -110 LINE",
"493 -116 OFFCURVE",
"479 -119 OFFCURVE",
"466 -119 CURVE SMOOTH",
"439 -119 OFFCURVE",
"420 -107 OFFCURVE",
"424 -82 CURVE SMOOTH",
"428 -48 OFFCURVE",
"471 -12 OFFCURVE",
"532 4 CURVE",
"436 5 LINE",
"435 -2 LINE",
"378 -20 OFFCURVE",
"324 -60 OFFCURVE",
"318 -112 CURVE SMOOTH",
"312 -163 OFFCURVE",
"353 -188 OFFCURVE",
"410 -189 CURVE SMOOTH",
"446 -189 OFFCURVE",
"490 -179 OFFCURVE"
);
},
{
closed = 1;
nodes = (
"130 166 LINE",
"396 166 LINE",
"383 228 LINE",
"155 228 LINE"
);
},
{
closed = 1;
nodes = (
"404 570 LINE",
"275 570 LINE",
"49 82 LINE SMOOTH",
"44 72 OFFCURVE",
"38 67 OFFCURVE",
"27 64 CURVE SMOOTH",
"-23 52 LINE",
"-29 0 LINE",
"183 0 LINE",
"189 52 LINE",
"121 64 LINE",
"315 517 LINE",
"284 517 LINE",
"369 64 LINE",
"298 52 LINE",
"292 0 LINE",
"565 0 LINE",
"571 52 LINE",
"527 64 LINE SMOOTH",
"518 67 OFFCURVE",
"512 72 OFFCURVE",
"510 82 CURVE SMOOTH"
);
}
);
};
components = (
{
name = A;
},
{
name = ogonekcomb.case.alt;
transform = "{1, 0, 0, 1, 413, 0}";
}
);
layerId = "925CB40E-795E-477B-BAE7-1EE7D58841B5";
width = 577;
}
);
leftKerningGroup = A;
leftMetricsKey = "=A";
rightKerningGroup = A;
rightMetricsKey = "=A";
unicode = 0104;
userData = {
com.schriftgestaltung.Glyphs.leftMetricsKey = "=A";
com.schriftgestaltung.Glyphs.rightMetricsKey = "=A";
com.typemytype.robofont.layerData = {
background = {
anchors = (
);
components = (
);
contours = (
{
points = (
{
segmentType = curve;
smooth = 1;
x = 944;
y = -318;
},
{
smooth = 0;
x = 944;
y = -463;
},
{
smooth = 0;
x = 1068;
y = -510;
},
{
segmentType = curve;
smooth = 1;
x = 1192;
y = -510;
},
{
smooth = 0;
x = 1276;
y = -510;
},
{
smooth = 0;
x = 1367;
y = -483;
},
{
segmentType = curve;
smooth = 0;
x = 1424;
y = -440;
},
{
segmentType = line;
smooth = 0;
x = 1424;
y = -354;
},
{
smooth = 0;
x = 1377;
y = -378;
},
{
smooth = 0;
x = 1318;
y = -395;
},
{
segmentType = curve;
smooth = 1;
x = 1265;
y = -395;
},
{
smooth = 0;
x = 1179;
y = -395;
},
{
smooth = 0;
x = 1105;
y = -361;
},
{
segmentType = curve;
smooth = 1;
x = 1105;
y = -264;
},
{
smooth = 0;
x = 1105;
y = -169;
},
{
smooth = 0;
x = 1223;
y = -31;
},
{
segmentType = curve;
smooth = 0;
x = 1379;
y = 17;
},
{
segmentType = line;
smooth = 0;
x = 1210;
y = 2;
},
{
smooth = 0;
x = 1065;
y = -58;
},
{
smooth = 0;
x = 944;
y = -205;
}
);
},
{
points = (
{
segmentType = line;
smooth = 0;
x = 47;
y = 0;
},
{
segmentType = line;
smooth = 0;
x = 508;
y = 0;
},
{
segmentType = line;
smooth = 0;
x = 508;
y = 88;
},
{
segmentType = line;
smooth = 0;
x = 304;
y = 111;
},
{
segmentType = line;
smooth = 0;
x = 312;
y = 64;
},
{
segmentType = line;
smooth = 0;
x = 694;
y = 1214;
},
{
segmentType = line;
smooth = 0;
x = 750;
y = 1415;
},
{
segmentType = line;
smooth = 0;
x = 807;
y = 1220;
},
{
segmentType = line;
smooth = 0;
x = 1196;
y = 68;
},
{
segmentType = line;
smooth = 0;
x = 1213;
y = 111;
},
{
segmentType = line;
smooth = 0;
x = 1002;
y = 88;
},
{
segmentType = line;
smooth = 0;
x = 1002;
y = 0;
},
{
segmentType = line;
smooth = 0;
x = 1502;
y = 0;
},
{
segmentType = line;
smooth = 0;
x = 1502;
y = 88;
},
{
segmentType = line;
smooth = 0;
x = 1341;
y = 111;
},
{
segmentType = line;
smooth = 0;
x = 1384;
y = 62;
},
{
segmentType = line;
smooth = 0;
x = 857;
y = 1537;
},
{
segmentType = line;
smooth = 0;
x = 689;
y = 1537;
},
{
segmentType = line;
smooth = 0;
x = 165;
y = 68;
},
{
segmentType = line;
smooth = 0;
x = 208;
y = 112;
},
{
segmentType = line;
smooth = 0;
x = 47;
y = 88;
}
);
},
{
points = (
{
segmentType = line;
smooth = 0;
x = 371;
y = 433;
},
{
segmentType = line;
smooth = 0;
x = 1113;
y = 433;
},
{
segmentType = line;
smooth = 0;
x = 1071;
y = 539;
},
{
segmentType = line;
smooth = 0;
x = 405;
y = 539;
}
);
}
);
lib = {
};
name = Aogonek;
unicodes = (
);
width = 1486;
};
};
};
},
{
glyphname = Dcroat;
layers = (
{
anchors = (
{
name = bottom;
position = "{245, 0}";
},
{
name = top;
position = "{319, 568}";
}
);
background = {
paths = (
{
closed = 1;
nodes = (
"64 272 LINE",
"340 272 LINE",
"345 313 LINE",
"69 313 LINE"
);
},
{
closed = 1;
nodes = (
"205 568 CURVE SMOOTH",
"96 568 LINE",
"92 536 LINE",
"152 524 LINE SMOOTH",
"162 522 OFFCURVE",
"167 513 OFFCURVE",
"166 503 CURVE SMOOTH",
"113 65 LINE SMOOTH",
"112 53 OFFCURVE",
"103 45 OFFCURVE",
"90 43 CURVE SMOOTH",
"30 32 LINE",
"27 0 LINE",
"137 0 LINE SMOOTH",
"180 0 OFFCURVE",
"225 -5 OFFCURVE",
"257 -5 CURVE SMOOTH",
"427 -5 OFFCURVE",
"553 96 OFFCURVE",
"577 300 CURVE SMOOTH",
"598 475 OFFCURVE",
"528 574 OFFCURVE",
"339 574 CURVE SMOOTH",
"293 574 OFFCURVE",
"251 568 OFFCURVE"
);
},
{
closed = 1;
nodes = (
"171 37 CURVE",
"232 533 LINE",
"252 534 OFFCURVE",
"280 537 OFFCURVE",
"314 537 CURVE SMOOTH",
"465 537 OFFCURVE",
"531 464 OFFCURVE",
"510 288 CURVE SMOOTH",
"489 113 OFFCURVE",
"404 35 OFFCURVE",
"270 31 CURVE SMOOTH",
"240 30 OFFCURVE",
"195 33 OFFCURVE"
);
}
);
};
layerId = "DAAEA780-4710-4479-B303-5C05B40621B2";
paths = (
{
closed = 1;
nodes = (
"447 -4 OFFCURVE",
"528 175 OFFCURVE",
"528 334 CURVE SMOOTH",
"528 493 OFFCURVE",
"441 571 OFFCURVE",
"288 571 CURVE SMOOTH",
"249 571 OFFCURVE",
"212 568 OFFCURVE",
"184 568 CURVE SMOOTH",
"92 568 LINE",
"88 536 LINE",
"140 526 LINE",
"154 523 OFFCURVE",
"159 517 OFFCURVE",
"157 500 CURVE",
"103 75 LINE",
"100 53 OFFCURVE",
"96 46 OFFCURVE",
"76 42 CURVE",
"25 32 LINE",
"21 0 LINE",
"123 0 LINE SMOOTH",
"160 0 OFFCURVE",
"197 -4 OFFCURVE",
"229 -4 CURVE SMOOTH"
);
},
{
closed = 1;
nodes = (
"313 271 LINE",
"318 312 LINE",
"69 312 LINE",
"64 271 LINE"
);
},
{
closed = 1;
nodes = (
"214 32 OFFCURVE",
"181 34 OFFCURVE",
"161 37 CURVE",
"222 533 LINE",
"244 534 OFFCURVE",
"258 535 OFFCURVE",
"274 535 CURVE SMOOTH",
"397 535 OFFCURVE",
"457 467 OFFCURVE",
"457 325 CURVE SMOOTH",
"457 193 OFFCURVE",
"404 32 OFFCURVE",
"236 32 CURVE SMOOTH"
);
}
);
width = 557;
},
{
anchors = (
{
name = bottom;
position = "{273, 0}";
},
{
name = top;
position = "{342, 573}";
}
);
background = {
paths = (
{
closed = 1;
nodes = (
"50 259 LINE",
"350 259 LINE",
"357 320 LINE",
"57 320 LINE"
);
},
{
closed = 1;
nodes = (
"224 568 CURVE SMOOTH",
"84 568 LINE",
"77 513 LINE",
"134 501 LINE SMOOTH",
"142 499 OFFCURVE",
"147 493 OFFCURVE",
"146 484 CURVE SMOOTH",
"97 81 LINE SMOOTH",
"96 72 OFFCURVE",
"89 65 OFFCURVE",
"80 63 CURVE SMOOTH",
"20 52 LINE",
"14 0 LINE",
"156 0 LINE SMOOTH",
"184 0 OFFCURVE",
"241 -5 OFFCURVE",
"275 -6 CURVE SMOOTH",
"455 -11 OFFCURVE",
"573 101 OFFCURVE",
"598 303 CURVE SMOOTH",
"621 490 OFFCURVE",
"539 572 OFFCURVE",
"354 572 CURVE SMOOTH",
"312 572 OFFCURVE",
"274 568 OFFCURVE"
);
},
{
closed = 1;
nodes = (
"232 59 CURVE",
"288 512 LINE",
"293 513 OFFCURVE",
"313 519 OFFCURVE",
"337 519 CURVE SMOOTH",
"436 519 OFFCURVE",
"464 431 OFFCURVE",
"445 282 CURVE SMOOTH",
"423 107 OFFCURVE",
"367 51 OFFCURVE",
"283 51 CURVE SMOOTH",
"266 51 OFFCURVE",
"244 53 OFFCURVE"
);
}
);
};
layerId = "925CB40E-795E-477B-BAE7-1EE7D58841B5";
paths = (
{
closed = 1;
nodes = (
"499 -5 OFFCURVE",
"574 205 OFFCURVE",
"574 352 CURVE SMOOTH",
"574 508 OFFCURVE",
"491 576 OFFCURVE",
"335 576 CURVE SMOOTH",
"304 576 OFFCURVE",
"236 573 OFFCURVE",
"198 573 CURVE SMOOTH",
"88 573 LINE",
"82 521 LINE",
"126 512 LINE SMOOTH",
"142 509 OFFCURVE",
"149 505 OFFCURVE",
"147 488 CURVE SMOOTH",
"97 85 LINE SMOOTH",
"95 69 OFFCURVE",
"87 64 OFFCURVE",
"73 61 CURVE SMOOTH",
"26 52 LINE",
"20 0 LINE",
"131 0 LINE SMOOTH",
"171 0 OFFCURVE",
"220 -5 OFFCURVE",
"256 -5 CURVE SMOOTH"
);
},
{
closed = 1;
nodes = (
"340 259 LINE",
"347 321 LINE",
"61 321 LINE",
"53 259 LINE"
);
},
{
closed = 1;
nodes = (
"261 52 OFFCURVE",
"243 54 OFFCURVE",
"229 59 CURVE",
"287 519 LINE",
"296 521 OFFCURVE",
"311 522 OFFCURVE",
"321 522 CURVE SMOOTH",
"396 522 OFFCURVE",
"428 465 OFFCURVE",
"428 354 CURVE SMOOTH",
"428 232 OFFCURVE",
"390 52 OFFCURVE",
"278 52 CURVE SMOOTH"
);
}
);
width = 595;
}
);
leftKerningGroup = Dcroat;
leftMetricsKey = "=D+6";
rightKerningGroup = D;
rightMetricsKey = D;
unicode = 0110;
userData = {
com.typemytype.robofont.layerData = {
background = {
anchors = (
);
components = (
);
contours = (
{
points = (
{
segmentType = line;
smooth = 0;
x = 120;
y = 729;
},
{
segmentType = line;
smooth = 0;
x = 832;
y = 729;
},
{
segmentType = line;
smooth = 0;
x = 832;
y = 835;
},
{
segmentType = line;
smooth = 0;
x = 120;
y = 835;
}
);
},
{
points = (
{
segmentType = line;
smooth = 0;
x = 102;
y = 0;
},
{
smooth = 0;
x = 194;
y = 0;
},
{
smooth = 0;
x = 274;
y = 0;
},
{
segmentType = curve;
smooth = 1;
x = 365;
y = 0;
},
{
smooth = 0;
x = 483;
y = 0;
},
{
smooth = 0;
x = 600;
y = -14;
},
{
segmentType = curve;
smooth = 1;
x = 698;
y = -16;
},
{
smooth = 0;
x = 1154;
y = -27;
},
{
smooth = 0;
x = 1475;
y = 305;
},
{
segmentType = curve;
smooth = 1;
x = 1475;
y = 806;
},
{
smooth = 0;
x = 1475;
y = 1246;
},
{
smooth = 0;
x = 1256;
y = 1538;
},
{
segmentType = curve;
smooth = 1;
x = 724;
y = 1538;
},
{
smooth = 0;
x = 603;
y = 1538;
},
{
smooth = 0;
x = 488;
y = 1522;
},
{
segmentType = curve;
smooth = 1;
x = 362;
y = 1522;
},
{
segmentType = line;
smooth = 0;
x = 114;
y = 1522;
},
{
segmentType = line;
smooth = 0;
x = 114;
y = 1434;
},
{
segmentType = line;
smooth = 0;
x = 302;
y = 1408;
},
{
segmentType = line;
smooth = 0;
x = 278;
y = 1445;
},
{
segmentType = line;
smooth = 0;
x = 278;
y = 67;
},
{
segmentType = line;
smooth = 0;
x = 318;
y = 112;
},
{
segmentType = line;
smooth = 0;
x = 102;
y = 88;
}
);
},
{
points = (
{
segmentType = line;
smooth = 0;
x = 447;
y = 1427;
},
{
smooth = 0;
x = 503;
y = 1430;
},
{
smooth = 0;
x = 579;
y = 1440;
},
{
segmentType = curve;
smooth = 1;
x = 672;
y = 1440;
},
{
smooth = 0;
x = 1087;
y = 1440;
},
{
smooth = 0;
x = 1294;
y = 1217;
},
{
segmentType = curve;
smooth = 1;
x = 1294;
y = 771;
},
{
smooth = 0;
x = 1294;
y = 326;
},
{
smooth = 0;
x = 1053;
y = 89;
},
{
segmentType = curve;
smooth = 1;
x = 723;
y = 83;
},
{
smooth = 0;
x = 629;
y = 81;
},
{
smooth = 0;
x = 545;
y = 82;
},
{
segmentType = curve;
smooth = 0;
x = 447;
y = 100;
}
);
}
);
lib = {
};
name = Dcroat;
unicodes = (
);
width = 1626;
};
};
};
},
{
color = 7;
glyphname = Eogonek;
layers = (
{
background = {
anchors = (
{
name = btm;
position = "{242, -62}";
},
{
name = top;
position = "{325, 618}";
}
);
paths = (
{
closed = 1;
nodes = (
"430 0 LINE",
"444 47 OFFCURVE",
"456 96 OFFCURVE",
"463 140 CURVE",
"431 144 LINE",
"396 69 LINE SMOOTH",
"391 59 OFFCURVE",
"385 52 OFFCURVE",
"373 48 CURVE SMOOTH",
"354 41 OFFCURVE",
"321 39 OFFCURVE",
"286 39 CURVE SMOOTH",
"163 39 LINE",
"192 272 LINE",
"376 268 LINE",
"382 317 LINE",
"197 311 LINE",
"224 532 LINE",
"325 532 LINE SMOOTH",
"359 532 OFFCURVE",
"388 530 OFFCURVE",
"405 524 CURVE SMOOTH",
"416 519 OFFCURVE",
"422 513 OFFCURVE",
"423 503 CURVE SMOOTH",
"430 433 LINE",
"463 433 LINE",
"473 482 OFFCURVE",
"478 524 OFFCURVE",
"481 568 CURVE",
"88 568 LINE",
"84 536 LINE",
"142 524 LINE SMOOTH",
"154 522 OFFCURVE",
"160 513 OFFCURVE",
"158 501 CURVE SMOOTH",
"105 66 LINE SMOOTH",
"103 53 OFFCURVE",
"96 45 OFFCURVE",
"83 43 CURVE SMOOTH",
"23 32 LINE",
"19 0 LINE"
);
},
{
closed = 1;
nodes = (
"421 -160 CURVE",
"411 -133 LINE",
"393 -141 OFFCURVE",
"373 -145 OFFCURVE",
"357 -145 CURVE SMOOTH",
"326 -145 OFFCURVE",
"306 -131 OFFCURVE",
"309 -101 CURVE SMOOTH",
"314 -58 OFFCURVE",
"374 -15 OFFCURVE",
"430 0 CURVE",
"368 5 LINE",
"367 -2 LINE",
"310 -25 OFFCURVE",
"255 -68 OFFCURVE",
"249 -119 CURVE SMOOTH",
"243 -166 OFFCURVE",
"281 -187 OFFCURVE",
"327 -187 CURVE SMOOTH",
"360 -187 OFFCURVE",
"396 -176 OFFCURVE"
);
}
);
};
components = (
{
name = E;
},
{
name = ogonekcomb.case.alt;
transform = "{1, 0, 0, 1, 322, 0}";
}
);
layerId = "DAAEA780-4710-4479-B303-5C05B40621B2";
width = 477;
},
{
background = {
anchors = (
{
name = btm;
position = "{255, -62}";
},
{
name = top;
position = "{334, 618}";
}
);
paths = (
{
closed = 1;
nodes = (
"465 0 LINE",
"481 59 OFFCURVE",
"492 112 OFFCURVE",
"500 171 CURVE",
"436 181 LINE",
"394 91 LINE SMOOTH",
"387 78 OFFCURVE",
"382 71 OFFCURVE",
"372 67 CURVE SMOOTH",
"358 62 OFFCURVE",
"329 59 OFFCURVE",
"305 59 CURVE SMOOTH",
"228 59 LINE",
"252 256 LINE",
"408 252 LINE",
"417 327 LINE",
"260 321 LINE",
"284 512 LINE",
"345 512 LINE SMOOTH",
"369 512 OFFCURVE",
"392 508 OFFCURVE",
"405 504 CURVE SMOOTH",
"415 499 OFFCURVE",
"421 493 OFFCURVE",
"423 480 CURVE SMOOTH",
"434 413 LINE",
"499 413 LINE",
"510 466 OFFCURVE",
"516 517 OFFCURVE",
"515 568 CURVE",
"78 568 LINE",
"72 513 LINE",
"127 502 LINE SMOOTH",
"138 500 OFFCURVE",
"143 493 OFFCURVE",
"142 481 CURVE SMOOTH",
"93 83 LINE SMOOTH",
"92 72 OFFCURVE",
"85 65 OFFCURVE",
"73 63 CURVE SMOOTH",
"15 52 LINE",
"9 0 LINE"
);
},
{
closed = 1;
nodes = (
"451 -161 CURVE",
"438 -110 LINE",
"424 -116 OFFCURVE",
"410 -119 OFFCURVE",
"397 -119 CURVE SMOOTH",
"370 -119 OFFCURVE",
"352 -107 OFFCURVE",
"355 -82 CURVE SMOOTH",
"359 -50 OFFCURVE",
"403 -14 OFFCURVE",
"465 0 CURVE",
"368 5 LINE",
"367 -2 LINE",
"308 -21 OFFCURVE",
"254 -60 OFFCURVE",
"248 -112 CURVE SMOOTH",
"242 -162 OFFCURVE",
"283 -188 OFFCURVE",
"342 -189 CURVE SMOOTH",
"378 -189 OFFCURVE",
"420 -179 OFFCURVE"
);
}
);
};
components = (
{
name = E;
},
{
name = ogonekcomb.case.alt;
transform = "{1, 0, 0, 1, 356, 0}";
}
);
layerId = "925CB40E-795E-477B-BAE7-1EE7D58841B5";
width = 521;
}
);
leftKerningGroup = H;
leftMetricsKey = "=E";
rightKerningGroup = E;
rightMetricsKey = "=E";
unicode = 0118;
userData = {
com.schriftgestaltung.Glyphs.leftMetricsKey = "=E";
com.schriftgestaltung.Glyphs.rightMetricsKey = "=E";
com.typemytype.robofont.layerData = {
background = {
anchors = (
);
components = (
);
contours = (
{
points = (
{
segmentType = curve;
smooth = 1;
x = 732;
y = -318;
},
{
smooth = 0;
x = 732;
y = -463;
},
{
smooth = 0;
x = 856;
y = -510;
},
{
segmentType = curve;
smooth = 1;
x = 981;
y = -510;
},
{
smooth = 0;
x = 1065;
y = -510;
},
{
smooth = 0;
x = 1156;
y = -483;
},
{
segmentType = curve;
smooth = 0;
x = 1213;
y = -440;
},
{
segmentType = line;
smooth = 0;
x = 1213;
y = -354;
},
{
smooth = 0;
x = 1165;
y = -378;
},
{
smooth = 0;
x = 1106;
y = -395;
},
{
segmentType = curve;
smooth = 1;
x = 1053;
y = -395;
},
{
smooth = 0;
x = 968;
y = -395;
},
{
smooth = 0;
x = 894;
y = -361;
},
{
segmentType = curve;
smooth = 1;
x = 894;
y = -264;
},
{
smooth = 0;
x = 894;
y = -168;
},
{
smooth = 0;
x = 1053;
y = -22;
},
{
segmentType = curve;
smooth = 0;
x = 1191;
y = 1;
},
{
segmentType = line;
smooth = 0;
x = 1100;
y = 19;
},
{
segmentType = line;
smooth = 0;
x = 1026;
y = 2;
},
{
smooth = 0;
x = 869;
y = -58;
},
{
smooth = 0;
x = 732;
y = -204;
}
);
},
{
points = (
{
segmentType = line;
smooth = 0;
x = 103;
y = 0;
},
{
segmentType = line;
smooth = 0;
x = 1212;
y = 0;
},
{
segmentType = line;
smooth = 0;
x = 1275;
y = 346;
},
{
segmentType = line;
smooth = 0;
x = 1178;
y = 377;
},
{
segmentType = line;
smooth = 0;
x = 1074;
y = 121;
},
{
segmentType = line;
smooth = 0;
x = 447;
y = 104;
},
{
segmentType = line;
smooth = 0;
x = 447;
y = 735;
},
{
segmentType = line;
smooth = 0;
x = 824;
y = 730;
},
{
segmentType = line;
smooth = 0;
x = 849;
y = 555;
},
{
segmentType = line;
smooth = 0;
x = 953;
y = 555;
},
{
segmentType = line;
smooth = 0;
x = 953;
y = 1007;
},
{
segmentType = line;
smooth = 0;
x = 849;
y = 1007;
},
{
segmentType = line;
smooth = 0;
x = 824;
y = 837;
},
{
segmentType = line;
smooth = 0;
x = 447;
y = 831;
},
{
segmentType = line;
smooth = 0;
x = 447;
y = 1427;
},
{
segmentType = line;
smooth = 0;
x = 995;
y = 1418;
},
{
segmentType = line;
smooth = 0;
x = 1051;
y = 1221;
},
{
segmentType = line;
smooth = 0;
x = 1148;
y = 1221;
},
{
segmentType = line;
smooth = 0;
x = 1120;
y = 1522;
},
{
segmentType = line;
smooth = 0;
x = 107;
y = 1522;
},
{
segmentType = line;
smooth = 0;
x = 107;
y = 1434;
},
{
segmentType = line;
smooth = 0;
x = 299;
y = 1409;
},
{
segmentType = line;
smooth = 0;
x = 278;
y = 1453;
},
{
segmentType = line;
smooth = 0;
x = 278;
y = 66;
},
{
segmentType = line;
smooth = 0;
x = 325;
y = 113;
},
{
segmentType = line;
smooth = 0;
x = 103;
y = 88;
}
);
}
);
lib = {
};
name = Eogonek;
unicodes = (
);
width = 1348;
};
};
};
},
